<svg width="149" height="39" viewBox="0 0 149 39" fill="none" xmlns="http://www.w3.org/2000/svg">
<g clip-path="url(#clip0_17664_9209)">
<path d="M44.716 20.1489L11.7188 16.642L11.8471 2.92781C11.8691 0.603264 14.4651 -0.785426 16.4312 0.477477L43.358 17.7539C44.2431 18.3225 44.6907 19.2315 44.7143 20.1506L44.716 20.1489Z" fill="#F70068"/>
<path d="M44.7158 20.149C44.7445 21.1922 44.2259 22.2488 43.1737 22.8191L14.0815 38.5123C13.2572 38.9567 12.313 38.9735 11.5107 38.6397L11.7185 16.6421L44.7158 20.149Z" fill="#CE0058"/>
<path d="M11.7199 16.7361L11.5122 38.7338C10.9193 38.4873 10.4041 38.0495 10.068 37.4524L0.383005 20.2129C-0.792573 18.1215 0.896476 15.5856 3.29493 15.8405L11.7199 16.7361Z" fill="#7F56D9"/>
</g>
<path d="M61.6011 11.2903C63.3758 11.2903 64.7272 11.6974 65.6553 12.5115C66.5833 13.3093 67.0474 14.3513 67.0474 15.6376C67.0474 16.0121 67.0148 16.3621 66.9497 16.6877C66.7543 17.8275 66.2577 18.8451 65.4599 19.7406C64.6621 20.6361 63.5956 21.2711 62.2605 21.6456L65.0203 28.4351H60.3067L57.8889 21.963H56.8875L55.7397 28.4351H51.5634L54.5918 11.2903H61.6011ZM62.6757 16.8587C62.7083 16.5982 62.7245 16.4272 62.7245 16.3458C62.7245 15.8248 62.5536 15.4259 62.2117 15.1491C61.886 14.856 61.3976 14.7095 60.7463 14.7095H58.1575L57.4004 19.0079H59.9892C60.7545 19.0079 61.3569 18.8207 61.7965 18.4462C62.2524 18.0717 62.5454 17.5425 62.6757 16.8587ZM75.9945 14.6118C77.7529 14.6118 79.145 15.0921 80.1707 16.0528C81.2128 16.9971 81.7338 18.2915 81.7338 19.936C81.7338 20.4733 81.6931 20.9536 81.6117 21.3769C81.5465 21.7514 81.4489 22.1503 81.3186 22.5736H71.867C71.8507 22.6713 71.8426 22.826 71.8426 23.0376C71.8426 23.754 72.038 24.2995 72.4287 24.674C72.8195 25.0484 73.3405 25.2357 73.9918 25.2357C75.0338 25.2357 75.8316 24.7961 76.3852 23.9169H80.8301C80.244 25.3008 79.2915 26.4324 77.9727 27.3116C76.6539 28.1908 75.1722 28.6304 73.5278 28.6304C71.7693 28.6304 70.361 28.142 69.3026 27.1651C68.2606 26.1882 67.7396 24.8612 67.7396 23.1842C67.7396 22.6794 67.7884 22.1584 67.8861 21.6211C68.1304 20.2046 68.6351 18.9672 69.4003 17.9089C70.1656 16.8506 71.1181 16.0365 72.2578 15.4666C73.3975 14.8968 74.6431 14.6118 75.9945 14.6118ZM77.5087 20.4488C77.5412 20.2209 77.5575 20.0662 77.5575 19.9848C77.5575 19.3335 77.354 18.8369 76.9469 18.495C76.5399 18.1368 76.0026 17.9577 75.335 17.9577C74.6186 17.9577 73.9837 18.1775 73.4301 18.6171C72.8928 19.0405 72.502 19.651 72.2578 20.4488H77.5087ZM97.6625 16.8099C97.4997 17.8031 97.1171 18.7148 96.5147 19.5452C95.9122 20.3593 95.09 21.0187 94.048 21.5234C93.0222 22.0282 91.8092 22.2805 90.409 22.2805H87.8202L86.7212 28.4351H82.5449L85.5733 11.2903H92.3384C94.1294 11.2903 95.4808 11.6892 96.3925 12.487C97.3043 13.2686 97.7602 14.335 97.7602 15.6864C97.7602 16.0935 97.7277 16.4679 97.6625 16.8099ZM90.6532 19.0079C92.2163 19.0079 93.1362 18.2752 93.413 16.8099C93.4455 16.5494 93.4618 16.3621 93.4618 16.2481C93.4618 15.7271 93.2909 15.3282 92.9489 15.0514C92.6233 14.7584 92.1186 14.6118 91.4347 14.6118H89.1634L88.4063 19.0079H90.6532ZM98.176 21.5967C98.4202 20.1965 98.9005 18.9672 99.6169 17.9089C100.333 16.8506 101.196 16.0365 102.206 15.4666C103.215 14.8968 104.282 14.6118 105.405 14.6118C106.366 14.6118 107.172 14.8072 107.823 15.198C108.474 15.5887 108.946 16.1016 109.239 16.7366L109.581 14.8072H113.758L111.34 28.4351H107.164L107.53 26.5057C107.009 27.1407 106.349 27.6535 105.552 28.0443C104.754 28.4351 103.875 28.6304 102.914 28.6304C101.953 28.6304 101.099 28.4106 100.35 27.971C99.6169 27.5314 99.047 26.9127 98.64 26.1149C98.233 25.3008 98.0294 24.3483 98.0294 23.2575C98.0294 22.7364 98.0783 22.1829 98.176 21.5967ZM108.385 21.6211C108.433 21.3281 108.458 21.0594 108.458 20.8152C108.458 20.0174 108.222 19.3905 107.75 18.9346C107.294 18.4787 106.708 18.2508 105.991 18.2508C105.161 18.2508 104.404 18.552 103.72 19.1544C103.036 19.7406 102.605 20.5547 102.426 21.5967C102.377 21.8898 102.352 22.1584 102.352 22.4027C102.352 23.2005 102.58 23.8355 103.036 24.3076C103.508 24.7635 104.094 24.9915 104.795 24.9915C105.625 24.9915 106.382 24.6902 107.066 24.0878C107.75 23.4854 108.189 22.6632 108.385 21.6211ZM119.881 14.8072L121.541 23.3307L126.182 14.8072H130.7L118.611 34.9071H114.117L118.464 27.971L115.24 14.8072H119.881Z" fill="#7F56D9"/>
<path d="M130.432 27.8115C130.22 27.8115 130.041 27.7383 129.895 27.5917C129.748 27.4452 129.675 27.2661 129.675 27.0544C129.675 26.8428 129.748 26.6637 129.895 26.5171C130.041 26.3706 130.22 26.2973 130.432 26.2973C130.636 26.2973 130.807 26.3706 130.945 26.5171C131.092 26.6637 131.165 26.8428 131.165 27.0544C131.165 27.2661 131.092 27.4452 130.945 27.5917C130.807 27.7383 130.636 27.8115 130.432 27.8115ZM133.753 22.2798C133.973 21.8972 134.299 21.5797 134.73 21.3273C135.17 21.0668 135.678 20.9366 136.256 20.9366C136.851 20.9366 137.388 21.079 137.868 21.364C138.357 21.6489 138.739 22.0519 139.016 22.5729C139.293 23.0858 139.431 23.6841 139.431 24.368C139.431 25.0436 139.293 25.6461 139.016 26.1752C138.739 26.7044 138.357 27.1155 137.868 27.4086C137.388 27.7016 136.851 27.8482 136.256 27.8482C135.687 27.8482 135.182 27.722 134.742 27.4696C134.311 27.2091 133.981 26.8876 133.753 26.5049V30.9132H132.642V21.0465H133.753V22.2798ZM138.296 24.368C138.296 23.8632 138.194 23.4236 137.99 23.0491C137.787 22.6746 137.51 22.3897 137.16 22.1943C136.818 21.999 136.44 21.9013 136.024 21.9013C135.617 21.9013 135.239 22.003 134.889 22.2065C134.547 22.4019 134.27 22.6909 134.058 23.0735C133.855 23.448 133.753 23.8836 133.753 24.3802C133.753 24.8849 133.855 25.3286 134.058 25.7112C134.27 26.0857 134.547 26.3747 134.889 26.5782C135.239 26.7736 135.617 26.8713 136.024 26.8713C136.44 26.8713 136.818 26.7736 137.16 26.5782C137.51 26.3747 137.787 26.0857 137.99 25.7112C138.194 25.3286 138.296 24.8808 138.296 24.368ZM144.216 20.9244C144.72 20.9244 145.176 21.0343 145.583 21.2541C145.99 21.4657 146.308 21.7873 146.536 22.2188C146.772 22.6502 146.89 23.1753 146.89 23.794V27.7383H145.791V23.9528C145.791 23.2852 145.624 22.7764 145.29 22.4263C144.956 22.0681 144.5 21.889 143.922 21.889C143.336 21.889 142.868 22.0722 142.518 22.4386C142.176 22.8049 142.005 23.3381 142.005 24.0382V27.7383H140.894V18.7019H142.005V21.999C142.225 21.657 142.526 21.3925 142.909 21.2052C143.3 21.018 143.735 20.9244 144.216 20.9244Z" fill="#7F56D9"/>
<defs>
<clipPath id="clip0_17664_9209">
<rect width="44.7176" height="38.8699" fill="white"/>
</clipPath>
</defs>
</svg>
