<svg xmlns="http://www.w3.org/2000/svg" width="182" height="48" viewBox="0 0 182 48" fill="none">
<g clip-path="url(#clip0_17121_15243)">
<path d="M55.2912 24.8458L15.0547 20.5694L15.2112 3.84651C15.238 1.01198 18.4036 -0.681374 20.801 0.858598L53.6353 21.9253C54.7145 22.6186 55.2603 23.7271 55.2892 24.8478L55.2912 24.8458Z" fill="white"/>
<path d="M55.2912 24.8447C55.3262 26.1168 54.6939 27.4052 53.4108 28.1005L17.936 47.2367C16.9309 47.7786 15.7796 47.7991 14.8013 47.3921L15.0546 20.5684L55.2912 24.8447Z" fill="#D3DADE"/>
<path d="M15.0562 20.6831L14.8029 47.5068C14.08 47.2062 13.4518 46.6724 13.0419 45.9444L1.23211 24.9226C-0.20138 22.3724 1.85823 19.2802 4.78288 19.591L15.0562 20.6831Z" fill="#BBC5CD"/>
</g>
<path d="M75.715 13.0685C77.8791 13.0685 79.527 13.5648 80.6586 14.5575C81.7903 15.5304 82.3562 16.801 82.3562 18.3695C82.3562 18.8261 82.3164 19.253 82.237 19.65C81.9988 21.0398 81.3932 22.2807 80.4204 23.3726C79.4476 24.4646 78.1471 25.2389 76.5191 25.6955L79.8843 33.9746H74.1367L71.1884 26.0827H69.9673L68.5676 33.9746H63.4751L67.168 13.0685H75.715ZM77.0254 19.8585C77.0651 19.5409 77.085 19.3324 77.085 19.2331C77.085 18.5978 76.8765 18.1114 76.4596 17.7739C76.0625 17.4165 75.4669 17.2378 74.6727 17.2378H71.5159L70.5927 22.4792H73.7495C74.6826 22.4792 75.4172 22.2509 75.9533 21.7943C76.5092 21.3376 76.8666 20.6924 77.0254 19.8585ZM93.2662 17.1187C95.4104 17.1187 97.1079 17.7044 98.3587 18.8757C99.6293 20.0273 100.265 21.6057 100.265 23.6109C100.265 24.2661 100.215 24.8518 100.116 25.368C100.036 25.8246 99.9172 26.311 99.7584 26.8272H88.2332C88.2134 26.9463 88.2034 27.135 88.2034 27.3931C88.2034 28.2666 88.4417 28.9317 88.9182 29.3884C89.3947 29.845 90.03 30.0733 90.8241 30.0733C92.0948 30.0733 93.0676 29.5373 93.7427 28.4652H99.1628C98.448 30.1527 97.2866 31.5326 95.6784 32.6047C94.0702 33.6768 92.2635 34.2129 90.2583 34.2129C88.1141 34.2129 86.3967 33.6172 85.1062 32.426C83.8356 31.2348 83.2003 29.6167 83.2003 27.5717C83.2003 26.9563 83.2598 26.3209 83.3789 25.6658C83.6767 23.9385 84.2922 22.4296 85.2253 21.1391C86.1585 19.8486 87.3199 18.8559 88.7097 18.161C90.0995 17.4661 91.6183 17.1187 93.2662 17.1187ZM95.1126 24.2363C95.1523 23.9583 95.1721 23.7697 95.1721 23.6705C95.1721 22.8763 94.924 22.2708 94.4276 21.8538C93.9313 21.417 93.2761 21.1987 92.4621 21.1987C91.5885 21.1987 90.8142 21.4667 90.1392 22.0027C89.484 22.5189 89.0075 23.2635 88.7097 24.2363H95.1126ZM119.688 19.799C119.489 21.01 119.023 22.1219 118.288 23.1344C117.554 24.1271 116.551 24.9312 115.28 25.5466C114.03 26.1621 112.551 26.4699 110.843 26.4699H107.686L106.346 33.9746H101.254L104.947 13.0685H113.196C115.38 13.0685 117.028 13.5549 118.139 14.5278C119.251 15.4807 119.807 16.7812 119.807 18.429C119.807 18.9254 119.767 19.382 119.688 19.799ZM111.141 22.4792C113.047 22.4792 114.169 21.5858 114.506 19.799C114.546 19.4813 114.566 19.253 114.566 19.114C114.566 18.4787 114.357 17.9923 113.94 17.6547C113.543 17.2974 112.928 17.1187 112.094 17.1187H109.324L108.401 22.4792H111.141ZM120.314 25.636C120.612 23.9286 121.198 22.4296 122.071 21.1391C122.945 19.8486 123.997 18.8559 125.228 18.161C126.459 17.4661 127.759 17.1187 129.129 17.1187C130.301 17.1187 131.283 17.3569 132.078 17.8334C132.872 18.3099 133.447 18.9353 133.805 19.7096L134.222 17.3569H139.314L136.366 33.9746H131.273L131.72 31.6219C131.085 32.3962 130.281 33.0216 129.308 33.4981C128.335 33.9746 127.263 34.2129 126.092 34.2129C124.92 34.2129 123.878 33.9448 122.965 33.4088C122.071 32.8727 121.376 32.1183 120.88 31.1454C120.384 30.1527 120.135 28.9913 120.135 27.6611C120.135 27.0258 120.195 26.3507 120.314 25.636ZM132.762 25.6658C132.822 25.3084 132.852 24.9808 132.852 24.683C132.852 23.7102 132.564 22.9458 131.988 22.3899C131.432 21.834 130.718 21.556 129.844 21.556C128.831 21.556 127.908 21.9233 127.074 22.6579C126.24 23.3726 125.714 24.3653 125.496 25.636C125.436 25.9934 125.407 26.3209 125.407 26.6188C125.407 27.5916 125.685 28.3659 126.24 28.9417C126.816 29.4976 127.531 29.7755 128.385 29.7755C129.397 29.7755 130.32 29.4082 131.154 28.6736C131.988 27.939 132.524 26.9364 132.762 25.6658ZM146.781 17.3569L148.806 27.7504L154.464 17.3569H159.973L145.232 41.8665H139.752L145.053 33.4088L141.122 17.3569H146.781Z" fill="white"/>
<path d="M159.813 34.6274C159.555 34.6274 159.337 34.5381 159.158 34.3594C158.979 34.1807 158.89 33.9623 158.89 33.7042C158.89 33.4461 158.979 33.2277 159.158 33.049C159.337 32.8704 159.555 32.781 159.813 32.781C160.061 32.781 160.27 32.8704 160.439 33.049C160.617 33.2277 160.707 33.4461 160.707 33.7042C160.707 33.9623 160.617 34.1807 160.439 34.3594C160.27 34.5381 160.061 34.6274 159.813 34.6274ZM163.863 27.8821C164.131 27.4155 164.528 27.0284 165.054 26.7206C165.59 26.403 166.211 26.2441 166.915 26.2441C167.64 26.2441 168.295 26.4179 168.881 26.7653C169.477 27.1127 169.943 27.6041 170.281 28.2394C170.618 28.8648 170.787 29.5945 170.787 30.4283C170.787 31.2523 170.618 31.9869 170.281 32.6321C169.943 33.2774 169.477 33.7787 168.881 34.136C168.295 34.4934 167.64 34.6721 166.915 34.6721C166.221 34.6721 165.605 34.5182 165.069 34.2105C164.543 33.8928 164.141 33.5007 163.863 33.0342V38.4096H162.508V26.3781H163.863V27.8821ZM169.402 30.4283C169.402 29.8129 169.278 29.2768 169.03 28.8202C168.782 28.3635 168.444 28.0161 168.017 27.7778C167.6 27.5396 167.139 27.4205 166.633 27.4205C166.136 27.4205 165.675 27.5446 165.248 27.7927C164.831 28.031 164.493 28.3834 164.235 28.85C163.987 29.3066 163.863 29.8377 163.863 30.4432C163.863 31.0587 163.987 31.5997 164.235 32.0663C164.493 32.5229 164.831 32.8753 165.248 33.1235C165.675 33.3617 166.136 33.4809 166.633 33.4809C167.139 33.4809 167.6 33.3617 168.017 33.1235C168.444 32.8753 168.782 32.5229 169.03 32.0663C169.278 31.5997 169.402 31.0537 169.402 30.4283ZM176.621 26.2292C177.236 26.2292 177.792 26.3633 178.288 26.6313C178.785 26.8894 179.172 27.2815 179.45 27.8076C179.738 28.3338 179.882 28.974 179.882 29.7285V34.5381H178.542V29.9221C178.542 29.1081 178.338 28.4876 177.931 28.0608C177.524 27.624 176.968 27.4056 176.263 27.4056C175.549 27.4056 174.978 27.6289 174.551 28.0757C174.134 28.5224 173.926 29.1726 173.926 30.0263V34.5381H172.571V23.5192H173.926V27.5396C174.194 27.1227 174.561 26.8 175.027 26.5717C175.504 26.3434 176.035 26.2292 176.621 26.2292Z" fill="white"/>
<defs>
<clipPath id="clip0_17121_15243">
<rect width="54.5282" height="47.3976" fill="white" transform="translate(0.765076 0.275391)"/>
</clipPath>
</defs>
</svg>