<svg width="127" height="127" viewBox="0 0 127 127" fill="none" xmlns="http://www.w3.org/2000/svg">
<path d="M56.7206 95.3097C56.7178 95.3097 56.7162 95.3097 56.7134 95.3097L30.2184 95.3042C29.3965 95.304 28.7303 94.6376 28.7305 93.8156C28.7307 92.9938 29.397 92.3276 30.2188 92.3276C30.2189 92.3276 30.2189 92.3276 30.2191 92.3276L56.714 92.3331C56.7162 92.3331 56.7185 92.3331 56.7206 92.3331C62.5804 92.3331 68.3087 90.6991 73.2867 87.6076L106.341 67.0655C107.462 66.3702 108.12 65.216 108.147 63.8984C108.175 62.5809 107.566 61.4002 106.476 60.6593C105.226 59.8097 103.59 59.7768 102.308 60.5754C98.3198 63.0593 92.8733 66.4872 85.9778 70.8271C82.6726 72.9073 79.0554 75.1839 75.1459 77.6414C74.45 78.079 73.5313 77.8695 73.0939 77.1735C72.6564 76.4776 72.8659 75.5589 73.5618 75.1214C77.4707 72.6642 81.0875 70.3878 84.3922 68.3079C91.2911 63.9659 96.7402 60.5363 100.734 58.0487C103.016 56.6278 105.927 56.6864 108.149 58.1977C110.06 59.4967 111.171 61.651 111.123 63.9606C111.075 66.2702 109.874 68.3762 107.911 69.5942L74.8574 90.1359C69.4075 93.5206 63.1355 95.3095 56.7206 95.3097Z" fill="white"/>
<path d="M68.8917 82.3714H53.0898C52.2678 82.3714 51.6015 81.705 51.6015 80.8831C51.6015 80.0611 52.2678 79.3948 53.0898 79.3948H68.8917C71.0729 79.3948 72.8611 77.69 72.9627 75.5137C73.0143 74.4073 72.6163 73.3512 71.8418 72.5397C71.0556 71.716 69.9515 71.2435 68.8124 71.2435H49.2736C49.2692 71.2435 49.2646 71.2435 49.2602 71.2434C46.4566 71.218 37.9255 71.1411 32.7685 76.4336C32.2861 76.9285 31.833 77.4657 31.4215 78.0301C30.9373 78.6943 30.0063 78.8403 29.3421 78.356C28.6779 77.8719 28.532 76.9409 29.0162 76.2767C29.5107 75.5984 30.056 74.9522 30.6366 74.3562C33.1786 71.7475 36.6048 69.9528 40.82 69.0223C44.0261 68.3147 47.0255 68.2465 49.2806 68.2669H68.8124C70.761 68.2669 72.65 69.0752 73.9951 70.4846C75.3367 71.8904 76.026 73.7257 75.936 75.6525C75.7601 79.4202 72.6659 82.3714 68.8917 82.3714Z" fill="white"/>
<path d="M27.7386 100.262H19.8438C17.6554 100.262 15.875 98.4812 15.875 96.2928V72.2322C15.875 70.0438 17.6554 68.2634 19.8438 68.2634H27.7386C29.927 68.2634 31.7074 70.0438 31.7074 72.2322V96.2928C31.7074 98.4812 29.927 100.262 27.7386 100.262ZM19.8438 71.24C19.2967 71.24 18.8516 71.6851 18.8516 72.2322V96.2928C18.8516 96.8399 19.2967 97.285 19.8438 97.285H27.7386C28.2857 97.285 28.7308 96.8399 28.7308 96.2928V72.2322C28.7308 71.6851 28.2857 71.24 27.7386 71.24H19.8438Z" fill="white"/>
<path d="M85.8301 59.4989H29.7227C28.9007 59.4989 28.2344 58.8326 28.2344 58.0106V28.2266C28.2344 27.4046 28.9007 26.7383 29.7227 26.7383H85.8301C86.6521 26.7383 87.3184 27.4046 87.3184 28.2266V58.0106C87.3183 58.8325 86.652 59.4989 85.8301 59.4989ZM31.2109 56.5223H84.3418V29.7148H31.2109V56.5223Z" fill="white"/>
<path d="M69.8624 45.014C70.9093 45.014 71.7579 44.1654 71.7579 43.1185C71.7579 42.0716 70.9093 41.2229 69.8624 41.2229C68.8155 41.2229 67.9668 42.0716 67.9668 43.1185C67.9668 44.1654 68.8155 45.014 69.8624 45.014Z" fill="white"/>
<path d="M45.6925 45.014C46.7394 45.014 47.588 44.1654 47.588 43.1185C47.588 42.0716 46.7394 41.2229 45.6925 41.2229C44.6456 41.2229 43.7969 42.0716 43.7969 43.1185C43.7969 44.1654 44.6456 45.014 45.6925 45.014Z" fill="white"/>
<path d="M57.7772 48.6985C54.7004 48.6985 52.1973 46.1953 52.1973 43.1185C52.1973 40.0417 54.7004 37.5386 57.7772 37.5386C60.854 37.5386 63.3571 40.0417 63.3571 43.1185C63.3571 46.1953 60.854 48.6985 57.7772 48.6985ZM57.7772 40.5151C56.3417 40.5151 55.1738 41.683 55.1738 43.1185C55.1738 44.554 56.3417 45.7219 57.7772 45.7219C59.2127 45.7219 60.3806 44.554 60.3806 43.1185C60.3806 41.683 59.2127 40.5151 57.7772 40.5151Z" fill="white"/>
<path d="M75.7707 54.0832H39.7826C39.0285 54.0832 38.3936 53.5191 38.3047 52.7703C38.1029 51.0697 36.7222 49.6889 35.0218 49.4871C34.273 49.3982 33.709 48.7633 33.709 48.0092V38.2281C33.709 37.474 34.273 36.8391 35.0218 36.7502C36.7223 36.5483 38.1029 35.1675 38.3047 33.4669C38.3936 32.7181 39.0285 32.1541 39.7826 32.1541H75.7706C76.5247 32.1541 77.1597 32.7181 77.2485 33.467C77.4503 35.1676 78.8309 36.5484 80.5313 36.7502C81.2801 36.8391 81.8442 37.474 81.8442 38.2281V48.0092C81.8442 48.7633 81.2801 49.3982 80.5313 49.4871C78.8308 49.6889 77.4502 51.0697 77.2485 52.7703C77.1597 53.5191 76.5248 54.0832 75.7707 54.0832ZM40.9672 51.1066H74.586C74.915 50.1159 75.4736 49.2034 76.2191 48.4579C76.9645 47.7124 77.877 47.1536 78.8677 46.8246V39.4126C77.877 39.0836 76.9645 38.5248 76.2191 37.7793C75.4736 37.0338 74.915 36.1213 74.586 35.1306H40.9672C40.6382 36.1213 40.0794 37.0338 39.3341 37.7793C38.5886 38.5248 37.6762 39.0836 36.6855 39.4126V46.8246C37.6762 47.1536 38.5886 47.7124 39.3341 48.4579C40.0795 49.2034 40.6382 50.1159 40.9672 51.1066Z" fill="white"/>
</svg>
