<svg width="125" height="127" viewBox="0 0 125 127" fill="none" xmlns="http://www.w3.org/2000/svg">
<path fill-rule="evenodd" clip-rule="evenodd" d="M107.931 39.8161C107.921 39.5502 107.835 39.289 107.689 39.069L101.835 30.1478C101.572 29.7469 101.13 29.5063 100.655 29.5063H24.4786C24.0045 29.5063 23.5619 29.7469 23.299 30.1478L17.4456 39.0685C17.2873 39.3052 17.2012 39.5902 17.2012 39.877V44.3421C17.2012 47.1018 19.0739 49.425 21.596 50.0695V93.4586C21.596 94.2541 22.2306 94.899 23.0137 94.899H82.6519L85.1664 97.4539C85.4433 97.7353 85.8061 97.8757 86.1689 97.8757C86.5317 97.8757 86.8945 97.735 87.1712 97.4539L89.6859 94.899H102.12C102.903 94.899 103.538 94.2541 103.538 93.4586V50.0695C106.06 49.425 107.933 47.1015 107.933 44.3421V39.877C107.933 39.8566 107.932 39.8362 107.931 39.8161ZM25.2373 32.3871H99.8968L103.866 38.4366H97.7256H88.9359H80.1463H71.3567H62.567H53.7774H44.9878H36.1981H27.4085H21.2677L25.2373 32.3871ZM96.3079 44.3421C96.3079 46.0102 94.9723 47.3669 93.3307 47.3669C91.6892 47.3669 90.3536 46.0099 90.3536 44.3421V41.3173H96.3079V44.3421ZM87.5182 44.3421C87.5182 46.0102 86.1826 47.3669 84.5411 47.3669C82.8996 47.3669 81.564 46.0099 81.564 44.3421V41.3173H87.5182V44.3421ZM78.7286 44.3421C78.7286 46.0102 77.393 47.3669 75.7515 47.3669C74.1097 47.3669 72.7743 46.0099 72.7743 44.3421V41.3173H78.7286V44.3421ZM69.939 44.3421C69.939 46.0102 68.6034 47.3669 66.9618 47.3669C65.3201 47.3669 63.9847 46.0099 63.9847 44.3421V41.3173H69.939V44.3421ZM61.1493 44.3421C61.1493 46.0102 59.8137 47.3669 58.1722 47.3669C56.5307 47.3669 55.1951 46.0099 55.1951 44.3421V41.3173H61.1493V44.3421ZM52.3597 44.3421C52.3597 46.0102 51.0241 47.3669 49.3826 47.3669C47.7411 47.3669 46.4054 46.0099 46.4054 44.3421V41.3173H52.3597V44.3421ZM43.5701 44.3421C43.5701 46.0102 42.2345 47.3669 40.5929 47.3669C38.9514 47.3669 37.6158 46.0099 37.6158 44.3421V41.3173H43.5701V44.3421ZM34.7804 44.3421C34.7804 46.0102 33.4448 47.3669 31.8033 47.3669C30.1618 47.3669 28.8262 46.0099 28.8262 44.3421V41.3173H34.7804V44.3421ZM20.0365 44.3421V41.3173H25.9908V44.3421C25.9908 46.0102 24.6552 47.3669 23.0137 47.3669C21.3722 47.3669 20.0365 46.0099 20.0365 44.3421ZM86.1692 94.3982L84.2418 92.44C84.0129 92.2069 83.7042 92.0577 83.3803 92.0252L76.3335 91.3094C76.0271 91.2642 75.755 91.1279 75.5401 90.9312C75.1821 90.6034 74.9832 90.1081 75.051 89.5872C75.1501 88.8259 75.7929 88.2521 76.5459 88.2521C76.6112 88.2521 76.6798 88.2568 76.7489 88.266L78.2022 88.4609C78.8051 88.542 79.3905 88.2237 79.6593 87.6705C79.9281 87.1171 79.8198 86.4511 79.3904 86.0146L72.7688 79.287C71.3737 77.7904 73.502 75.7318 74.9435 77.151L79.0508 81.3239C79.3165 81.5939 79.6773 81.7457 80.053 81.7457C80.4291 81.7457 80.7896 81.5939 81.0556 81.3239L84.1842 78.1453C84.4641 77.8608 84.8361 77.7041 85.2322 77.7041C85.6283 77.7041 86.0007 77.8608 86.2845 78.1492L94.2522 86.1858L86.1692 94.3982ZM100.703 92.0182H92.5215L97.2632 87.2007C97.5297 86.93 97.6791 86.5626 97.6783 86.1796C97.6775 85.7968 97.5269 85.4297 97.2594 85.16L88.2855 76.1086C87.4697 75.28 86.3854 74.8234 85.2319 74.8234C84.0785 74.8234 82.9941 75.28 82.1788 76.1086L80.0528 78.2687L76.9481 75.1143C76.6577 74.8193 76.3264 74.5697 75.9687 74.3694C75.3165 74.0038 74.5744 73.8038 73.8196 73.8038C73.8142 73.8038 73.8086 73.8038 73.8033 73.8038C72.6349 73.8082 71.5472 74.2689 70.7411 75.1001C69.9331 75.9323 69.4888 77.0338 69.4898 78.1997C69.4888 79.3791 69.941 80.4888 70.7632 81.3242L75.0241 85.6533C73.5614 86.2139 72.4547 87.5588 72.2398 89.2098C72.1122 90.1757 72.3127 91.1785 72.799 92.0182H24.4311V50.07L24.4306 50.0698C25.6051 49.7696 26.6389 49.1056 27.4082 48.203C28.4748 49.4546 30.0495 50.2476 31.8031 50.2476C33.5566 50.2476 35.1313 49.4546 36.1979 48.203C37.2644 49.4546 38.8391 50.2476 40.5927 50.2476C42.3462 50.2476 43.9209 49.4546 44.9875 48.203C46.0541 49.4546 47.6288 50.2476 49.3823 50.2476C51.1359 50.2476 52.7106 49.4546 53.7771 48.203C54.8437 49.4546 56.4184 50.2476 58.172 50.2476C59.9255 50.2476 61.5002 49.4546 62.5668 48.203C63.6333 49.4546 65.208 50.2476 66.9616 50.2476C68.7151 50.2476 70.2898 49.4546 71.3564 48.203C72.423 49.4546 73.9977 50.2476 75.7512 50.2476C77.5048 50.2476 79.0795 49.4546 80.146 48.203C81.2126 49.4546 82.7873 50.2476 84.5409 50.2476C86.2944 50.2476 87.8691 49.4546 88.9357 48.203C90.0022 49.4546 91.5769 50.2476 93.3305 50.2476C95.0841 50.2476 96.6587 49.4546 97.7253 48.203C98.4946 49.1056 99.5284 49.7696 100.703 50.0698L100.702 50.07L100.703 92.0182ZM105.098 44.3421C105.098 46.0102 103.762 47.3669 102.12 47.3669C100.479 47.3669 99.1432 46.0099 99.1432 44.3421V41.3173H105.098V44.3421Z" fill="white"/>
<path fill-rule="evenodd" clip-rule="evenodd" d="M40.5923 53.3203H28.8728C28.0897 53.3203 27.4551 53.9651 27.4551 54.7607V87.505C27.4551 88.3006 28.0897 88.9454 28.8728 88.9454H40.5923C41.3753 88.9454 42.01 88.3006 42.01 87.505V54.7607C42.01 53.9651 41.3753 53.3203 40.5923 53.3203ZM39.1746 86.0646H30.2904V56.201H39.1746V86.0646Z" fill="white"/>
<path fill-rule="evenodd" clip-rule="evenodd" d="M96.2608 53.3203H46.4528C45.6698 53.3203 45.0352 53.9651 45.0352 54.7607V63.691C45.0352 64.4865 45.6698 65.1313 46.4528 65.1313H96.2608C97.0438 65.1313 97.6785 64.4865 97.6785 63.691V54.7607C97.6785 53.9651 97.0438 53.3203 96.2608 53.3203ZM94.8431 62.2506H47.8705V56.201H94.8431V62.2506Z" fill="white"/>
<path fill-rule="evenodd" clip-rule="evenodd" d="M96.2608 68.2041H46.4528C45.6698 68.2041 45.0352 68.8489 45.0352 69.6445C45.0352 70.44 45.6698 71.0848 46.4528 71.0848H96.2608C97.0438 71.0848 97.6785 70.44 97.6785 69.6445C97.6785 68.8489 97.0438 68.2041 96.2608 68.2041Z" fill="white"/>
<path fill-rule="evenodd" clip-rule="evenodd" d="M46.4528 77.0385H56.7074C57.4904 77.0385 58.1251 76.3936 58.1251 75.5981C58.1251 74.8025 57.4904 74.1577 56.7074 74.1577H46.4528C45.6698 74.1577 45.0352 74.8025 45.0352 75.5981C45.0352 76.3934 45.6698 77.0385 46.4528 77.0385Z" fill="white"/>
<path fill-rule="evenodd" clip-rule="evenodd" d="M65.497 80.1111H46.4528C45.6698 80.1111 45.0352 80.7559 45.0352 81.5515C45.0352 82.347 45.6698 82.9918 46.4528 82.9918H65.497C66.2801 82.9918 66.9147 82.347 66.9147 81.5515C66.9147 80.7559 66.2801 80.1111 65.497 80.1111Z" fill="white"/>
<path fill-rule="evenodd" clip-rule="evenodd" d="M59.6373 86.0647H46.4528C45.6698 86.0647 45.0352 86.7095 45.0352 87.5051C45.0352 88.3006 45.6698 88.9454 46.4528 88.9454H59.6373C60.4203 88.9454 61.055 88.3006 61.055 87.5051C61.055 86.7095 60.4203 86.0647 59.6373 86.0647Z" fill="white"/>
</svg>
