<svg width="127" height="127" viewBox="0 0 127 127" fill="none" xmlns="http://www.w3.org/2000/svg">
<path d="M79.2927 111.125H47.7067C44.3995 111.125 41.709 108.435 41.709 105.127C41.709 101.82 44.3995 99.1296 47.7067 99.1296H79.2927C82.5998 99.1296 85.2904 101.82 85.2904 105.127C85.2904 108.435 82.5998 111.125 79.2927 111.125ZM47.7067 102.106C46.0408 102.106 44.6855 103.462 44.6855 105.127C44.6855 106.793 46.0408 108.149 47.7067 108.149H79.2927C80.9585 108.149 82.3138 106.793 82.3138 105.127C82.3138 103.462 80.9586 102.106 79.2927 102.106H47.7067Z" fill="white"/>
<path d="M79.2927 102.106H47.7067C44.3995 102.106 41.709 99.4158 41.709 96.1086C41.709 92.8015 44.3995 90.1108 47.7067 90.1108H79.2927C82.5998 90.1108 85.2904 92.8015 85.2904 96.1086C85.2904 99.4158 82.5998 102.106 79.2927 102.106ZM47.7067 93.0874C46.0408 93.0874 44.6855 94.4427 44.6855 96.1086C44.6855 97.7744 46.0408 99.1298 47.7067 99.1298H79.2927C80.9585 99.1298 82.3138 97.7745 82.3138 96.1086C82.3138 94.4427 80.9586 93.0874 79.2927 93.0874H47.7067Z" fill="white"/>
<path d="M79.2927 93.0872H47.7067C44.3995 93.0872 41.709 90.3967 41.709 87.0895C41.709 83.7824 44.3995 81.0918 47.7067 81.0918H79.2927C82.5998 81.0918 85.2904 83.7824 85.2904 87.0895C85.2904 90.3967 82.5998 93.0872 79.2927 93.0872ZM47.7067 84.0684C46.0408 84.0684 44.6855 85.4237 44.6855 87.0896C44.6855 88.7555 46.0408 90.1107 47.7067 90.1107H79.2927C80.9585 90.1107 82.3138 88.7555 82.3138 87.0896C82.3138 85.4237 80.9586 84.0684 79.2927 84.0684H47.7067Z" fill="white"/>
<path d="M79.2927 84.0685H47.7067C44.3995 84.0685 41.709 81.3779 41.709 78.0707C41.709 74.7636 44.3995 72.073 47.7067 72.073H79.2927C82.5998 72.073 85.2904 74.7636 85.2904 78.0707C85.2904 81.3779 82.5998 84.0685 79.2927 84.0685ZM47.7067 75.0496C46.0408 75.0496 44.6855 76.4048 44.6855 78.0707C44.6855 79.7366 46.0408 81.0919 47.7067 81.0919H79.2927C80.9585 81.0919 82.3138 79.7367 82.3138 78.0707C82.3138 76.4049 80.9586 75.0496 79.2927 75.0496H47.7067Z" fill="white"/>
<path d="M68.4912 31.6697V31.6696C68.0815 31.0618 67.4498 30.5582 66.6117 30.1718C66.0635 29.9227 65.0635 29.633 63.6394 29.3108C61.9242 28.9229 61.4163 28.6356 61.2636 28.4966C61.03 28.2876 60.9212 28.0372 60.9212 27.7084C60.9212 27.3181 61.0898 27.0012 61.4518 26.7112C61.831 26.4072 62.5118 26.2466 63.4206 26.2466C64.2989 26.2466 64.9568 26.4211 65.376 26.7651C65.6626 27.0005 65.8691 27.3263 65.9897 27.7333C66.1693 28.3392 66.7315 28.7298 67.3538 28.6823L67.3753 28.6807C67.775 28.6506 68.136 28.4448 68.3655 28.116C68.5932 27.79 68.6618 27.3845 68.5536 27.0035C68.4335 26.5801 68.2496 26.1778 68.0067 25.808C67.5583 25.1252 66.9132 24.6029 66.0895 24.2555C65.2963 23.9211 64.3745 23.7515 63.3497 23.7515C62.4143 23.7515 61.5488 23.9131 60.7771 24.232C59.9721 24.5647 59.3481 25.0639 58.9225 25.716C58.4989 26.3648 58.2842 27.074 58.2842 27.8237C58.2842 28.5123 58.4633 29.1448 58.8165 29.7035C59.1662 30.257 59.6957 30.7221 60.3887 31.085C60.9018 31.3574 61.785 31.6451 63.0137 31.94C64.4679 32.2894 65.041 32.4671 65.2685 32.5557C65.7184 32.727 66.0498 32.9379 66.2268 33.1655C66.3939 33.381 66.4787 33.6395 66.4787 33.9342C66.4787 34.2293 66.386 34.5075 66.2032 34.7608C66.0153 35.0212 65.7117 35.2341 65.301 35.3937C64.8575 35.5659 64.3323 35.6531 63.7399 35.6531C63.0717 35.6531 62.466 35.537 61.9396 35.308C61.4379 35.0898 61.0687 34.8086 60.8421 34.4722C60.6982 34.2585 60.584 34.0001 60.5028 33.7042C60.3316 33.0799 59.7413 32.6676 59.1014 32.7234C58.7169 32.7571 58.3666 32.9557 58.1404 33.2684C57.9127 33.5831 57.8333 33.981 57.9225 34.3602C58.0511 34.9065 58.2729 35.4219 58.5817 35.8921C59.0854 36.6592 59.7874 37.2407 60.6682 37.6204C61.5214 37.9883 62.5816 38.1748 63.8197 38.1748C64.8143 38.1748 65.7258 37.9883 66.5288 37.6204C67.3533 37.2427 67.9973 36.7021 68.4431 36.0136C68.8894 35.3239 69.1157 34.5765 69.1157 33.7923C69.1157 32.9988 68.9056 32.2846 68.4912 31.6697Z" fill="white"/>
<path d="M63.502 40.1026C62.68 40.1026 62.0137 39.4363 62.0137 38.6143V37.7917C62.0137 36.9698 62.68 36.3035 63.502 36.3035C64.3239 36.3035 64.9902 36.9698 64.9902 37.7917V38.6143C64.9902 39.4363 64.3239 40.1026 63.502 40.1026Z" fill="white"/>
<path d="M63.502 25.6199C62.68 25.6199 62.0137 24.9536 62.0137 24.1316V23.312C62.0137 22.49 62.68 21.8237 63.502 21.8237C64.3239 21.8237 64.9902 22.49 64.9902 23.312V24.1316C64.9902 24.9536 64.3239 25.6199 63.502 25.6199Z" fill="white"/>
<path d="M63.5004 46.0516C59.4702 46.0516 55.6812 44.4821 52.8314 41.6323C49.9816 38.7825 48.4121 34.9935 48.4121 30.9633C48.4121 26.933 49.9816 23.144 52.8314 20.2942C55.6812 17.4445 59.4702 15.875 63.5004 15.875C67.5306 15.875 71.3197 17.4445 74.1695 20.2943C77.0193 23.1441 78.5887 26.9331 78.5887 30.9633C78.5887 34.9935 77.0193 38.7826 74.1695 41.6324C71.3197 44.4821 67.5306 46.0516 63.5004 46.0516ZM63.5004 18.8516C56.822 18.8516 51.3887 24.2849 51.3887 30.9633C51.3887 37.6417 56.822 43.075 63.5004 43.075C70.1788 43.075 75.6121 37.6417 75.6121 30.9633C75.6121 24.2849 70.1788 18.8516 63.5004 18.8516Z" fill="white"/>
<path d="M63.5 75.0495C62.678 75.0495 62.0117 74.3832 62.0117 73.5613V44.5635C62.0117 43.7415 62.678 43.0752 63.5 43.0752C64.322 43.0752 64.9883 43.7415 64.9883 44.5635V73.5613C64.9883 74.3832 64.322 75.0495 63.5 75.0495Z" fill="white"/>
<path d="M63.5 71.4898C62.678 71.4898 62.0117 70.8235 62.0117 70.0015C62.0117 65.9908 63.8161 62.2271 67.3748 58.8148C69.8739 56.4185 73.2459 54.1735 77.6835 51.9516C78.4183 51.5835 79.3126 51.881 79.6806 52.616C80.0486 53.351 79.7512 54.2451 79.0161 54.6131C74.8494 56.6995 71.7154 58.7766 69.4348 60.9633C66.4427 63.8323 64.9882 66.7887 64.9882 70.0015C64.9883 70.8235 64.322 71.4898 63.5 71.4898Z" fill="white"/>
<path d="M76.0076 63.0357C73.7373 63.0357 71.2508 62.1857 68.2187 60.8669C67.6837 60.6343 67.334 60.1105 67.3242 59.5272C67.2723 56.4356 67.7455 53.7271 68.7308 51.4769C69.6544 49.3678 71.0298 47.6425 72.8191 46.3491C78.1216 42.5161 85.9673 43.2289 91.5417 45.1741C92.0727 45.3594 92.4538 45.828 92.527 46.3856C92.6002 46.9431 92.3529 47.4944 91.8878 47.8104C88.7819 49.9206 87.4169 52.5048 86.8341 53.6083C86.7388 53.7887 86.6635 53.9312 86.5912 54.0528C86.5632 54.1003 86.3903 54.4033 86.276 54.6039C86.1543 54.8173 86.0412 55.0154 86.016 55.0585C83.2966 59.7131 80.9299 62.0199 78.1035 62.7696C77.4196 62.9509 76.7243 63.0357 76.0076 63.0357ZM70.3031 58.5218C76.4908 61.1263 79.0598 61.0643 83.4471 53.5545C83.4729 53.5105 83.5775 53.3269 83.6902 53.1292C83.898 52.7649 83.9995 52.5871 84.0328 52.5311C84.0666 52.4742 84.1324 52.3497 84.2021 52.2179C84.6804 51.3122 85.7629 49.2627 87.8988 47.2201C83.5259 46.2153 78.1657 46.1568 74.5628 48.7613C71.8392 50.7302 70.4084 54.0112 70.3031 58.5218Z" fill="white"/>
<path d="M63.5006 71.49C62.6786 71.49 62.0123 70.8237 62.0123 70.0017C62.0123 66.7889 60.5578 63.8325 57.5657 60.9635C55.2852 58.7768 52.1511 56.6996 47.9844 54.6133C47.2494 54.2453 46.952 53.3512 47.3199 52.6162C47.688 51.8812 48.5821 51.5838 49.3171 51.9518C53.7546 54.1737 57.1266 56.4187 59.6258 58.815C63.1845 62.2274 64.9889 65.9911 64.9889 70.0017C64.9889 70.8237 64.3225 71.49 63.5006 71.49Z" fill="white"/>
<path d="M50.993 63.0358C50.2761 63.0358 49.5812 62.9511 48.8971 62.7697C46.0707 62.0199 43.704 59.7131 40.9834 55.0562C40.9594 55.0155 40.8452 54.8154 40.7227 54.6005C40.6091 54.4012 40.4374 54.1 40.4088 54.0517C40.3372 53.9312 40.2619 53.7887 40.1665 53.6082C39.5837 52.5048 38.2187 49.9206 35.1128 47.8104C34.6478 47.4944 34.4005 46.9431 34.4736 46.3857C34.5468 45.8281 34.928 45.3594 35.4589 45.1741C41.0333 43.229 48.8791 42.5161 54.1816 46.3492C55.9709 47.6426 57.3463 49.3679 58.2698 51.4769C59.2551 53.7272 59.7284 56.4357 59.6764 59.5272C59.6666 60.1106 59.3169 60.6343 58.782 60.867C55.75 62.1858 53.2631 63.0358 50.993 63.0358ZM39.1017 47.2203C41.2376 49.2629 42.3201 51.3123 42.7985 52.2181C42.8682 52.3499 42.9339 52.4744 42.9677 52.5311C43.001 52.5871 43.1019 52.7639 43.3084 53.126C43.4217 53.3247 43.5273 53.5099 43.552 53.5522C47.9408 61.0644 50.51 61.1264 56.6975 58.522C56.5922 54.0114 55.1614 50.7305 52.4378 48.7615C48.8349 46.157 43.4745 46.2156 39.1017 47.2203Z" fill="white"/>
</svg>
