<svg width="128" height="127" viewBox="0 0 128 127" fill="none" xmlns="http://www.w3.org/2000/svg">
<path d="M88.377 64.9898C87.5485 64.9898 86.877 64.3234 86.877 63.5015V51.4321C86.877 50.6102 87.5485 49.9438 88.377 49.9438C89.2054 49.9438 89.877 50.6102 89.877 51.4321V63.5015C89.877 64.3234 89.2053 64.9898 88.377 64.9898Z" fill="white"/>
<path d="M73.1723 92.0609H26.377C25.5485 92.0609 24.877 91.3946 24.877 90.5726V51.4326C24.877 50.6107 25.5485 49.9443 26.377 49.9443C27.2054 49.9443 27.877 50.6107 27.877 51.4326V89.0843H73.1723C74.0008 89.0843 74.6723 89.7506 74.6723 90.5726C74.6723 91.3946 74.0008 92.0609 73.1723 92.0609Z" fill="white"/>
<path d="M20.1891 57.0335C20.0219 57.0335 19.8538 57.0236 19.6852 57.0037C18.5766 56.8723 17.5858 56.3205 16.8954 55.4498C16.2051 54.5792 15.8977 53.4939 16.0301 52.3938C16.1624 51.2937 16.7186 50.3107 17.5961 49.6258L56.4493 19.2989C56.9935 18.874 57.7601 18.874 58.3042 19.2989L97.1574 49.6258C98.0349 50.3107 98.5911 51.2937 98.7235 52.3938C98.8558 53.4938 98.5485 54.5791 97.8581 55.4498C97.1678 56.3205 96.1771 56.8723 95.0684 57.0036C93.9596 57.1349 92.8658 56.83 91.9883 56.145L57.3768 29.129L22.7653 56.145C22.0212 56.7259 21.1214 57.0335 20.1891 57.0335ZM57.3768 22.3622L19.4511 51.9651C19.2033 52.1585 19.0463 52.4361 19.0089 52.7466C18.9716 53.0572 19.0584 53.3636 19.2532 53.6094C19.4482 53.8552 19.7279 54.011 20.0409 54.0481C20.3539 54.0852 20.6627 53.9991 20.9104 53.8057L56.4494 26.0658C56.9936 25.641 57.7601 25.641 58.3043 26.0658L93.8432 53.8057C94.091 53.9991 94.3996 54.0853 94.7128 54.0481C95.0258 54.011 95.3054 53.8553 95.5004 53.6095C95.6953 53.3636 95.7821 53.0572 95.7447 52.7467C95.7073 52.4361 95.5504 52.1586 95.3026 51.9652L57.3768 22.3622Z" fill="white"/>
<path d="M81.7358 40.9713C80.9074 40.9713 80.2358 40.3049 80.2358 39.483V25.022H74.2852V32.4916C74.2852 33.3136 73.6136 33.9799 72.7852 33.9799C71.9567 33.9799 71.2852 33.3136 71.2852 32.4916V23.5337C71.2852 22.7117 71.9567 22.0454 72.7852 22.0454H81.7358C82.5643 22.0454 83.2358 22.7117 83.2358 23.5337V39.483C83.2358 40.3049 82.5643 40.9713 81.7358 40.9713Z" fill="white"/>
<path d="M53.2497 92.0777H34.7051C33.8766 92.0777 33.2051 91.4114 33.2051 90.5895V60.8916C33.2051 60.0696 33.8766 59.4033 34.7051 59.4033H53.2497C54.0781 59.4033 54.7497 60.0696 54.7497 60.8916V90.5895C54.7497 91.4114 54.0781 92.0777 53.2497 92.0777ZM36.2051 89.1012H51.7497V62.3799H36.2051V89.1012Z" fill="white"/>
<path d="M57.3773 53.0734C53.3288 53.0734 50.0352 49.8055 50.0352 45.7887C50.0352 41.7719 53.3288 38.5039 57.3773 38.5039C61.4257 38.5039 64.7194 41.7718 64.7194 45.7887C64.7193 49.8055 61.4257 53.0734 57.3773 53.0734ZM57.3773 41.4805C54.983 41.4805 53.0352 43.4132 53.0352 45.7887C53.0352 48.1643 54.983 50.0969 57.3773 50.0969C59.7715 50.0969 61.7193 48.1642 61.7193 45.7887C61.7193 43.4131 59.7715 41.4805 57.3773 41.4805Z" fill="white"/>
<path d="M89.2564 108.02C88.8586 108.02 88.477 107.863 88.1957 107.584L63.1408 82.7245C62.8835 82.4693 62.7285 82.1299 62.7046 81.7698L61.2103 59.2084C61.1819 58.7807 61.3409 58.3616 61.6464 58.0585C61.9519 57.7554 62.3743 57.5977 62.8054 57.6258L85.5443 59.1085C85.9073 59.1321 86.2493 59.2859 86.5065 59.5412L111.562 84.4004C112.147 84.9817 112.147 85.9239 111.562 86.5052L90.317 107.584C90.0358 107.863 89.6542 108.02 89.2564 108.02ZM65.6612 81.0157L89.2563 104.427L108.38 85.4528L84.7843 62.0419L64.316 60.7072L65.6612 81.0157Z" fill="white"/>
<path d="M74.8247 75.5651C73.6314 75.5651 72.5096 75.1041 71.6659 74.2669C70.8221 73.4298 70.3574 72.3167 70.3574 71.1328C70.3574 69.9489 70.8221 68.8358 71.6659 67.9987C72.5096 67.1615 73.6314 66.7004 74.8247 66.7004C76.0179 66.7004 77.1397 67.1615 77.9834 67.9987C78.8272 68.8358 79.2919 69.9489 79.2919 71.1328C79.2919 72.3167 78.8272 73.4298 77.9834 74.2669C77.1397 75.1041 76.0179 75.5651 74.8247 75.5651ZM74.8247 69.6771C74.4327 69.6771 74.0643 69.8285 73.7872 70.1035C73.51 70.3784 73.3574 70.744 73.3574 71.1329C73.3574 71.5217 73.51 71.8873 73.7871 72.1622C74.0643 72.4372 74.4327 72.5886 74.8247 72.5886C75.2166 72.5886 75.585 72.4372 75.8621 72.1622C76.1392 71.8873 76.2919 71.5217 76.2919 71.1329C76.2919 70.744 76.1392 70.3784 75.8621 70.1035C75.585 69.8285 75.2166 69.6771 74.8247 69.6771Z" fill="white"/>
<path d="M88.4013 95.834C85.5013 95.834 82.6013 94.7388 80.3936 92.5483C75.9782 88.1675 75.9782 81.0392 80.3936 76.6582C84.8089 72.2773 91.9934 72.2773 96.4089 76.6582C100.824 81.0392 100.824 88.1675 96.4089 92.5483C94.2011 94.7388 91.3012 95.834 88.4013 95.834ZM88.4012 76.3477C86.2693 76.3477 84.1379 77.1526 82.5149 78.763C79.2692 81.9833 79.2691 87.2233 82.5149 90.4435C85.7607 93.664 91.0419 93.6639 94.2875 90.4435C97.5332 87.2232 97.5332 81.9833 94.2875 78.763C92.6648 77.1529 90.5327 76.3477 88.4012 76.3477Z" fill="white"/>
<path d="M90.6736 87.2978C90.7761 86.7755 90.7119 86.1984 90.4827 85.5822C90.3362 85.1948 89.9957 84.5797 89.4708 83.7542C88.8157 82.7244 88.7847 82.4364 88.7832 82.4065C88.776 82.2782 88.8118 82.19 88.9108 82.0918C89.0355 81.9681 89.1722 81.9296 89.3984 81.9543C89.6544 81.9824 89.9904 82.1964 90.3701 82.5731C90.734 82.9342 90.9332 83.2638 90.9618 83.5528C90.9803 83.7389 90.9354 83.9325 90.8283 84.1282C90.5662 84.6078 90.6713 85.1884 91.0849 85.5404L91.0962 85.55C91.3604 85.7756 91.7089 85.8702 92.0522 85.8096C92.3934 85.7495 92.6856 85.5434 92.8538 85.2441C93.0093 84.9678 93.1213 84.6695 93.1864 84.3578C93.3073 83.7788 93.2451 83.1838 93.0014 82.5892C92.7728 82.0319 92.4007 81.4951 91.8955 80.9938C91.4325 80.5343 90.9221 80.1879 90.3786 79.9642C89.7943 79.7235 89.2143 79.6605 88.6547 79.7769C88.0998 79.8928 87.6212 80.1471 87.2322 80.5332C86.8727 80.8899 86.6357 81.3114 86.5278 81.7859C86.4218 82.2526 86.4537 82.7611 86.6225 83.2968C86.7417 83.6835 87.0297 84.2478 87.4784 84.9739C87.9867 85.7971 88.1665 86.1351 88.228 86.274C88.3374 86.516 88.3861 86.7167 88.3687 86.8541C88.3541 86.9696 88.2994 87.075 88.2063 87.1674C88.1104 87.2625 87.9882 87.3226 87.843 87.346C87.6873 87.3709 87.4984 87.3355 87.2816 87.2407C87.0253 87.1287 86.7673 86.9448 86.5149 86.6943C86.2297 86.4114 86.0218 86.1081 85.8967 85.7931C85.7838 85.5088 85.7474 85.2588 85.7885 85.05C85.8153 84.9136 85.8723 84.7689 85.9577 84.6199C86.2356 84.1358 86.1267 83.5252 85.6982 83.1682C85.441 82.9542 85.1035 82.8618 84.7721 82.9145C84.4392 82.9674 84.1462 83.1614 83.9681 83.4467C83.7557 83.7872 83.6065 84.1589 83.5245 84.5518C83.3901 85.1948 83.4511 85.843 83.7058 86.4785C83.9467 87.0799 84.3758 87.6894 84.9813 88.2901C85.4745 88.7795 86.0213 89.137 86.6063 89.3527C87.2186 89.5784 87.8244 89.63 88.4068 89.5063C88.9908 89.3822 89.4924 89.1155 89.8975 88.7136C90.308 88.3062 90.5692 87.8298 90.6736 87.2978Z" fill="white"/>
<path d="M84.7774 89.6857C84.3934 89.6857 84.0096 89.5404 83.7167 89.2498C83.1309 88.6686 83.1309 87.7263 83.7167 87.1451L84.1012 86.7636C84.687 86.1823 85.6367 86.1823 86.2225 86.7636C86.8082 87.3448 86.8082 88.2871 86.2225 88.8683L85.838 89.2498C85.5451 89.5404 85.1612 89.6857 84.7774 89.6857Z" fill="white"/>
<path d="M91.6387 82.8779C91.2547 82.8779 90.8709 82.7326 90.578 82.442C89.9922 81.8608 89.9922 80.9185 90.578 80.3373L90.9611 79.9572C91.5469 79.3759 92.4966 79.3759 93.0824 79.9572C93.6682 80.5384 93.6682 81.4807 93.0824 82.0619L92.6993 82.442C92.4064 82.7327 92.0225 82.8779 91.6387 82.8779Z" fill="white"/>
</svg>
