<svg width="128" height="127" viewBox="0 0 128 127" fill="none" xmlns="http://www.w3.org/2000/svg">
<path d="M71.3103 111.125H27.6098C24.453 111.125 21.8848 108.577 21.8848 105.445V49.0524C21.8848 45.9203 24.453 43.3721 27.6098 43.3721H71.3103C74.4671 43.3721 77.0353 45.9203 77.0353 49.0524V105.445C77.0353 108.577 74.467 111.125 71.3103 111.125ZM27.6098 46.3486C26.1072 46.3486 24.8848 47.5615 24.8848 49.0524V105.445C24.8848 106.935 26.1072 108.148 27.6098 108.148H71.3103C72.8128 108.148 74.0353 106.935 74.0353 105.445V49.0524C74.0353 47.5615 72.8128 46.3486 71.3103 46.3486H27.6098Z" fill="white"/>
<path d="M68.6452 62.6594H30.2734C29.445 62.6594 28.7734 61.9931 28.7734 61.1711V51.427C28.7734 50.605 29.445 49.9387 30.2734 49.9387H68.6452C69.4737 49.9387 70.1452 50.605 70.1452 51.427V61.1711C70.1452 61.9931 69.4737 62.6594 68.6452 62.6594ZM31.7734 59.6828H67.1452V52.9153H31.7734V59.6828Z" fill="white"/>
<path d="M38.8144 77.0361H30.2734C29.445 77.0361 28.7734 76.3698 28.7734 75.5478V66.8584C28.7734 66.0364 29.445 65.3701 30.2734 65.3701H38.8144C39.6429 65.3701 40.3144 66.0364 40.3144 66.8584V75.5478C40.3144 76.3698 39.6429 77.0361 38.8144 77.0361ZM31.7734 74.0595H37.3144V68.3467H31.7734V74.0595Z" fill="white"/>
<path d="M53.7305 77.0361H45.1895C44.361 77.0361 43.6895 76.3698 43.6895 75.5478V66.8584C43.6895 66.0364 44.361 65.3701 45.1895 65.3701H53.7305C54.5589 65.3701 55.2305 66.0364 55.2305 66.8584V75.5478C55.2305 76.3698 54.5589 77.0361 53.7305 77.0361ZM46.6895 74.0595H52.2305V68.3467H46.6895V74.0595Z" fill="white"/>
<path d="M68.6445 77.0361H60.1035C59.2751 77.0361 58.6035 76.3698 58.6035 75.5478V66.8584C58.6035 66.0364 59.2751 65.3701 60.1035 65.3701H68.6445C69.473 65.3701 70.1445 66.0364 70.1445 66.8584V75.5478C70.1445 76.3698 69.473 77.0361 68.6445 77.0361ZM61.6035 74.0595H67.1445V68.3467H61.6035V74.0595Z" fill="white"/>
<path d="M38.8144 90.7973H30.2734C29.445 90.7973 28.7734 90.131 28.7734 89.309V80.6196C28.7734 79.7977 29.445 79.1313 30.2734 79.1313H38.8144C39.6429 79.1313 40.3144 79.7977 40.3144 80.6196V89.309C40.3144 90.131 39.6429 90.7973 38.8144 90.7973ZM31.7734 87.8207H37.3144V82.1079H31.7734V87.8207Z" fill="white"/>
<path d="M53.7305 90.7973H45.1895C44.361 90.7973 43.6895 90.131 43.6895 89.309V80.6196C43.6895 79.7977 44.361 79.1313 45.1895 79.1313H53.7305C54.5589 79.1313 55.2305 79.7977 55.2305 80.6196V89.309C55.2305 90.131 54.5589 90.7973 53.7305 90.7973ZM46.6895 87.8207H52.2305V82.1079H46.6895V87.8207Z" fill="white"/>
<path d="M38.8144 104.558H30.2734C29.445 104.558 28.7734 103.892 28.7734 103.07V94.3806C28.7734 93.5586 29.445 92.8923 30.2734 92.8923H38.8144C39.6429 92.8923 40.3144 93.5586 40.3144 94.3806V103.07C40.3144 103.892 39.6429 104.558 38.8144 104.558ZM31.7734 101.582H37.3144V95.8689H31.7734V101.582Z" fill="white"/>
<path d="M53.7305 104.558H45.1895C44.361 104.558 43.6895 103.892 43.6895 103.07V94.3806C43.6895 93.5586 44.361 92.8923 45.1895 92.8923H53.7305C54.5589 92.8923 55.2305 93.5586 55.2305 94.3806V103.07C55.2305 103.892 54.5589 104.558 53.7305 104.558ZM46.6895 101.582H52.2305V95.8689H46.6895V101.582Z" fill="white"/>
<path d="M68.6445 104.558H60.1035C59.2751 104.558 58.6035 103.892 58.6035 103.07V80.6196C58.6035 79.7977 59.2751 79.1313 60.1035 79.1313H68.6445C69.473 79.1313 70.1445 79.7977 70.1445 80.6196V103.07C70.1445 103.892 69.473 104.558 68.6445 104.558ZM61.6035 101.582H67.1445V82.1079H61.6035V101.582Z" fill="white"/>
<path d="M101.338 99.4906H75.5357C74.7072 99.4906 74.0357 98.8243 74.0357 98.0023C74.0357 97.1804 74.7072 96.514 75.5357 96.514H101.338C102.318 96.514 103.114 95.7233 103.114 94.7514V20.6156C103.114 19.6429 102.317 18.8516 101.337 18.8516H45.4542C44.4747 18.8516 43.6777 19.6423 43.6777 20.6142V44.8601C43.6777 45.682 43.0062 46.3487 42.1777 46.3487C41.3493 46.3487 40.6777 45.6827 40.6777 44.8608V20.6142C40.6777 18.0009 42.8205 15.875 45.4542 15.875H101.337C103.971 15.875 106.114 18.0016 106.114 20.6156V94.7514C106.114 97.3647 103.972 99.4906 101.338 99.4906Z" fill="white"/>
<path d="M73.1347 29.3911H51.1641C50.3356 29.3911 49.6641 28.7248 49.6641 27.9028C49.6641 27.0809 50.3356 26.4146 51.1641 26.4146H73.1347C73.9632 26.4146 74.6347 27.0809 74.6347 27.9028C74.6347 28.7248 73.9632 29.3911 73.1347 29.3911Z" fill="white"/>
<path d="M73.1347 39.5386H51.1641C50.3356 39.5386 49.6641 38.8723 49.6641 38.0503C49.6641 37.2283 50.3356 36.562 51.1641 36.562H73.1347C73.9632 36.562 74.6347 37.2283 74.6347 38.0503C74.6347 38.8723 73.9632 39.5386 73.1347 39.5386Z" fill="white"/>
<path d="M95.6273 59.8328H75.5352C74.7067 59.8328 74.0352 59.1664 74.0352 58.3445C74.0352 57.5225 74.7067 56.8562 75.5352 56.8562H95.6273C96.4558 56.8562 97.1273 57.5225 97.1273 58.3445C97.1273 59.1664 96.4558 59.8328 95.6273 59.8328Z" fill="white"/>
<path d="M95.6273 69.9802H75.5352C74.7067 69.9802 74.0352 69.3139 74.0352 68.4919C74.0352 67.67 74.7067 67.0037 75.5352 67.0037H95.6273C96.4558 67.0037 97.1273 67.67 97.1273 68.4919C97.1273 69.3139 96.4558 69.9802 95.6273 69.9802Z" fill="white"/>
<path d="M95.6273 80.1277H75.5352C74.7067 80.1277 74.0352 79.4614 74.0352 78.6394C74.0352 77.8174 74.7067 77.1511 75.5352 77.1511H95.6273C96.4558 77.1511 97.1273 77.8174 97.1273 78.6394C97.1273 79.4614 96.4558 80.1277 95.6273 80.1277Z" fill="white"/>
<path d="M95.6273 90.2751H75.5352C74.7067 90.2751 74.0352 89.6088 74.0352 88.7869C74.0352 87.9649 74.7067 87.2986 75.5352 87.2986H95.6273C96.4558 87.2986 97.1273 87.9649 97.1273 88.7869C97.1273 89.6088 96.4558 90.2751 95.6273 90.2751Z" fill="white"/>
<path d="M94.8504 39.1946L94.8389 39.1777C94.2994 38.3918 93.4646 37.7365 92.3571 37.2297C91.6121 36.8941 90.2394 36.5006 88.2773 36.0601C85.947 35.5372 85.1176 35.1215 84.8318 34.8647C84.4436 34.5196 84.2549 34.0903 84.2549 33.5521C84.2549 32.9229 84.5338 32.3953 85.1075 31.9392C85.6984 31.4694 86.6849 31.2312 88.0393 31.2312C89.3346 31.2312 90.3156 31.4952 90.9552 32.016C91.4022 32.3802 91.7229 32.8799 91.9084 33.5012C92.1053 34.16 92.6948 34.6027 93.3756 34.6027C93.415 34.6027 93.455 34.6011 93.4942 34.5982L93.5076 34.5972C93.8562 34.5716 94.1913 34.4381 94.4486 34.2034C94.8911 33.7999 95.0538 33.208 94.8971 32.6604C94.7383 32.1044 94.4948 31.5764 94.1735 31.091C93.5825 30.1983 92.7298 29.5141 91.6389 29.0577C90.5715 28.6111 89.3272 28.3848 87.9406 28.3848C86.6777 28.3848 85.5111 28.6006 84.4732 29.026C83.4096 29.4622 82.5869 30.114 82.028 30.9633C81.4708 31.8102 81.1883 32.7348 81.1883 33.7115C81.1883 34.6052 81.422 35.4251 81.8828 36.1485C82.3409 36.868 83.0394 37.4751 83.9586 37.9527C84.651 38.3174 85.857 38.7059 87.5433 39.1075C89.18 39.4976 90.2496 39.7878 90.7227 39.9703C91.4101 40.2301 91.9029 40.5459 92.1873 40.9088C92.4626 41.2607 92.6022 41.6803 92.6022 42.1558C92.6022 42.6282 92.4538 43.0718 92.1611 43.4743C91.8647 43.8819 91.3961 44.2113 90.7684 44.4533C90.1154 44.7048 89.3469 44.8323 88.4841 44.8323C87.5117 44.8323 86.6273 44.6633 85.8556 44.3303C85.1029 44.0054 84.5447 43.5806 84.1964 43.0675C83.9775 42.745 83.8047 42.3581 83.6829 41.9176C83.4973 41.2458 82.8811 40.7766 82.1846 40.7766C82.1394 40.7766 82.0941 40.7786 82.0496 40.7825C81.6019 40.8214 81.1939 41.0509 80.9304 41.4123C80.6649 41.7764 80.5724 42.2369 80.6766 42.6758C80.8474 43.3963 81.1423 44.0762 81.5529 44.6966C82.2214 45.7067 83.1543 46.4729 84.3258 46.974C85.4761 47.4661 86.9126 47.7156 88.5953 47.7156C89.9366 47.7156 91.1636 47.4671 92.2423 46.9768C93.3373 46.479 94.1913 45.7689 94.7804 44.8661C95.3697 43.9626 95.6686 42.9848 95.6686 41.9599C95.6686 40.9243 95.3933 39.994 94.8504 39.1946Z" fill="white"/>
<path d="M88.1523 50.1121C87.3239 50.1121 86.6523 49.4458 86.6523 48.6239V47.4871C86.6523 46.6651 87.3239 45.9988 88.1523 45.9988C88.9808 45.9988 89.6523 46.6651 89.6523 47.4871V48.6239C89.6523 49.4458 88.9808 50.1121 88.1523 50.1121Z" fill="white"/>
<path d="M88.1523 30.0975C87.3239 30.0975 86.6523 29.4312 86.6523 28.6093V27.4766C86.6523 26.6546 87.3239 25.9883 88.1523 25.9883C88.9808 25.9883 89.6523 26.6546 89.6523 27.4766V28.6093C89.6523 29.4312 88.9808 30.0975 88.1523 30.0975Z" fill="white"/>
</svg>
