<svg width="128" height="127" viewBox="0 0 128 127" fill="none" xmlns="http://www.w3.org/2000/svg">
<path d="M64 89.3729C60.5078 89.3729 57.1193 88.6887 53.9285 87.3391C50.8474 86.0359 48.0806 84.1705 45.705 81.7949C43.3293 79.4193 41.464 76.6525 40.1608 73.5714C38.8113 70.3807 38.127 66.9921 38.127 63.5C38.127 60.0078 38.8113 56.6193 40.1608 53.4285C41.464 50.3474 43.3294 47.5806 45.705 45.205C48.0806 42.8293 50.8475 40.964 53.9285 39.6608C57.1193 38.3113 60.5078 37.627 64 37.627C67.4921 37.627 70.8807 38.3113 74.0714 39.6608C77.1525 40.964 79.9193 42.8294 82.2949 45.205C84.6706 47.5806 86.5359 50.3475 87.8391 53.4285C89.1886 56.6193 89.8729 60.0078 89.8729 63.5C89.8729 66.9921 89.1886 70.3807 87.8391 73.5714C86.5358 76.6525 84.6705 79.4193 82.2949 81.7949C79.9193 84.1705 77.1525 86.0359 74.0714 87.3391C70.8807 88.6886 67.4921 89.3729 64 89.3729ZM64 40.6035C51.3748 40.6035 41.1035 50.8748 41.1035 63.4999C41.1035 76.1251 51.3748 86.3964 64 86.3964C76.6251 86.3964 86.8964 76.1251 86.8964 63.4999C86.8964 50.8748 76.6251 40.6035 64 40.6035Z" fill="white"/>
<path d="M73.5984 68.7553C73.5984 67.4513 73.2561 66.2816 72.5812 65.2788L72.5712 65.2642C71.8929 64.268 70.8348 63.4334 69.4262 62.7834C68.4631 62.3465 66.6624 61.8277 64.0748 61.2419C61.5501 60.6707 59.8952 60.0808 59.2892 59.5359C58.6781 58.9878 58.381 58.3079 58.381 57.4575C58.381 56.4745 58.8048 55.6572 59.6764 54.9588C60.5419 54.2652 61.9466 53.9136 63.8515 53.9136C65.6796 53.9136 67.0782 54.3008 68.0084 55.0644C68.6712 55.6088 69.1451 56.3503 69.4172 57.268C69.6257 57.9715 70.2481 58.4441 70.966 58.4441C71.0052 58.4441 71.0484 58.4423 71.098 58.4387L71.1213 58.4367C71.6225 58.3987 72.0711 58.1449 72.3534 57.7402C72.6338 57.3394 72.7186 56.8419 72.5861 56.3751C72.3862 55.6691 72.0798 54.9991 71.6752 54.3835C70.9339 53.255 69.8606 52.3888 68.4852 51.8088C67.1149 51.2308 65.5116 50.9377 63.7197 50.9377C62.092 50.9377 60.5911 51.2168 59.2588 51.7672C57.9217 52.3195 56.89 53.1413 56.1924 54.2098C55.4951 55.2778 55.1417 56.4421 55.1417 57.6705C55.1417 58.7897 55.431 59.8146 56.0016 60.7167C56.5697 61.6164 57.4431 62.3805 58.5977 62.9879L58.6316 63.0052C59.5328 63.4771 61.0994 63.9823 63.2894 64.5075C65.4873 65.0358 66.9333 65.4321 67.5872 65.6855C68.5748 66.0624 69.2919 66.532 69.7181 67.0808C70.1446 67.6297 70.3609 68.2811 70.3609 69.017C70.3609 69.7433 70.1362 70.4231 69.6928 71.0374C69.2488 71.6528 68.56 72.1448 67.6454 72.4999C66.7237 72.8572 65.6471 73.0384 64.4456 73.0384C63.0898 73.0384 61.8534 72.7994 60.7708 72.3278C59.6923 71.8588 58.8865 71.2365 58.3761 70.4783C58.0579 70.0063 57.8083 69.4446 57.6342 68.8086C57.4371 68.0901 56.7842 67.5883 56.0463 67.5883C55.9961 67.5883 55.9501 67.5901 55.9133 67.5937C55.4321 67.636 54.9967 67.8812 54.7181 68.2665C54.4363 68.6562 54.3381 69.1485 54.4487 69.6172C54.6653 70.5372 55.039 71.4054 55.5593 72.1977C56.4045 73.4847 57.5852 74.4614 59.0687 75.1005C60.5492 75.7388 62.4078 76.0624 64.5927 76.0624C66.3194 76.0624 67.8954 75.7417 69.2768 75.1092C70.6613 74.4775 71.74 73.5757 72.4829 72.4291C73.223 71.2848 73.5984 70.0489 73.5984 68.7553Z" fill="white"/>
<path d="M32.7324 33.5402C31.9105 33.5402 31.2441 32.8739 31.2441 32.0519V30.331C31.2441 26.169 34.6302 22.783 38.7921 22.783H95.2686C96.0905 22.783 96.7569 23.4493 96.7569 24.2712C96.7569 25.0932 96.0905 25.7595 95.2686 25.7595H38.7921C36.2715 25.7595 34.2207 27.8103 34.2207 30.331V32.0519C34.2207 32.8739 33.5544 33.5402 32.7324 33.5402Z" fill="white"/>
<path d="M86.544 32.6676C86.1048 32.6676 85.6699 32.4741 85.3761 32.103C84.866 31.4586 84.9748 30.5225 85.6193 30.0124L92.8712 24.2712L85.6193 18.53C84.9748 18.0198 84.866 17.0838 85.3761 16.4393C85.8864 15.7948 86.8225 15.6861 87.4668 16.1962L96.1928 23.1043C96.5493 23.3865 96.7573 23.8163 96.7573 24.2711C96.7573 24.7259 96.5493 25.1557 96.1928 25.438L87.4668 32.3462C87.1935 32.5625 86.8676 32.6676 86.544 32.6676Z" fill="white"/>
<path d="M89.2089 104.217H32.7324C31.9105 104.217 31.2441 103.55 31.2441 102.728C31.2441 101.906 31.9105 101.24 32.7324 101.24H89.2088C91.7295 101.24 93.7803 99.1894 93.7803 96.6687V94.9478C93.7803 94.1258 94.4466 93.4595 95.2686 93.4595C96.0905 93.4595 96.7569 94.1258 96.7569 94.9478V96.6687C96.7569 100.831 93.3709 104.217 89.2089 104.217Z" fill="white"/>
<path d="M41.4574 111.125C41.1338 111.125 40.808 111.02 40.5346 110.803L31.8086 103.895C31.4521 103.613 31.2441 103.183 31.2441 102.728C31.2441 102.274 31.4521 101.844 31.8086 101.562L40.5346 94.6535C41.179 94.1433 42.115 94.2521 42.6253 94.8966C43.1355 95.5411 43.0266 96.4771 42.3822 96.9873L35.1302 102.728L42.3822 108.47C43.0266 108.98 43.1354 109.916 42.6253 110.56C42.3315 110.931 41.8965 111.125 41.4574 111.125Z" fill="white"/>
<path d="M64 79.0983C63.178 79.0983 62.5117 78.4319 62.5117 77.61V75.6187C62.5117 74.7967 63.178 74.1304 64 74.1304C64.822 74.1304 65.4883 74.7967 65.4883 75.6187V77.61C65.4883 78.4319 64.822 79.0983 64 79.0983Z" fill="white"/>
<path d="M64 52.8643C63.178 52.8643 62.5117 52.198 62.5117 51.376V49.3896C62.5117 48.5677 63.178 47.9014 64 47.9014C64.822 47.9014 65.4883 48.5677 65.4883 49.3896V51.376C65.4883 52.198 64.822 52.8643 64 52.8643Z" fill="white"/>
</svg>
