<svg width="283" height="83" viewBox="0 0 283 83" fill="none" xmlns="http://www.w3.org/2000/svg">
<path d="M281.428 72.8352C281.428 77.2051 277.825 80.7448 273.369 80.7448H9.64159C5.18759 80.7448 1.57227 77.2051 1.57227 72.8352V9.75905C1.57227 5.39123 5.18759 1.83916 9.64159 1.83916H273.367C277.825 1.83916 281.426 5.39123 281.426 9.75905L281.428 72.8352Z" fill="black"/>
<path d="M272.519 1.93456C277.371 1.93456 281.32 5.79625 281.32 10.542V72.042C281.32 76.7877 277.371 80.6494 272.519 80.6494H10.4815C5.62856 80.6494 1.67966 76.7877 1.67966 72.042V10.542C1.67966 5.79625 5.62856 1.93456 10.4815 1.93456H272.519ZM272.519 0.292H10.4815C4.71929 0.292 0 4.90706 0 10.542V72.042C0 77.6769 4.71929 82.292 10.4815 82.292H272.519C278.281 82.292 283 77.6769 283 72.042V10.542C283 4.90706 278.281 0.292 272.519 0.292Z" fill="#A6A6A6"/>
<path d="M63.158 40.8492C63.0972 34.242 68.6901 31.0276 68.9459 30.878C65.7784 26.3618 60.8688 25.7448 59.1436 25.6956C55.0202 25.2712 51.0204 28.1084 48.92 28.1084C46.7775 28.1084 43.543 25.7366 40.0568 25.8063C35.5707 25.8739 31.374 28.4139 29.0722 32.3581C24.322 40.4002 27.8648 52.2185 32.4158 58.719C34.6924 61.9027 37.3526 65.4574 40.8345 65.3323C44.241 65.195 45.5135 63.2085 49.6243 63.2085C53.6974 63.2085 54.8923 65.3323 58.4434 65.2524C62.0994 65.195 64.4011 62.0544 66.598 58.842C69.2289 55.193 70.2854 51.5994 70.3273 51.4149C70.2414 51.3862 63.2272 48.7683 63.158 40.8492Z" fill="white"/>
<path d="M56.4499 21.4193C58.282 19.1786 59.5356 16.1303 59.1876 13.0368C56.5358 13.1516 53.2195 14.8306 51.3097 17.022C49.6201 18.9531 48.1108 22.1183 48.5007 25.0949C51.4795 25.3122 54.538 23.6251 56.4499 21.4193Z" fill="white"/>
<path d="M102.824 20.8104C102.824 23.2233 102.084 25.0396 100.606 26.2593C99.2373 27.3848 97.292 27.9485 94.7722 27.9485C93.5228 27.9485 92.4537 27.8952 91.5586 27.7886V14.6051C92.7262 14.4206 93.984 14.3263 95.3424 14.3263C97.7427 14.3263 99.5518 14.8367 100.772 15.8576C102.139 17.0118 102.824 18.662 102.824 20.8104ZM100.508 20.8699C100.508 19.3057 100.084 18.1065 99.2373 17.2701C98.3904 16.4357 97.1536 16.0175 95.5248 16.0175C94.833 16.0175 94.244 16.0626 93.7555 16.1569V26.1794C94.0259 26.2204 94.5207 26.2388 95.2397 26.2388C96.9209 26.2388 98.2185 25.7817 99.1325 24.8674C100.047 23.9531 100.508 22.6206 100.508 20.8699Z" fill="white"/>
<path d="M115.106 22.9178C115.106 24.4041 114.672 25.6218 113.805 26.5771C112.895 27.559 111.689 28.049 110.184 28.049C108.734 28.049 107.579 27.5795 106.717 26.6365C105.857 25.6956 105.428 24.5086 105.428 23.0777C105.428 21.5812 105.87 20.3533 106.759 19.4C107.648 18.4468 108.843 17.9691 110.348 17.9691C111.798 17.9691 112.964 18.4386 113.846 19.3795C114.685 20.2938 115.106 21.4746 115.106 22.9178ZM112.828 22.9875C112.828 22.0958 112.631 21.3311 112.239 20.6936C111.777 19.9228 111.121 19.5374 110.268 19.5374C109.386 19.5374 108.715 19.9228 108.254 20.6936C107.859 21.3311 107.664 22.1081 107.664 23.0265C107.664 23.9182 107.862 24.6829 108.254 25.3204C108.729 26.0912 109.392 26.4766 110.247 26.4766C111.086 26.4766 111.744 26.0851 112.218 25.2999C112.624 24.6501 112.828 23.8793 112.828 22.9875Z" fill="white"/>
<path d="M131.576 18.1659L128.483 27.8296H126.471L125.19 23.6333C124.865 22.5857 124.601 21.5443 124.396 20.5111H124.356C124.165 21.573 123.901 22.6124 123.561 23.6333L122.201 27.8296H120.165L117.258 18.1659H119.516L120.633 22.76C120.903 23.8465 121.125 24.8817 121.304 25.8616H121.343C121.507 25.0539 121.777 24.0248 122.159 22.7805L123.561 18.168H125.352L126.695 22.6821C127.02 23.7829 127.284 24.8428 127.488 25.8637H127.549C127.697 24.8694 127.922 23.8096 128.219 22.6821L129.418 18.168H131.576V18.1659Z" fill="white"/>
<path d="M142.965 27.8297H140.768V22.2946C140.768 20.589 140.105 19.7362 138.776 19.7362C138.124 19.7362 137.598 19.9699 137.189 20.4394C136.785 20.9088 136.579 21.4623 136.579 22.0958V27.8276H134.382V20.9273C134.382 20.0786 134.355 19.1581 134.303 18.1618H136.233L136.336 19.6727H136.397C136.653 19.2032 137.034 18.8158 137.535 18.5062C138.131 18.1454 138.797 17.963 139.527 17.963C140.449 17.963 141.216 18.2541 141.826 18.8383C142.585 19.5538 142.965 20.6218 142.965 22.0404V27.8297V27.8297Z" fill="white"/>
<path d="M149.023 27.8296H146.828V13.7318H149.023V27.8296Z" fill="white"/>
<path d="M161.956 22.9178C161.956 24.4041 161.522 25.6218 160.654 26.5771C159.744 27.559 158.537 28.049 157.034 28.049C155.581 28.049 154.426 27.5795 153.567 26.6365C152.707 25.6956 152.277 24.5086 152.277 23.0777C152.277 21.5812 152.72 20.3533 153.608 19.4C154.497 18.4468 155.692 17.9691 157.195 17.9691C158.648 17.9691 159.811 18.4386 160.696 19.3795C161.535 20.2938 161.956 21.4746 161.956 22.9178ZM159.675 22.9875C159.675 22.0958 159.478 21.3311 159.086 20.6936C158.627 19.9228 157.969 19.5374 157.118 19.5374C156.233 19.5374 155.562 19.9228 155.103 20.6936C154.709 21.3311 154.514 22.1081 154.514 23.0265C154.514 23.9182 154.711 24.6829 155.103 25.3204C155.579 26.0912 156.241 26.4766 157.097 26.4766C157.935 26.4766 158.591 26.0851 159.065 25.2999C159.474 24.6501 159.675 23.8793 159.675 22.9875Z" fill="white"/>
<path d="M172.589 27.8296H170.617L170.453 26.7165H170.392C169.717 27.6041 168.755 28.049 167.506 28.049C166.573 28.049 165.818 27.7558 165.25 27.1736C164.734 26.6447 164.477 25.9867 164.477 25.2056C164.477 24.0248 164.98 23.1249 165.992 22.5017C167.003 21.8785 168.424 21.573 170.254 21.5874V21.407C170.254 20.1339 169.571 19.4984 168.202 19.4984C167.227 19.4984 166.367 19.7383 165.625 20.2139L165.179 18.8035C166.097 18.2479 167.231 17.9691 168.569 17.9691C171.151 17.9691 172.447 19.3016 172.447 21.9666V25.5254C172.447 26.491 172.495 27.2597 172.589 27.8296ZM170.308 24.5086V23.0183C167.885 22.9773 166.673 23.6271 166.673 24.9658C166.673 25.4701 166.812 25.8473 167.095 26.0994C167.378 26.3516 167.738 26.4766 168.168 26.4766C168.65 26.4766 169.101 26.327 169.512 26.0297C169.925 25.7304 170.178 25.3512 170.273 24.8858C170.296 24.7813 170.308 24.6542 170.308 24.5086Z" fill="white"/>
<path d="M185.072 27.8296H183.122L183.02 26.2778H182.959C182.336 27.4586 181.276 28.049 179.785 28.049C178.594 28.049 177.603 27.5918 176.817 26.6775C176.031 25.7632 175.639 24.5763 175.639 23.1187C175.639 21.5546 176.064 20.2877 176.92 19.3201C177.748 18.4181 178.762 17.9671 179.97 17.9671C181.297 17.9671 182.225 18.4037 182.753 19.2791H182.795V13.7318H184.994V25.2261C184.994 26.1671 185.02 27.0342 185.072 27.8296ZM182.795 23.7542V22.1429C182.795 21.8641 182.774 21.6386 182.735 21.4664C182.611 20.9498 182.345 20.5152 181.94 20.1647C181.531 19.8141 181.039 19.6378 180.471 19.6378C179.651 19.6378 179.01 19.9556 178.538 20.5931C178.07 21.2307 177.833 22.0445 177.833 23.0388C177.833 23.9941 178.058 24.769 178.508 25.3655C178.984 26.001 179.626 26.3188 180.429 26.3188C181.15 26.3188 181.726 26.0543 182.164 25.5234C182.588 25.0334 182.795 24.443 182.795 23.7542Z" fill="white"/>
<path d="M203.862 22.9178C203.862 24.4041 203.428 25.6218 202.56 26.5771C201.651 27.559 200.447 28.049 198.94 28.049C197.492 28.049 196.336 27.5795 195.473 26.6365C194.613 25.6956 194.184 24.5086 194.184 23.0777C194.184 21.5812 194.626 20.3533 195.515 19.4C196.404 18.4468 197.598 17.9691 199.106 17.9691C200.554 17.9691 201.722 18.4386 202.602 19.3795C203.441 20.2938 203.862 21.4746 203.862 22.9178ZM201.586 22.9875C201.586 22.0958 201.389 21.3311 200.997 20.6936C200.533 19.9228 199.879 19.5374 199.024 19.5374C198.144 19.5374 197.473 19.9228 197.009 20.6936C196.615 21.3311 196.42 22.1081 196.42 23.0265C196.42 23.9182 196.617 24.6829 197.009 25.3204C197.485 26.0912 198.148 26.4766 199.003 26.4766C199.841 26.4766 200.502 26.0851 200.976 25.2999C201.38 24.6501 201.586 23.8793 201.586 22.9875Z" fill="white"/>
<path d="M215.673 27.8297H213.479V22.2946C213.479 20.589 212.816 19.7362 211.485 19.7362C210.833 19.7362 210.307 19.9699 209.9 20.4394C209.494 20.9088 209.29 21.4623 209.29 22.0958V27.8276H207.091V20.9273C207.091 20.0786 207.066 19.1581 207.014 18.1618H208.942L209.045 19.6727H209.106C209.364 19.2032 209.745 18.8158 210.244 18.5062C210.842 18.1454 211.506 17.963 212.238 17.963C213.158 17.963 213.925 18.2541 214.535 18.8383C215.296 19.5538 215.673 20.6218 215.673 22.0404V27.8297V27.8297Z" fill="white"/>
<path d="M230.46 19.7752H228.041V24.4697C228.041 25.6628 228.47 26.2593 229.322 26.2593C229.716 26.2593 230.043 26.2265 230.301 26.1589L230.357 27.7886C229.923 27.9485 229.353 28.0285 228.651 28.0285C227.783 28.0285 227.108 27.7702 226.619 27.2536C226.129 26.737 225.886 25.8678 225.886 24.648V19.7752H224.441V18.1659H225.886V16.3947L228.039 15.7592V18.1639H230.458V19.7752H230.46Z" fill="white"/>
<path d="M242.09 27.8296H239.891V22.3356C239.891 20.6034 239.229 19.7362 237.902 19.7362C236.883 19.7362 236.187 20.2385 235.805 21.243C235.74 21.4541 235.703 21.7124 235.703 22.0158V27.8276H233.508V13.7318H235.703V19.5558H235.745C236.436 18.496 237.428 17.9671 238.713 17.9671C239.623 17.9671 240.375 18.2582 240.973 18.8424C241.717 19.5702 242.09 20.6526 242.09 22.0835V27.8296V27.8296Z" fill="white"/>
<path d="M254.086 22.5406C254.086 22.926 254.057 23.2499 254.005 23.5144H247.416C247.445 24.4697 247.76 25.1974 248.37 25.7017C248.927 26.1527 249.646 26.3782 250.527 26.3782C251.502 26.3782 252.39 26.2265 253.191 25.9211L253.535 27.4135C252.598 27.8112 251.495 28.01 250.219 28.01C248.688 28.01 247.483 27.5693 246.611 26.6878C245.735 25.8063 245.301 24.6234 245.301 23.1392C245.301 21.6817 245.705 20.4681 246.521 19.5005C247.372 18.4673 248.523 17.9507 249.976 17.9507C251.397 17.9507 252.476 18.4673 253.206 19.5005C253.795 20.3205 254.086 21.3352 254.086 22.5406ZM251.99 21.9851C252.007 21.3475 251.862 20.7981 251.565 20.3348C251.183 19.7383 250.602 19.439 249.816 19.439C249.099 19.439 248.514 19.7301 248.068 20.3143C247.703 20.7797 247.487 21.3352 247.416 21.9851H251.99Z" fill="white"/>
<path d="M112.456 64.8751H107.695L105.088 56.8617H96.0233L93.5392 64.8751H88.9043L97.8848 37.5937H103.432L112.456 64.8751ZM104.302 53.4997L101.943 46.3759C101.694 45.6482 101.226 43.9344 100.537 41.2366H100.453C100.178 42.3969 99.7359 44.1107 99.1279 46.3759L96.8115 53.4997H104.302V53.4997Z" fill="white"/>
<path d="M135.552 54.7974C135.552 58.143 134.627 60.7875 132.778 62.7288C131.122 64.457 129.066 65.32 126.611 65.32C123.961 65.32 122.058 64.3893 120.898 62.5279H120.815V72.8907H116.345V51.6793C116.345 49.576 116.289 47.4174 116.18 45.2034H120.11L120.36 48.3214H120.444C121.934 45.9721 124.196 44.7995 127.231 44.7995C129.604 44.7995 131.585 45.7159 133.17 47.5506C134.759 49.3874 135.552 51.8023 135.552 54.7974ZM130.998 54.9573C130.998 53.0426 130.558 51.4641 129.674 50.2218C128.707 48.9262 127.41 48.2784 125.783 48.2784C124.68 48.2784 123.678 48.6392 122.783 49.3505C121.886 50.068 121.299 51.0049 121.024 52.1652C120.886 52.7064 120.817 53.1492 120.817 53.4977V56.7777C120.817 58.2086 121.265 59.416 122.163 60.4021C123.06 61.3881 124.225 61.8801 125.659 61.8801C127.342 61.8801 128.653 61.2446 129.59 59.9777C130.529 58.7088 130.998 57.036 130.998 54.9573Z" fill="white"/>
<path d="M158.688 54.7974C158.688 58.143 157.764 60.7875 155.913 62.7288C154.259 64.457 152.202 65.32 149.747 65.32C147.098 65.32 145.194 64.3893 144.037 62.5279H143.953V72.8907H139.484V51.6793C139.484 49.576 139.427 47.4174 139.318 45.2034H143.249L143.498 48.3214H143.582C145.071 45.9721 147.333 44.7995 150.37 44.7995C152.741 44.7995 154.722 45.7159 156.311 47.5506C157.894 49.3874 158.688 51.8023 158.688 54.7974ZM154.135 54.9573C154.135 53.0426 153.693 51.4641 152.808 50.2218C151.842 48.9262 150.548 48.2784 148.919 48.2784C147.815 48.2784 146.815 48.6392 145.918 49.3505C145.02 50.068 144.435 51.0049 144.161 52.1652C144.025 52.7064 143.953 53.1492 143.953 53.4977V56.7777C143.953 58.2086 144.402 59.416 145.295 60.4021C146.192 61.3861 147.358 61.8801 148.796 61.8801C150.479 61.8801 151.789 61.2446 152.726 59.9777C153.665 58.7088 154.135 57.036 154.135 54.9573Z" fill="white"/>
<path d="M184.557 57.2246C184.557 59.5452 183.733 61.4332 182.079 62.8908C180.262 64.4836 177.731 65.279 174.48 65.279C171.478 65.279 169.072 64.7132 167.25 63.5796L168.286 59.9367C170.248 61.097 172.401 61.6792 174.746 61.6792C176.43 61.6792 177.74 61.3061 178.681 60.564C179.618 59.8219 180.086 58.8256 180.086 57.5833C180.086 56.4763 179.7 55.5436 178.926 54.7871C178.157 54.0307 176.872 53.3275 175.078 52.6777C170.193 50.8962 167.753 48.2866 167.753 44.8549C167.753 42.6122 168.608 40.7733 170.321 39.3424C172.027 37.9095 174.304 37.194 177.151 37.194C179.689 37.194 181.798 37.6266 183.482 38.4896L182.364 42.0525C180.792 41.2161 179.014 40.7979 177.025 40.7979C175.453 40.7979 174.224 41.1772 173.344 41.9316C172.6 42.606 172.227 43.4281 172.227 44.4018C172.227 45.4801 172.652 46.3719 173.507 47.073C174.252 47.7208 175.604 48.4219 177.566 49.1783C179.966 50.1234 181.729 51.2283 182.863 52.4952C183.993 53.758 184.557 55.3386 184.557 57.2246Z" fill="white"/>
<path d="M199.333 48.4834H194.406V58.0343C194.406 60.4636 195.274 61.6772 197.014 61.6772C197.813 61.6772 198.475 61.6095 198.999 61.4742L199.123 64.7932C198.243 65.115 197.083 65.277 195.647 65.277C193.882 65.277 192.503 64.7501 191.507 63.6985C190.516 62.6448 190.017 60.8777 190.017 58.3951V48.4793H187.082V45.1993H190.017V41.5974L194.406 40.3018V45.1993H199.333V48.4834Z" fill="white"/>
<path d="M221.561 54.8773C221.561 57.9011 220.676 60.3836 218.911 62.325C217.06 64.3237 214.603 65.32 211.54 65.32C208.589 65.32 206.239 64.3627 204.486 62.448C202.734 60.5333 201.857 58.1163 201.857 55.2033C201.857 52.1549 202.759 49.658 204.568 47.7167C206.373 45.7733 208.809 44.8016 211.871 44.8016C214.823 44.8016 217.198 45.7589 218.99 47.6757C220.705 49.535 221.561 51.9356 221.561 54.8773ZM216.923 55.0188C216.923 53.2045 216.527 51.6486 215.724 50.3509C214.787 48.7806 213.448 47.9975 211.712 47.9975C209.916 47.9975 208.551 48.7827 207.614 50.3509C206.811 51.6506 206.415 53.2312 206.415 55.1008C206.415 56.915 206.811 58.471 207.614 59.7666C208.58 61.3369 209.93 62.12 211.672 62.12C213.379 62.12 214.718 61.3205 215.685 59.7256C216.508 58.4033 216.923 56.831 216.923 55.0188Z" fill="white"/>
<path d="M236.087 49.0471C235.644 48.9672 235.173 48.9262 234.678 48.9262C233.106 48.9262 231.89 49.5063 231.035 50.6687C230.29 51.6937 229.917 52.9893 229.917 54.5534V64.8752H225.45L225.492 51.3985C225.492 49.1312 225.435 47.0668 225.324 45.2054H229.217L229.381 48.9692H229.504C229.976 47.6757 230.72 46.6343 231.739 45.8532C232.735 45.1501 233.81 44.7995 234.969 44.7995C235.382 44.7995 235.755 44.8282 236.087 44.8795V49.0471Z" fill="white"/>
<path d="M256.076 54.1086C256.076 54.8917 256.024 55.5518 255.913 56.0909H242.505C242.557 58.0343 243.205 59.5206 244.45 60.5456C245.58 61.4619 247.041 61.9211 248.836 61.9211C250.821 61.9211 252.632 61.6116 254.261 60.9904L254.961 64.0244C253.058 64.8362 250.811 65.2401 248.217 65.2401C245.098 65.2401 242.65 64.3422 240.868 62.5484C239.09 60.7547 238.199 58.3459 238.199 55.3242C238.199 52.3579 239.027 49.8876 240.685 47.9176C242.421 45.8143 244.767 44.7626 247.718 44.7626C250.618 44.7626 252.812 45.8143 254.303 47.9176C255.483 49.5883 256.076 51.6547 256.076 54.1086ZM251.815 52.9749C251.844 51.6793 251.553 50.56 250.947 49.615C250.173 48.3993 248.985 47.7925 247.385 47.7925C245.924 47.7925 244.735 48.385 243.828 49.574C243.084 50.519 242.641 51.6527 242.505 52.9729H251.815V52.9749Z" fill="white"/>
</svg>
