<svg width="118" height="121" viewBox="0 0 118 121" fill="none" xmlns="http://www.w3.org/2000/svg">
<g clip-path="url(#clip0_17477_18084)">
<path d="M114.135 96.1681C113.356 94.7477 112.124 93.6445 110.645 93.0428C109.167 92.4411 107.532 92.3775 106.014 92.8625L101.912 94.1511C98.658 80.7466 85.6008 71.0399 69.9459 70.4516V64.8489C69.9459 59.7644 74.0476 54.3438 79.1475 50.0857C81.0616 49.1053 83.4816 49.4694 86.7766 49.9737C89.7978 50.5146 92.8567 50.805 95.9235 50.8421C105.645 50.8421 111.989 32.4792 112.33 31.6948C112.434 31.3886 112.43 31.0551 112.321 30.7512C112.211 30.4472 112.002 30.1917 111.729 30.028C111.455 29.8619 111.133 29.799 110.818 29.8501C110.504 29.9012 110.216 30.0633 110.006 30.3082C110.006 30.3082 106.424 34.132 97.4958 32.4512C83.6183 29.8319 77.7392 45.9117 76.9462 48.3209C74.2274 50.6045 71.8665 53.3019 69.9459 56.3188V39.6367C74.8914 39.2739 79.5066 36.9593 82.8196 33.1803C86.1326 29.4012 87.885 24.4527 87.7078 19.3765C87.5306 14.3003 85.4377 9.49261 81.8696 5.96567C78.3016 2.43874 73.5369 0.467773 68.5787 0.467773C63.6205 0.467773 58.8558 2.43874 55.2878 5.96567C51.7197 9.49261 49.6267 14.3003 49.4496 19.3765C49.2724 24.4527 51.0248 29.4012 54.3378 33.1803C57.6508 36.9593 62.266 39.2739 67.2114 39.6367V60.6469C65.2959 57.6303 62.9396 54.9329 60.2249 52.649C59.4182 50.1138 53.5391 34.034 39.7436 36.6532C30.7882 38.3481 27.3564 34.6503 27.2197 34.5102C27.009 34.2667 26.7222 34.1059 26.4084 34.0554C26.0946 34.005 25.7735 34.068 25.5002 34.2337C25.2268 34.3994 25.0183 34.6574 24.9104 34.9635C24.8026 35.2695 24.8021 35.6045 24.909 35.9109C25.1688 36.6813 31.5128 55.0441 41.2339 55.0441C44.3007 55.0078 47.3596 54.7174 50.3807 54.1757C53.6758 53.6715 56.1095 53.3073 58.0236 54.2878C63.1097 58.5318 67.2114 63.9665 67.2114 69.0509V70.4516C62.2204 70.538 57.3018 71.69 52.7699 73.8341C48.238 75.9781 44.1926 79.0671 40.8921 82.9036C37.709 81.6865 34.2723 81.3357 30.9174 81.8856C27.5625 82.4355 24.4042 83.8673 21.7507 86.0412L20.3835 87.2177H4.31841C3.9558 87.2177 3.60803 87.3653 3.35163 87.628C3.09522 87.8907 2.95117 88.2469 2.95117 88.6184V119.475C2.95117 119.847 3.09522 120.203 3.35163 120.466C3.60803 120.728 3.9558 120.876 4.31841 120.876H70.7389C72.933 120.882 75.1085 120.464 77.1513 119.643L110.608 106.379C111.544 106.007 112.39 105.432 113.089 104.694C113.788 103.956 114.323 103.072 114.658 102.103C114.993 101.133 115.12 100.101 115.03 99.0768C114.939 98.0526 114.634 97.0604 114.135 96.1681V96.1681ZM96.9216 35.2105C100.673 36.0857 104.589 35.8723 108.229 34.5942C105.727 40.197 101.119 48.0408 95.9235 48.0408C92.9943 48.0059 90.0727 47.7295 87.1868 47.2144C85.9426 47.0183 84.7805 46.8362 83.6867 46.7381C87.7884 44.1048 91.8901 42.438 94.6246 42.438C94.9872 42.438 95.335 42.2905 95.5914 42.0278C95.8478 41.7651 95.9919 41.4088 95.9919 41.0374C95.9919 40.6659 95.8478 40.3096 95.5914 40.0469C95.335 39.7843 94.9872 39.6367 94.6246 39.6367C91.2749 39.6367 86.2161 41.7097 81.3487 45.0013C83.6867 40.253 88.6088 33.6418 96.9216 35.2105ZM49.9706 51.4164C47.0847 51.9315 44.163 52.2079 41.2339 52.2428C36.1204 52.2428 31.5128 44.427 29.0108 38.7963C32.6263 40.0535 36.5098 40.2667 40.2358 39.4126C48.5486 37.8438 53.4707 44.455 55.877 49.2173C51.0233 45.9117 45.9645 43.8387 42.6011 43.8387C42.2385 43.8387 41.8908 43.9863 41.6343 44.249C41.3779 44.5116 41.2339 44.8679 41.2339 45.2394C41.2339 45.6109 41.3779 45.9672 41.6343 46.2298C41.8908 46.4925 42.2385 46.6401 42.6011 46.6401C45.3356 46.6401 49.4373 48.3069 53.5391 50.9402C52.3769 51.0382 51.2147 51.2203 49.9706 51.4164ZM52.1718 20.0272C52.1718 16.7028 53.1341 13.4532 54.9369 10.6891C56.7397 7.925 59.3021 5.77065 62.3 4.49849C65.298 3.22632 68.5969 2.89346 71.7795 3.54201C74.9621 4.19055 77.8856 5.79137 80.1801 8.14203C82.4747 10.4927 84.0373 13.4876 84.6703 16.7481C85.3034 20.0085 84.9785 23.3881 83.7367 26.4594C82.4949 29.5307 80.392 32.1557 77.6939 34.0026C74.9958 35.8495 71.8237 36.8353 68.5787 36.8353C64.2273 36.8353 60.0542 35.0645 56.9773 31.9123C53.9004 28.7602 52.1718 24.485 52.1718 20.0272V20.0272ZM43.4762 84.1362C46.683 80.6224 50.5747 77.8378 54.899 75.963C59.2233 74.0882 63.8839 73.1649 68.5787 73.253C83.6183 73.253 96.361 82.3294 99.3689 95.0055L81.7179 100.608C82.0654 99.7164 82.2508 98.767 82.2648 97.8069C82.2611 95.7648 81.4677 93.8075 80.0583 92.3636C78.6488 90.9197 76.7382 90.1068 74.7449 90.1031H50.1346C48.335 87.6704 46.0691 85.6399 43.4762 84.1362V84.1362ZM5.68565 90.0611H19.3581V118.075H5.68565V90.0611ZM112.084 101.168C111.88 101.762 111.552 102.304 111.122 102.754C110.692 103.204 110.171 103.552 109.596 103.774L76.1669 117.038C74.4226 117.729 72.5679 118.081 70.6979 118.075H22.0925V89.3328L23.3914 88.2682C26.4132 85.8098 30.1561 84.4674 34.0149 84.4584C36.4359 84.4567 38.8287 84.9919 41.0288 86.0272C43.9719 87.4536 46.5056 89.6343 48.3846 92.3582C48.5131 92.5163 48.6741 92.6435 48.856 92.7306C49.038 92.8178 49.2365 92.8628 49.4373 92.8625H74.7313C76.0004 92.8625 77.2176 93.379 78.115 94.2983C79.0124 95.2177 79.5166 96.4647 79.5166 97.7648C79.5166 99.065 79.0124 100.312 78.115 101.231C77.2176 102.151 76.0004 102.667 74.7313 102.667H49.4373C49.0747 102.667 48.727 102.815 48.4705 103.077C48.2141 103.34 48.0701 103.696 48.0701 104.068C48.0701 104.439 48.2141 104.796 48.4705 105.058C48.727 105.321 49.0747 105.469 49.4373 105.469H74.7449C75.919 105.438 77.0757 105.172 78.1494 104.684L101.392 97.3026L106.861 95.5798C107.613 95.3428 108.415 95.3241 109.176 95.5258C109.938 95.7275 110.63 96.1418 111.176 96.7224C111.721 97.3031 112.099 98.0274 112.266 98.8148C112.434 99.6022 112.385 100.422 112.125 101.183L112.084 101.168Z" fill="white"/>
<path d="M12.5197 92.8613C11.7084 92.8613 10.9154 93.1078 10.2409 93.5695C9.56637 94.0312 9.04064 94.6875 8.7302 95.4553C8.41975 96.2231 8.33852 97.068 8.49678 97.8831C8.65505 98.6983 9.0457 99.447 9.61934 100.035C10.193 100.622 10.9238 101.023 11.7195 101.185C12.5151 101.347 13.3399 101.264 14.0894 100.946C14.8388 100.627 15.4794 100.089 15.9301 99.3979C16.3808 98.7069 16.6214 97.8945 16.6214 97.0634C16.6214 95.9489 16.1893 94.8801 15.42 94.0921C14.6508 93.304 13.6075 92.8613 12.5197 92.8613ZM12.5197 98.464C12.2493 98.464 11.9849 98.3819 11.7601 98.228C11.5353 98.0741 11.36 97.8553 11.2565 97.5994C11.153 97.3434 11.126 97.0618 11.1787 96.7901C11.2315 96.5184 11.3617 96.2688 11.5529 96.0729C11.7441 95.877 11.9877 95.7437 12.253 95.6896C12.5182 95.6356 12.7931 95.6633 13.0429 95.7693C13.2927 95.8753 13.5063 96.0548 13.6565 96.2852C13.8067 96.5155 13.8869 96.7863 13.8869 97.0634C13.8869 97.4349 13.7429 97.7911 13.4865 98.0538C13.2301 98.3165 12.8823 98.464 12.5197 98.464Z" fill="white"/>
<path d="M82.2511 20.0273C82.2511 17.257 81.4492 14.5489 79.9468 12.2455C78.4445 9.94214 76.3092 8.14686 73.8109 7.08672C71.3126 6.02658 68.5635 5.7492 65.9113 6.28965C63.2591 6.83011 60.8229 8.16412 58.9108 10.123C56.9987 12.0819 55.6965 14.5777 55.169 17.2947C54.6414 20.0118 54.9122 22.8281 55.947 25.3875C56.9818 27.9469 58.7343 30.1344 60.9827 31.6735C63.2311 33.2126 65.8745 34.0341 68.5787 34.0341C72.2048 34.0341 75.6824 32.5584 78.2465 29.9316C80.8106 27.3048 82.2511 23.7421 82.2511 20.0273V20.0273ZM57.6407 20.0273C57.6407 17.8111 58.2822 15.6446 59.4841 13.8019C60.686 11.9592 62.3943 10.5229 64.3929 9.67483C66.3915 8.82672 68.5908 8.60482 70.7125 9.03718C72.8343 9.46954 74.7832 10.5368 76.3129 12.1039C77.8426 13.671 78.8844 15.6676 79.3064 17.8412C79.7284 20.0149 79.5118 22.2679 78.684 24.3154C77.8561 26.363 76.4542 28.113 74.6554 29.3443C72.8567 30.5755 70.742 31.2327 68.5787 31.2327C65.6777 31.2327 62.8956 30.0522 60.8444 27.9507C58.7931 25.8493 57.6407 22.9992 57.6407 20.0273V20.0273Z" fill="white"/>
<path d="M74.3755 16.5404C73.8286 14.5514 71.9965 13.3608 69.5081 13.3608H65.0373C64.6747 13.3608 64.3269 13.5084 64.0705 13.7711C63.8141 14.0338 63.67 14.39 63.67 14.7615V16.5124H62.084C61.7214 16.5124 61.3737 16.6599 61.1173 16.9226C60.8608 17.1853 60.7168 17.5416 60.7168 17.913C60.7168 18.2845 60.8608 18.6408 61.1173 18.9035C61.3737 19.1662 61.7214 19.3137 62.084 19.3137H63.6427V26.3871C63.6427 26.7586 63.7867 27.1149 64.0431 27.3776C64.2996 27.6403 64.6473 27.7878 65.0099 27.7878H65.297C65.6597 27.7878 66.0074 27.6403 66.2638 27.3776C66.5202 27.1149 66.6643 26.7586 66.6643 26.3871V22.4652H69.3988C71.6957 22.4652 73.6782 21.4848 74.3072 19.3838H75.2095C75.5722 19.3838 75.9199 19.2362 76.1763 18.9735C76.4327 18.7108 76.5768 18.3546 76.5768 17.9831C76.5768 17.6116 76.4327 17.2553 76.1763 16.9926C75.9199 16.73 75.5722 16.5824 75.2095 16.5824L74.3755 16.5404ZM70.9301 19.3417C70.3925 19.7665 69.72 19.9712 69.0433 19.916H66.7053V15.826H69.1116C69.4544 15.7985 69.7991 15.844 70.1238 15.9597C70.4485 16.0754 70.7463 16.2588 70.9984 16.4984C71.1632 16.6883 71.2892 16.91 71.369 17.1506C71.4489 17.3911 71.4809 17.6456 71.4633 17.899C71.4825 18.1711 71.4449 18.4443 71.353 18.7003C71.261 18.9563 71.1169 19.1893 70.9301 19.3838V19.3417Z" fill="white"/>
</g>
<defs>
<clipPath id="clip0_17477_18084">
<rect width="118" height="120.458" fill="white" transform="translate(0 0.417969)"/>
</clipPath>
</defs>
</svg>
