<svg width="19" height="19" viewBox="0 0 19 19" fill="none" xmlns="http://www.w3.org/2000/svg">
<path d="M17.7702 12.8201L13.3414 10.8354C13.1408 10.7494 12.9218 10.7149 12.7044 10.7348C12.487 10.7548 12.2781 10.8287 12.0964 10.9498C12.078 10.9616 12.0604 10.9748 12.0439 10.9892L9.72923 12.9579C9.70521 12.971 9.67848 12.9783 9.65114 12.9793C9.62381 12.9803 9.59662 12.9749 9.57173 12.9635C8.08392 12.2454 6.54267 10.7135 5.82173 9.24636C5.80972 9.22184 5.80348 9.19491 5.80348 9.16761C5.80348 9.14031 5.80972 9.11338 5.82173 9.08886L7.79704 6.74511C7.81122 6.72777 7.82436 6.70961 7.83642 6.69073C7.95584 6.5084 8.02798 6.29918 8.04631 6.08199C8.06464 5.86479 8.02859 5.64645 7.94142 5.44667L5.97079 1.02542C5.85888 0.764431 5.66534 0.546775 5.41922 0.405121C5.1731 0.263467 4.88768 0.205457 4.60579 0.239797C3.38069 0.400857 2.25615 1.00249 1.44231 1.93227C0.628478 2.86204 0.181037 4.05634 0.183605 5.29198C0.183605 12.6326 6.15548 18.6045 13.4961 18.6045C14.7317 18.6069 15.9259 18.1593 16.8556 17.3455C17.7854 16.5317 18.387 15.4073 18.5483 14.1823C18.5826 13.9017 18.5253 13.6176 18.3851 13.3722C18.2449 13.1267 18.0293 12.9331 17.7702 12.8201ZM13.4961 17.4795C6.7761 17.4795 1.3086 12.012 1.3086 5.29198C1.30547 4.33004 1.65267 3.39987 2.28533 2.67524C2.918 1.95062 3.79284 1.48113 4.74642 1.35448H4.76798C4.80576 1.35519 4.84244 1.36729 4.87323 1.38921C4.90401 1.41112 4.92745 1.44183 4.94048 1.4773L6.9186 5.89386C6.92989 5.91841 6.93573 5.94512 6.93573 5.97214C6.93573 5.99916 6.92989 6.02587 6.9186 6.05042L4.93954 8.3998C4.92478 8.41657 4.9113 8.43443 4.89923 8.45323C4.77539 8.64229 4.70247 8.86012 4.68752 9.08562C4.67257 9.31113 4.71611 9.53668 4.81392 9.74042C5.64548 11.4429 7.3611 13.1454 9.08235 13.977C9.28729 14.0742 9.51393 14.1167 9.74018 14.1003C9.96643 14.0839 10.1846 14.0091 10.3733 13.8832C10.3911 13.871 10.4089 13.8579 10.4258 13.8439L12.7395 11.8751C12.7624 11.8628 12.7876 11.8556 12.8135 11.854C12.8394 11.8524 12.8653 11.8564 12.8895 11.8657L17.3192 13.8504C17.3554 13.8658 17.3858 13.8922 17.4062 13.9259C17.4265 13.9595 17.4358 13.9987 17.4327 14.0379C17.3067 14.9919 16.8376 15.8674 16.1132 16.5008C15.3887 17.1342 14.4584 17.4821 13.4961 17.4795Z" fill="white"/>
</svg>
