<svg width="118" height="121" viewBox="0 0 118 121" fill="none" xmlns="http://www.w3.org/2000/svg">
<path d="M24.4632 72.1543C20.7632 72.1543 17.1464 73.2687 14.07 75.3565C10.9936 77.4444 8.59579 80.4119 7.17988 83.8838C5.76396 87.3558 5.3935 91.1762 6.11532 94.862C6.83715 98.5478 8.61885 101.933 11.2351 104.591C13.8514 107.248 17.1847 109.058 20.8136 109.791C24.4424 110.524 28.2038 110.148 31.6222 108.71C35.0405 107.271 37.9622 104.836 40.0177 101.711C42.0733 98.5868 43.1705 94.9131 43.1705 91.1551C43.1705 88.6599 42.6866 86.1891 41.7465 83.8838C40.8064 81.5785 39.4284 79.4839 37.6913 77.7195C35.9541 75.9551 33.8918 74.5555 31.6222 73.6007C29.3525 72.6458 26.9199 72.1543 24.4632 72.1543V72.1543ZM24.4632 107.233C21.3325 107.233 18.272 106.29 15.6689 104.523C13.0658 102.757 11.0369 100.246 9.83885 97.3078C8.64077 94.37 8.3273 91.1373 8.93807 88.0185C9.54885 84.8998 11.0564 82.035 13.2702 79.7865C15.484 77.538 18.3045 76.0068 21.375 75.3864C24.4456 74.7661 27.6284 75.0845 30.5208 76.3013C33.4132 77.5182 35.8854 79.5789 37.6247 82.2229C39.3641 84.8668 40.2925 87.9753 40.2925 91.1551C40.2925 95.4192 38.6247 99.5086 35.6562 102.524C32.6876 105.539 28.6614 107.233 24.4632 107.233Z" fill="white"/>
<path d="M93.5374 72.1543C89.8374 72.1543 86.2206 73.2687 83.1442 75.3565C80.0678 77.4444 77.67 80.4119 76.2541 83.8838C74.8382 87.3558 74.4677 91.1762 75.1895 94.862C75.9114 98.5478 77.6931 101.933 80.3093 104.591C82.9256 107.248 86.2589 109.058 89.8878 109.791C93.5167 110.524 97.2781 110.148 100.696 108.71C104.115 107.271 107.036 104.836 109.092 101.711C111.148 98.5868 112.245 94.9131 112.245 91.1551C112.245 86.1158 110.274 81.2829 106.765 77.7195C103.257 74.1562 98.4989 72.1543 93.5374 72.1543V72.1543ZM93.5374 107.233C90.4067 107.233 87.3462 106.29 84.7431 104.523C82.14 102.757 80.1111 100.246 78.9131 97.3078C77.715 94.37 77.4015 91.1373 78.0123 88.0185C78.6231 84.8998 80.1307 82.035 82.3444 79.7865C84.5582 77.538 87.3787 76.0068 90.4493 75.3864C93.5198 74.7661 96.7026 75.0845 99.595 76.3013C102.487 77.5182 104.96 79.5789 106.699 82.2229C108.438 84.8668 109.367 87.9753 109.367 91.1551C109.367 95.4192 107.699 99.5086 104.73 102.524C101.762 105.539 97.7356 107.233 93.5374 107.233Z" fill="white"/>
<path d="M116.647 83.0741C116.561 82.6502 104.2 38.9336 104.084 38.539C103.421 36.2404 102.316 34.0977 100.834 32.2341C99.3525 30.3704 97.5228 28.8225 95.4503 27.6793L90.5576 10.7685C90.0094 8.88982 88.8136 7.27436 87.1889 6.21768C85.5643 5.161 83.6194 4.73375 81.71 5.0141C79.8006 5.29444 78.0545 6.26363 76.7909 7.74436C75.5274 9.2251 74.831 11.1184 74.8291 13.0779V30.2225C73.0161 31.9146 71.5685 33.9703 70.5778 36.2597C69.587 38.5491 69.0746 41.0223 69.073 43.5231V50.2318H48.9266V43.5231C48.925 41.0223 48.4126 38.5491 47.4218 36.2597C46.431 33.9703 44.9834 31.9146 43.1705 30.2225V13.0779C43.1686 11.1184 42.4722 9.2251 41.2087 7.74436C39.9451 6.26363 38.1989 5.29444 36.2896 5.0141C34.3802 4.73375 32.4353 5.161 30.8106 6.21768C29.186 7.27436 27.9902 8.88982 27.442 10.7685L22.4917 27.6501C20.4192 28.7933 18.5895 30.3412 17.1078 32.2049C15.626 34.0685 14.5215 36.2112 13.8576 38.5098C13.7425 38.9336 1.38124 82.6502 1.2949 83.0741C0.156872 86.484 -0.237932 90.1044 0.137824 93.6847C0.513581 97.2649 1.65092 100.719 3.4711 103.809C5.29128 106.899 7.75082 109.55 10.6794 111.578C13.608 113.607 16.9358 114.965 20.4322 115.558C23.9286 116.152 27.5103 115.966 30.9291 115.015C34.348 114.063 37.5223 112.368 40.2325 110.047C42.9426 107.726 45.1238 104.835 46.625 101.573C48.1262 98.3114 48.9115 94.7572 48.9266 91.1567V76.5407H69.073V91.1567C69.0636 94.7721 69.8312 98.3459 71.3221 101.629C72.813 104.912 74.9912 107.825 77.7048 110.164C80.4185 112.504 83.6021 114.214 87.0335 115.175C90.465 116.136 94.0615 116.325 97.5723 115.728C101.083 115.132 104.423 113.765 107.36 111.722C110.297 109.679 112.759 107.009 114.575 103.9C116.392 100.791 117.518 97.3166 117.876 93.7195C118.234 90.1225 117.814 86.4895 116.647 83.0741V83.0741ZM77.7071 28.0008V13.0779C77.7266 11.8328 78.1826 10.6355 78.9932 9.70131C79.8038 8.76708 80.9159 8.15711 82.1296 7.981C83.3433 7.8049 84.579 8.0742 85.6148 8.74053C86.6505 9.40685 87.4183 10.4265 87.7803 11.6163L92.0973 26.2323C90.4229 25.7053 88.6839 25.4199 86.9312 25.3846C83.68 25.3918 80.4917 26.2961 77.7071 28.0008V28.0008ZM69.073 53.155V67.7711H48.9266V53.155H69.073ZM25.9022 26.1592L30.2193 11.5432C30.5812 10.3534 31.349 9.33377 32.3848 8.66745C33.4205 8.00112 34.6563 7.73182 35.87 7.90792C37.0837 8.08403 38.1957 8.694 39.0064 9.62823C39.817 10.5625 40.273 11.7597 40.2925 13.0048V28.0008C37.5084 26.3074 34.3278 25.4038 31.0827 25.3846C29.3289 25.3983 27.5855 25.659 25.9022 26.1592ZM24.4632 113.081C18.7384 113.081 13.2481 110.771 9.20004 106.659C5.152 102.548 2.87783 96.9714 2.87783 91.1567C2.87236 88.2651 3.44006 85.402 4.5471 82.7379C6.04783 79.0727 8.50011 75.8902 11.6423 73.5298C14.7844 71.1694 18.4986 69.7198 22.3884 69.3356C26.2782 68.9514 30.1977 69.6471 33.7288 71.3483C37.2598 73.0496 40.2698 75.6927 42.4377 78.9955C44.6055 82.2983 45.8499 86.1369 46.0379 90.1018C46.226 94.0667 45.3507 98.009 43.5055 101.508C41.6602 105.007 38.9143 107.932 35.5606 109.97C32.2069 112.008 28.3714 113.083 24.4632 113.081V113.081ZM24.4632 66.3095C21.1965 66.3143 17.9636 66.9813 14.9539 68.2713C11.9443 69.5613 9.21835 71.4484 6.93588 73.8221L16.6781 39.3283C17.6801 35.8099 19.898 32.7768 22.9246 30.7857C25.9513 28.7946 29.5834 27.9792 33.1543 28.4892C36.7252 28.9992 39.9951 30.8004 42.3637 33.562C44.7324 36.3237 46.0407 39.8605 46.0486 43.5231V79.4639C43.9523 75.4986 40.8395 72.1826 37.0397 69.8669C33.2399 67.5513 28.8945 66.3221 24.4632 66.3095ZM48.9266 73.6175V70.6943H69.073V73.6175H48.9266ZM71.951 79.4639V43.5231C71.9589 39.8605 73.2672 36.3237 75.6358 33.562C78.0044 30.8004 81.2744 28.9992 84.8453 28.4892C88.4161 27.9792 92.0483 28.7946 95.0749 30.7857C98.1015 32.7768 100.319 35.8099 101.321 39.3283L111.064 73.8221C108.378 71.0209 105.08 68.9028 101.437 67.6402C97.7933 66.3776 93.9082 66.0061 90.0969 66.5558C86.2857 67.1056 82.656 68.5611 79.5029 70.804C76.3499 73.0469 73.7624 76.014 71.951 79.4639V79.4639ZM93.5364 113.081C89.2672 113.081 85.0939 111.795 81.5442 109.386C77.9945 106.977 75.2278 103.553 73.5941 99.5467C71.9603 95.5406 71.5329 91.1324 72.3658 86.8796C73.1986 82.6267 75.2544 78.7202 78.2732 75.6541C81.292 72.588 85.1381 70.4999 89.3253 69.6539C93.5124 68.808 97.8525 69.2422 101.797 70.9015C105.741 72.5609 109.112 75.371 111.484 78.9764C113.856 82.5818 115.122 86.8206 115.122 91.1567C115.122 96.9714 112.848 102.548 108.8 106.659C104.751 110.771 99.2612 113.081 93.5364 113.081Z" fill="white"/>
<path d="M33.0986 86.5231C32.3647 83.936 29.9615 82.3867 26.6806 82.3867H20.795C20.3103 82.3867 19.8454 82.5823 19.5027 82.9304C19.1599 83.2785 18.9674 83.7507 18.9674 84.243V86.5231H16.9096C16.4249 86.5231 15.96 86.7186 15.6173 87.0667C15.2746 87.4148 15.082 87.887 15.082 88.3793V88.3793C15.082 88.8716 15.2746 89.3437 15.6173 89.6919C15.96 90.04 16.4249 90.2355 16.9096 90.2355H18.9674V99.4729C18.9597 99.7215 19.0013 99.9692 19.0896 100.201C19.178 100.433 19.3114 100.645 19.4819 100.823C19.6524 101.002 19.8565 101.144 20.082 101.241C20.3076 101.338 20.55 101.388 20.795 101.388H21.1835C21.4302 101.392 21.6751 101.345 21.9033 101.249C22.1315 101.154 22.3381 101.013 22.5106 100.833C22.683 100.654 22.8176 100.441 22.9061 100.207C22.9947 99.9731 23.0353 99.7233 23.0254 99.4729V94.2549H26.623C29.645 94.2549 32.264 92.9687 33.0842 90.2355H34.2786C34.5186 90.2355 34.7563 90.1875 34.978 90.0942C35.1997 90.001 35.4012 89.8642 35.5709 89.6919C35.7406 89.5195 35.8752 89.3149 35.9671 89.0896C36.0589 88.8644 36.1062 88.6231 36.1062 88.3793V88.3793C36.1062 87.887 35.9136 87.4148 35.5709 87.0667C35.2282 86.7186 34.7633 86.5231 34.2786 86.5231H33.0986ZM28.5657 90.2355C27.8556 90.7902 26.9697 91.0606 26.0762 90.9956H23.0254V85.6461H26.2057C26.6553 85.6134 27.1068 85.6743 27.5324 85.8251C27.958 85.9759 28.3488 86.2134 28.6808 86.5231C29.1094 87.0236 29.3311 87.6729 29.2996 88.3354C29.3149 88.6867 29.2574 89.0373 29.131 89.3645C29.0046 89.6918 28.812 89.9886 28.5657 90.2355Z" fill="white"/>
<path d="M100.731 86.5231C99.9975 83.936 97.5944 82.3867 94.3134 82.3867H88.4278C87.9431 82.3867 87.4782 82.5823 87.1355 82.9304C86.7928 83.2785 86.6002 83.7507 86.6002 84.243V86.5231H84.5424C84.0577 86.5231 83.5929 86.7186 83.2501 87.0667C82.9074 87.4148 82.7148 87.887 82.7148 88.3793V88.3793C82.7148 88.8716 82.9074 89.3437 83.2501 89.6919C83.5929 90.04 84.0577 90.2355 84.5424 90.2355H86.6002V99.4729C86.5925 99.7215 86.6341 99.9692 86.7225 100.201C86.8108 100.433 86.9442 100.645 87.1147 100.823C87.2852 101.002 87.4893 101.144 87.7148 101.241C87.9404 101.338 88.1828 101.388 88.4278 101.388H88.8163C89.063 101.392 89.308 101.345 89.5361 101.249C89.7643 101.154 89.971 101.013 90.1434 100.833C90.3158 100.654 90.4504 100.441 90.539 100.207C90.6275 99.9731 90.6681 99.7233 90.6583 99.4729V94.2549H94.2558C97.2778 94.2549 99.8968 92.9687 100.717 90.2355H101.911C102.396 90.2355 102.861 90.04 103.204 89.6919C103.546 89.3437 103.739 88.8716 103.739 88.3793V88.3793C103.739 87.887 103.546 87.4148 103.204 87.0667C102.861 86.7186 102.396 86.5231 101.911 86.5231H100.731ZM96.1985 90.2355C95.4884 90.7902 94.6025 91.0606 93.709 90.9956H90.6583V85.6461H93.8385C94.2881 85.6134 94.7396 85.6743 95.1652 85.8251C95.5908 85.9759 95.9816 86.2134 96.3136 86.5231C96.7422 87.0236 96.9639 87.6729 96.9324 88.3354C96.9477 88.6867 96.8903 89.0373 96.7638 89.3645C96.6374 89.6918 96.4448 89.9886 96.1985 90.2355V90.2355Z" fill="white"/>
</svg>
