<svg width="283" height="83" viewBox="0 0 283 83" fill="none" xmlns="http://www.w3.org/2000/svg">
<path d="M272.518 82.292H10.4815C4.71929 82.292 0 77.6769 0 72.042V10.542C0 4.90706 4.71929 0.291994 10.4815 0.291994H272.518C278.281 0.291994 283 4.90706 283 10.542V72.042C283 77.6769 278.281 82.292 272.518 82.292Z" fill="black"/>
<path d="M272.518 1.93455C277.371 1.93455 281.32 5.79624 281.32 10.542V72.042C281.32 76.7877 277.371 80.6494 272.518 80.6494H10.4815C5.62855 80.6494 1.67966 76.7877 1.67966 72.042V10.542C1.67966 5.79624 5.62855 1.93455 10.4815 1.93455H272.518ZM272.518 0.291994H10.4815C4.71929 0.291994 0 4.90706 0 10.542V72.042C0 77.6769 4.71929 82.292 10.4815 82.292H272.518C278.281 82.292 283 77.6769 283 72.042V10.542C283 4.90706 278.281 0.291994 272.518 0.291994Z" fill="#A6A6A6"/>
<path d="M21.8745 15.7464C21.2587 16.3768 20.9023 17.3582 20.9023 18.6292V63.965C20.9023 65.236 21.2587 66.2174 21.8745 66.8478L22.0265 66.9862L48.0048 41.5918V40.9922L22.0265 15.5978L21.8745 15.7464Z" fill="url(#paint0_linear_17477_18203)"/>
<path d="M56.6537 50.0608L48.0039 41.5918V40.9921L56.6642 32.5231L56.8581 32.6333L67.1143 38.34C70.0412 39.9595 70.0412 42.6245 67.1143 44.2542L56.8581 49.9506L56.6537 50.0608V50.0608Z" fill="url(#paint1_linear_17477_18203)"/>
<path d="M56.8596 49.9507L48.0053 41.292L21.875 66.8478C22.8472 67.8472 24.4325 67.9676 26.2353 66.9682L56.8596 49.9507" fill="url(#paint2_linear_17477_18203)"/>
<path d="M56.8596 32.6333L26.2353 15.6158C24.4325 14.6266 22.8472 14.7471 21.875 15.7464L48.0053 41.292L56.8596 32.6333Z" fill="url(#paint3_linear_17477_18203)"/>
<path d="M99.4015 21.2917C99.4015 23.0034 98.8775 24.3744 97.845 25.3968C96.658 26.6089 95.112 27.2187 93.2175 27.2187C91.4068 27.2187 89.8608 26.5986 88.5925 25.3763C87.3216 24.136 86.6875 22.6139 86.6875 20.792C86.6875 18.97 87.3216 17.4479 88.5925 16.2179C89.8608 14.9854 91.4068 14.3652 93.2175 14.3652C94.1189 14.3652 94.9783 14.5472 95.7985 14.8854C96.6161 15.2262 97.2816 15.6875 97.7638 16.2564L96.6685 17.3377C95.8273 16.3665 94.6822 15.8874 93.2175 15.8874C91.8968 15.8874 90.7517 16.3384 89.7795 17.248C88.8179 18.1603 88.3357 19.3416 88.3357 20.792C88.3357 22.2424 88.8179 23.4339 89.7795 24.3462C90.7517 25.2456 91.8968 25.7069 93.2175 25.7069C94.6194 25.7069 95.7985 25.2456 96.7288 24.3359C97.3419 23.7337 97.6904 22.9035 97.7821 21.8426H93.2175V20.3615H99.3072C99.3806 20.6818 99.4015 20.9919 99.4015 21.2917V21.2917Z" fill="white" stroke="white" stroke-width="0.16" stroke-miterlimit="10"/>
<path d="M109.062 16.1564H103.342V20.0514H108.499V21.5325H103.342V25.4275H109.062V26.9369H101.723V14.6471H109.062V16.1564Z" fill="white" stroke="white" stroke-width="0.16" stroke-miterlimit="10"/>
<path d="M115.882 26.9369H114.263V16.1564H110.754V14.6471H119.393V16.1564H115.882V26.9369V26.9369Z" fill="white" stroke="white" stroke-width="0.16" stroke-miterlimit="10"/>
<path d="M125.645 26.9369V14.6471H127.261V26.9369H125.645Z" fill="white" stroke="white" stroke-width="0.16" stroke-miterlimit="10"/>
<path d="M134.429 26.9369H132.823V16.1564H129.301V14.6471H137.951V16.1564H134.429V26.9369Z" fill="white" stroke="white" stroke-width="0.16" stroke-miterlimit="10"/>
<path d="M154.307 25.3558C153.067 26.5986 151.532 27.2187 149.7 27.2187C147.858 27.2187 146.323 26.5986 145.083 25.3558C143.846 24.1155 143.23 22.5934 143.23 20.792C143.23 18.9905 143.846 17.4684 145.083 16.2282C146.323 14.9854 147.858 14.3652 149.7 14.3652C151.521 14.3652 153.057 14.9854 154.296 16.2384C155.544 17.4889 156.159 19.0008 156.159 20.792C156.159 22.5934 155.544 24.1155 154.307 25.3558ZM146.281 24.3257C147.213 25.2456 148.348 25.7069 149.7 25.7069C151.042 25.7069 152.187 25.2456 153.109 24.3257C154.04 23.4057 154.511 22.2244 154.511 20.792C154.511 19.3595 154.04 18.1782 153.109 17.2583C152.187 16.3384 151.042 15.8771 149.7 15.8771C148.348 15.8771 147.213 16.3384 146.281 17.2583C145.35 18.1782 144.879 19.3595 144.879 20.792C144.879 22.2244 145.35 23.4057 146.281 24.3257V24.3257Z" fill="white" stroke="white" stroke-width="0.16" stroke-miterlimit="10"/>
<path d="M158.43 26.9369V14.6471H160.395L166.506 24.2052H166.576L166.506 21.8426V14.6471H168.122V26.9369H166.435L160.036 16.9072H159.965L160.036 19.2801V26.9369H158.43V26.9369Z" fill="white" stroke="white" stroke-width="0.16" stroke-miterlimit="10"/>
<path d="M142.83 44.8847C137.907 44.8847 133.884 48.549 133.884 53.6048C133.884 58.6196 137.907 62.3225 142.83 62.3225C147.765 62.3225 151.787 58.6196 151.787 53.6048C151.787 48.549 147.765 44.8847 142.83 44.8847ZM142.83 58.8887C140.129 58.8887 137.805 56.708 137.805 53.6048C137.805 50.4606 140.129 48.3184 142.83 48.3184C145.532 48.3184 147.867 50.4606 147.867 53.6048C147.867 56.708 145.532 58.8887 142.83 58.8887V58.8887ZM123.311 44.8847C118.377 44.8847 114.365 48.549 114.365 53.6048C114.365 58.6196 118.377 62.3225 123.311 62.3225C128.243 62.3225 132.257 58.6196 132.257 53.6048C132.257 48.549 128.243 44.8847 123.311 44.8847ZM123.311 58.8887C120.607 58.8887 118.275 56.708 118.275 53.6048C118.275 50.4606 120.607 48.3184 123.311 48.3184C126.013 48.3184 128.337 50.4606 128.337 53.6048C128.337 56.708 126.013 58.8887 123.311 58.8887ZM100.084 47.5573V51.2627H109.132C108.868 53.3332 108.16 54.8553 107.075 55.9162C105.755 57.1975 103.698 58.6196 100.084 58.6196C94.516 58.6196 90.1557 54.225 90.1557 48.7797C90.1557 43.3343 94.516 38.9397 100.084 38.9397C103.095 38.9397 105.286 40.0902 106.902 41.5816L109.573 38.9704C107.311 36.8589 104.303 35.2368 100.084 35.2368C92.4485 35.2368 86.0312 41.3125 86.0312 48.7797C86.0312 56.2468 92.4485 62.3225 100.084 62.3225C104.211 62.3225 107.311 61.0002 109.748 58.5197C112.245 56.0776 113.024 52.6439 113.024 49.8713C113.024 49.0103 112.95 48.2185 112.819 47.5573H100.084ZM195.062 50.4299C194.326 48.4798 192.054 44.8847 187.426 44.8847C182.841 44.8847 179.023 48.4183 179.023 53.6048C179.023 58.489 182.801 62.3225 187.867 62.3225C191.962 62.3225 194.326 59.8804 195.298 58.4582L192.258 56.4774C191.244 57.9278 189.863 58.8887 187.867 58.8887C185.883 58.8887 184.46 57.9995 183.548 56.2468L195.474 51.4216L195.062 50.4299V50.4299ZM182.904 53.3332C182.801 49.9712 185.574 48.2492 187.56 48.2492C189.117 48.2492 190.437 49.0103 190.877 50.0993L182.904 53.3332V53.3332ZM173.211 61.792H177.131V36.167H173.211V61.792ZM166.791 46.827H166.66C165.78 45.8071 164.1 44.8847 161.972 44.8847C157.507 44.8847 153.425 48.7181 153.425 53.633C153.425 58.5197 157.507 62.3225 161.972 62.3225C164.1 62.3225 165.78 61.3923 166.66 60.3416H166.791V61.5921C166.791 64.926 164.97 66.7171 162.032 66.7171C159.637 66.7171 158.152 65.0259 157.539 63.6037L154.129 64.9951C155.112 67.3065 157.714 70.1509 162.032 70.1509C166.629 70.1509 170.507 67.5064 170.507 61.072V45.4151H166.791V46.827V46.827ZM162.308 58.8887C159.606 58.8887 157.345 56.6773 157.345 53.633C157.345 50.5606 159.606 48.3184 162.308 48.3184C164.97 48.3184 167.069 50.5606 167.069 53.633C167.069 56.6773 164.97 58.8887 162.308 58.8887V58.8887ZM213.415 36.167H204.04V61.792H207.949V52.0827H213.415C217.757 52.0827 222.015 49.0103 222.015 44.1236C222.015 39.2395 217.747 36.167 213.415 36.167V36.167ZM213.517 48.5183H207.949V39.7315H213.517C216.437 39.7315 218.103 42.1018 218.103 44.1236C218.103 46.107 216.437 48.5183 213.517 48.5183ZM237.685 44.836C234.86 44.836 231.923 46.0557 230.715 48.7591L234.184 50.1813C234.931 48.7591 236.304 48.2979 237.756 48.2979C239.784 48.2979 241.841 49.4895 241.872 51.5933V51.8623C241.165 51.4626 239.65 50.8707 237.787 50.8707C234.051 50.8707 230.243 52.8822 230.243 56.6363C230.243 60.07 233.304 62.2815 236.744 62.2815C239.375 62.2815 240.827 61.1206 241.739 59.7702H241.872V61.751H245.648V51.9213C245.648 47.378 242.179 44.836 237.685 44.836ZM237.213 58.8785C235.935 58.8785 234.153 58.2583 234.153 56.708C234.153 54.7246 236.375 53.9636 238.298 53.9636C240.02 53.9636 240.827 54.3351 241.872 54.8246C241.566 57.1975 239.477 58.8785 237.213 58.8785V58.8785ZM259.405 45.3971L254.911 56.5056H254.778L250.132 45.3971H245.916L252.896 60.9208L248.913 69.559H252.999L263.755 45.3971H259.405V45.3971ZM224.164 61.792H228.084V36.167H224.164V61.792Z" fill="white"/>
<defs>
<linearGradient id="paint0_linear_17477_18203" x1="45.6983" y1="64.4371" x2="11.3029" y2="29.265" gradientUnits="userSpaceOnUse">
<stop stop-color="#00A0FF"/>
<stop offset="0.0066" stop-color="#00A1FF"/>
<stop offset="0.2601" stop-color="#00BEFF"/>
<stop offset="0.5122" stop-color="#00D2FF"/>
<stop offset="0.7604" stop-color="#00DFFF"/>
<stop offset="1" stop-color="#00E3FF"/>
</linearGradient>
<linearGradient id="paint1_linear_17477_18203" x1="70.9256" y1="41.2891" x2="20.2018" y2="41.2891" gradientUnits="userSpaceOnUse">
<stop stop-color="#FFE000"/>
<stop offset="0.4087" stop-color="#FFBD00"/>
<stop offset="0.7754" stop-color="#FFA500"/>
<stop offset="1" stop-color="#FF9C00"/>
</linearGradient>
<linearGradient id="paint2_linear_17477_18203" x1="52.0449" y1="36.585" x2="5.40202" y2="-11.1112" gradientUnits="userSpaceOnUse">
<stop stop-color="#FF3A44"/>
<stop offset="1" stop-color="#C31162"/>
</linearGradient>
<linearGradient id="paint3_linear_17477_18203" x1="15.2975" y1="81.9308" x2="36.1256" y2="60.6325" gradientUnits="userSpaceOnUse">
<stop stop-color="#32A071"/>
<stop offset="0.0685" stop-color="#2DA771"/>
<stop offset="0.4762" stop-color="#15CF74"/>
<stop offset="0.8009" stop-color="#06E775"/>
<stop offset="1" stop-color="#00F076"/>
</linearGradient>
</defs>
</svg>
