<svg width="49" height="48" viewBox="0 0 49 48" fill="none" xmlns="http://www.w3.org/2000/svg">
<g filter="url(#filter0_d_19205_28709)">
<rect x="4.50586" y="3" width="40" height="40" rx="20" fill="#2A3339" shape-rendering="crispEdges"/>
<path d="M21.2829 23.3603C21.2829 21.9033 22.4638 20.7218 23.9209 20.7218C25.3779 20.7218 26.5594 21.9033 26.5594 23.3603C26.5594 24.8174 25.3779 25.9989 23.9209 25.9989C22.4638 25.9989 21.2829 24.8174 21.2829 23.3603ZM19.8566 23.3603C19.8566 25.605 21.6762 27.4246 23.9209 27.4246C26.1656 27.4246 27.9851 25.605 27.9851 23.3603C27.9851 21.1156 26.1656 19.2961 23.9209 19.2961C21.6762 19.2961 19.8567 21.1155 19.8567 23.3603M27.1963 19.1349C27.1962 19.3228 27.2518 19.5064 27.3561 19.6627C27.4604 19.8189 27.6087 19.9407 27.7823 20.0126C27.9558 20.0846 28.1467 20.1035 28.331 20.0669C28.5153 20.0303 28.6845 19.9399 28.8174 19.8072C28.9503 19.6744 29.0408 19.5052 29.0776 19.321C29.1143 19.1367 29.0955 18.9457 29.0237 18.7722C28.9519 18.5986 28.8302 18.4502 28.6741 18.3458C28.5179 18.2413 28.3343 18.1856 28.1465 18.1855H28.1461C27.8943 18.1856 27.6528 18.2857 27.4747 18.4637C27.2966 18.6417 27.1965 18.8831 27.1963 19.1349ZM20.7232 29.803C19.9515 29.7679 19.5321 29.6393 19.2534 29.5307C18.8838 29.3869 18.6202 29.2155 18.3429 28.9387C18.0657 28.6618 17.8941 28.3984 17.7509 28.0289C17.6422 27.7503 17.5137 27.3307 17.4786 26.559C17.4402 25.7247 17.4326 25.4741 17.4326 23.3604C17.4326 21.2468 17.4409 20.9968 17.4786 20.1618C17.5138 19.3901 17.6433 18.9714 17.7509 18.692C17.8948 18.3224 18.0661 18.0588 18.3429 17.7816C18.6198 17.5044 18.8832 17.3328 19.2534 17.1895C19.532 17.0809 19.9515 16.9523 20.7232 16.9172C21.5575 16.8789 21.8081 16.8712 23.9209 16.8712C26.0336 16.8712 26.2845 16.8794 27.1195 16.9174C27.8912 16.9525 28.3099 17.082 28.5893 17.1897C28.9589 17.3329 29.2225 17.5049 29.4997 17.7817C29.7769 18.0585 29.9479 18.3226 30.0918 18.6921C30.2004 18.9707 30.329 19.3903 30.364 20.162C30.4024 20.997 30.4101 21.2469 30.4101 23.3606C30.4101 25.4743 30.4024 25.7242 30.364 26.5592C30.3289 27.3309 30.1997 27.7503 30.0918 28.029C29.9479 28.3986 29.7766 28.6622 29.4997 28.9388C29.2229 29.2154 28.9589 29.387 28.5893 29.5308C28.3107 29.6395 27.8912 29.768 27.1195 29.8031C26.2852 29.8415 26.0345 29.8492 23.9209 29.8492C21.8072 29.8492 21.5573 29.8415 20.7232 29.8031M20.6577 15.4932C19.8151 15.5316 19.2393 15.6652 18.7365 15.8609C18.216 16.0629 17.7749 16.334 17.3344 16.7738C16.8939 17.2137 16.6235 17.6549 16.4214 18.1759C16.2258 18.6791 16.0922 19.2545 16.0538 20.0971C16.0148 20.941 16.0059 21.2109 16.0059 23.3603C16.0059 25.5098 16.0148 25.7796 16.0538 26.6235C16.0922 27.4662 16.2258 28.0416 16.4214 28.5447C16.6235 29.0651 16.8939 29.5072 17.3344 29.9468C17.7748 30.3864 18.2154 30.6571 18.7365 30.8597C19.2402 31.0554 19.8151 31.189 20.6577 31.2274C21.502 31.2657 21.7714 31.2753 23.9209 31.2753C26.0703 31.2753 26.3401 31.2664 27.1841 31.2274C28.0267 31.189 28.6021 31.0554 29.1052 30.8597C29.6257 30.6571 30.0668 30.3866 30.5073 29.9468C30.9479 29.507 31.2177 29.0651 31.4203 28.5447C31.6159 28.0416 31.7502 27.4661 31.7879 26.6235C31.8263 25.7789 31.8352 25.5098 31.8352 23.3603C31.8352 21.2109 31.8263 20.941 31.7879 20.0971C31.7496 19.2545 31.6159 18.6787 31.4203 18.1759C31.2177 17.6555 30.9472 17.2143 30.5073 16.7738C30.0675 16.3333 29.6257 16.0629 29.1059 15.8609C28.6021 15.6652 28.0267 15.531 27.1847 15.4932C26.3406 15.4547 26.071 15.4453 23.9218 15.4453C21.7727 15.4453 21.5024 15.4542 20.658 15.4932" fill="white"/>
</g>
<defs>
<filter id="filter0_d_19205_28709" x="0.505859" y="0" width="48" height="48" filterUnits="userSpaceOnUse" color-interpolation-filters="sRGB">
<feFlood flood-opacity="0" result="BackgroundImageFix"/>
<feColorMatrix in="SourceAlpha" type="matrix" values="0 0 0 0 0 0 0 0 0 0 0 0 0 0 0 0 0 0 127 0" result="hardAlpha"/>
<feOffset dy="1"/>
<feGaussianBlur stdDeviation="2"/>
<feComposite in2="hardAlpha" operator="out"/>
<feColorMatrix type="matrix" values="0 0 0 0 0 0 0 0 0 0 0 0 0 0 0 0 0 0 0.25 0"/>
<feBlend mode="normal" in2="BackgroundImageFix" result="effect1_dropShadow_19205_28709"/>
<feBlend mode="normal" in="SourceGraphic" in2="effect1_dropShadow_19205_28709" result="shape"/>
</filter>
</defs>
</svg>
