<svg width="20" height="20" viewBox="0 0 20 20" fill="none" xmlns="http://www.w3.org/2000/svg">
<path fill-rule="evenodd" clip-rule="evenodd" d="M7.99582 18.9805L8.71696 18.168C9.53524 17.2308 10.2712 16.3417 10.9261 15.496L11.4667 14.7828C13.7238 11.7417 14.853 9.32797 14.853 7.54397C14.853 3.73597 11.7832 0.649109 7.99582 0.649109C4.20839 0.649109 1.13867 3.73597 1.13867 7.54397C1.13867 9.32797 2.26781 11.7417 4.52496 14.7828L5.06553 15.496C5.99974 16.693 6.97715 17.8545 7.99582 18.9805Z" stroke="white" stroke-linecap="round" stroke-linejoin="round"/>
<path d="M7.99581 10.3634C9.57377 10.3634 10.853 9.08421 10.853 7.50625C10.853 5.9283 9.57377 4.64911 7.99581 4.64911C6.41786 4.64911 5.13867 5.9283 5.13867 7.50625C5.13867 9.08421 6.41786 10.3634 7.99581 10.3634Z" stroke="white" stroke-linecap="round" stroke-linejoin="round"/>
</svg>
