<svg width="19" height="16" viewBox="0 0 19 16" fill="none" xmlns="http://www.w3.org/2000/svg">
<path d="M2.99609 0.791992H15.9961C16.7917 0.791992 17.5548 1.10806 18.1174 1.67067C18.68 2.23328 18.9961 2.99634 18.9961 3.79199V12.792C18.9961 13.5876 18.68 14.3507 18.1174 14.9133C17.5548 15.4759 16.7917 15.792 15.9961 15.792H2.99609C2.20044 15.792 1.43738 15.4759 0.874774 14.9133C0.312164 14.3507 -0.00390625 13.5876 -0.00390625 12.792V3.79199C-0.00390625 2.99634 0.312164 2.23328 0.874774 1.67067C1.43738 1.10806 2.20044 0.791992 2.99609 0.791992ZM2.99609 1.79199C2.49609 1.79199 2.05609 1.96199 1.71609 2.26199L9.49609 7.29199L17.2761 2.26199C16.9361 1.96199 16.4961 1.79199 15.9961 1.79199H2.99609ZM9.49609 8.50199L1.12609 3.07199C1.04609 3.29199 0.996094 3.54199 0.996094 3.79199V12.792C0.996094 13.3224 1.20681 13.8311 1.58188 14.2062C1.95695 14.5813 2.46566 14.792 2.99609 14.792H15.9961C16.5265 14.792 17.0352 14.5813 17.4103 14.2062C17.7854 13.8311 17.9961 13.3224 17.9961 12.792V3.79199C17.9961 3.54199 17.9461 3.29199 17.8661 3.07199L9.49609 8.50199Z" fill="white"/>
</svg>
