<svg width="118" height="119" viewBox="0 0 118 119" fill="none" xmlns="http://www.w3.org/2000/svg">
<g clip-path="url(#clip0_17477_18078)">
<path d="M109.191 104.044H87.6806V1.97C87.6971 1.7755 87.6738 1.57968 87.6121 1.3945C87.5505 1.20932 87.4518 1.03867 87.3221 0.892966C87.0689 0.609691 86.7138 0.43852 86.3348 0.416984C85.9558 0.395448 85.5837 0.525305 85.3001 0.778082L76.5525 8.5471L67.8193 0.778082C67.5567 0.543916 67.2173 0.414538 66.8657 0.414538C66.5141 0.414538 66.1747 0.543916 65.9121 0.778082L57.1932 8.5471L48.4743 0.778082C48.2117 0.543916 47.8723 0.414538 47.5207 0.414538C47.169 0.414538 46.8296 0.543916 46.567 0.778082L37.8338 8.5471L29.1149 0.778082C28.8523 0.543916 28.5129 0.414538 28.1613 0.414538C27.8096 0.414538 27.4703 0.543916 27.2076 0.778082L18.4888 8.5471L9.75553 0.778082C9.55022 0.594075 9.29632 0.473193 9.0242 0.429899C8.75208 0.386604 8.47327 0.42273 8.22112 0.533954C7.96729 0.648208 7.75214 0.833956 7.6019 1.06855C7.45167 1.30314 7.37285 1.57644 7.37504 1.85512V105.48C7.37504 108.908 8.73481 112.195 11.1552 114.619C13.5756 117.043 16.8583 118.405 20.2813 118.405H97.7188C99.4137 118.405 101.092 118.07 102.658 117.421C104.224 116.771 105.646 115.819 106.845 114.619C108.043 113.419 108.994 111.994 109.643 110.426C110.291 108.858 110.625 107.178 110.625 105.48C110.625 105.099 110.474 104.734 110.205 104.465C109.936 104.196 109.571 104.044 109.191 104.044ZM10.2431 105.48V5.04314L17.528 11.5341C17.7906 11.7682 18.13 11.8976 18.4816 11.8976C18.8332 11.8976 19.1726 11.7682 19.4352 11.5341L28.1541 3.76506L36.8873 11.5341C37.15 11.7682 37.4893 11.8976 37.841 11.8976C38.1926 11.8976 38.532 11.7682 38.7946 11.5341L47.5278 3.76506L56.2467 11.5341C56.5093 11.7682 56.8487 11.8976 57.2003 11.8976C57.552 11.8976 57.8914 11.7682 58.154 11.5341L66.8872 3.76506L75.6204 11.5341C75.883 11.7682 76.2224 11.8976 76.5741 11.8976C76.9257 11.8976 77.2651 11.7682 77.5277 11.5341L84.8125 5.04314V104.044H31.7535C31.3732 104.044 31.0084 104.196 30.7395 104.465C30.4706 104.734 30.3195 105.099 30.3195 105.48C30.3195 108.146 29.2619 110.703 27.3794 112.588C25.4968 114.474 22.9436 115.533 20.2813 115.533C17.619 115.533 15.0657 114.474 13.1832 112.588C11.3007 110.703 10.2431 108.146 10.2431 105.48V105.48ZM97.7188 115.533H28.3836C31.0193 113.388 32.7126 110.295 33.1015 106.916H107.671C107.326 109.312 106.129 111.502 104.301 113.085C102.473 114.668 100.136 115.537 97.7188 115.533V115.533Z" fill="white"/>
<path d="M20.2817 62.397H74.7747C75.1551 62.397 75.5198 62.2457 75.7888 61.9764C76.0577 61.7071 76.2088 61.3418 76.2088 60.9609C76.2088 60.5801 76.0577 60.2148 75.7888 59.9455C75.5198 59.6762 75.1551 59.5249 74.7747 59.5249H20.2817C19.9014 59.5249 19.5366 59.6762 19.2677 59.9455C18.9987 60.2148 18.8477 60.5801 18.8477 60.9609C18.8477 61.3418 18.9987 61.7071 19.2677 61.9764C19.5366 62.2457 19.9014 62.397 20.2817 62.397Z" fill="white"/>
<path d="M20.2817 71.0142H66.1706C66.5509 71.0142 66.9157 70.8629 67.1846 70.5936C67.4535 70.3243 67.6046 69.959 67.6046 69.5781C67.6046 69.1973 67.4535 68.832 67.1846 68.5627C66.9157 68.2934 66.5509 68.1421 66.1706 68.1421H20.2817C19.9014 68.1421 19.5366 68.2934 19.2677 68.5627C18.9987 68.832 18.8477 69.1973 18.8477 69.5781C18.8477 69.959 18.9987 70.3243 19.2677 70.5936C19.5366 70.8629 19.9014 71.0142 20.2817 71.0142Z" fill="white"/>
<path d="M20.2817 79.6304H66.1706C66.5509 79.6304 66.9157 79.4791 67.1846 79.2098C67.4535 78.9405 67.6046 78.5752 67.6046 78.1943C67.6046 77.8135 67.4535 77.4482 67.1846 77.1789C66.9157 76.9096 66.5509 76.7583 66.1706 76.7583H20.2817C19.9014 76.7583 19.5366 76.9096 19.2677 77.1789C18.9987 77.4482 18.8477 77.8135 18.8477 78.1943C18.8477 78.5752 18.9987 78.9405 19.2677 79.2098C19.5366 79.4791 19.9014 79.6304 20.2817 79.6304Z" fill="white"/>
<path d="M66.1706 88.2466C66.5509 88.2466 66.9157 88.0953 67.1846 87.826C67.4535 87.5567 67.6046 87.1914 67.6046 86.8106C67.6046 86.4297 67.4535 86.0644 67.1846 85.7951C66.9157 85.5258 66.5509 85.3745 66.1706 85.3745H20.2817C19.9014 85.3745 19.5366 85.5258 19.2677 85.7951C18.9987 86.0644 18.8477 86.4297 18.8477 86.8106C18.8477 87.1914 18.9987 87.5567 19.2677 87.826C19.5366 88.0953 19.9014 88.2466 20.2817 88.2466H66.1706Z" fill="white"/>
<path d="M74.7747 68.1421H71.9067C71.5264 68.1421 71.1616 68.2934 70.8927 68.5627C70.6237 68.832 70.4727 69.1973 70.4727 69.5781C70.4727 69.959 70.6237 70.3243 70.8927 70.5936C71.1616 70.8629 71.5264 71.0142 71.9067 71.0142H74.7747C75.1551 71.0142 75.5198 70.8629 75.7888 70.5936C76.0577 70.3243 76.2088 69.959 76.2088 69.5781C76.2088 69.1973 76.0577 68.832 75.7888 68.5627C75.5198 68.2934 75.1551 68.1421 74.7747 68.1421Z" fill="white"/>
<path d="M74.7747 76.7583H71.9067C71.5264 76.7583 71.1616 76.9096 70.8927 77.1789C70.6237 77.4482 70.4727 77.8135 70.4727 78.1943C70.4727 78.5752 70.6237 78.9405 70.8927 79.2098C71.1616 79.4791 71.5264 79.6304 71.9067 79.6304H74.7747C75.1551 79.6304 75.5198 79.4791 75.7888 79.2098C76.0577 78.9405 76.2088 78.5752 76.2088 78.1943C76.2088 77.8135 76.0577 77.4482 75.7888 77.1789C75.5198 76.9096 75.1551 76.7583 74.7747 76.7583Z" fill="white"/>
<path d="M74.7747 85.3745H71.9067C71.5264 85.3745 71.1616 85.5258 70.8927 85.7951C70.6237 86.0644 70.4727 86.4297 70.4727 86.8106C70.4727 87.1914 70.6237 87.5567 70.8927 87.826C71.1616 88.0953 71.5264 88.2466 71.9067 88.2466H74.7747C75.1551 88.2466 75.5198 88.0953 75.7888 87.826C76.0577 87.5567 76.2088 87.1914 76.2088 86.8106C76.2088 86.4297 76.0577 86.0644 75.7888 85.7951C75.5198 85.5258 75.1551 85.3745 74.7747 85.3745Z" fill="white"/>
<path d="M64.7348 42.1787H76.207C76.5874 42.1787 76.9521 42.0274 77.221 41.7581C77.49 41.4888 77.6411 41.1236 77.6411 40.7427C77.6411 40.3618 77.49 39.9966 77.221 39.7272C76.9521 39.4579 76.5874 39.3066 76.207 39.3066H64.7348C64.3545 39.3066 63.9897 39.4579 63.7208 39.7272C63.4519 39.9966 63.3008 40.3618 63.3008 40.7427C63.3008 41.1236 63.4519 41.4888 63.7208 41.7581C63.9897 42.0274 64.3545 42.1787 64.7348 42.1787Z" fill="white"/>
<path d="M17.4145 42.1787H28.8867C29.267 42.1787 29.6318 42.0274 29.9007 41.7581C30.1697 41.4888 30.3207 41.1236 30.3207 40.7427C30.3207 40.3618 30.1697 39.9966 29.9007 39.7272C29.6318 39.4579 29.267 39.3066 28.8867 39.3066H17.4145C17.0342 39.3066 16.6694 39.4579 16.4005 39.7272C16.1316 39.9966 15.9805 40.3618 15.9805 40.7427C15.9805 41.1236 16.1316 41.4888 16.4005 41.7581C16.6694 42.0274 17.0342 42.1787 17.4145 42.1787V42.1787Z" fill="white"/>
<path d="M54.6979 36.4327C53.8661 33.7042 51.3566 32.1245 47.9579 32.1245H41.7916C41.2896 32.1245 40.8081 32.3242 40.4531 32.6797C40.0981 33.0352 39.8987 33.5174 39.8987 34.0201V36.4327H37.805C37.303 36.4327 36.8215 36.6324 36.4665 36.9879C36.1115 37.3433 35.9121 37.8255 35.9121 38.3282V38.3282C35.9121 38.831 36.1115 39.3131 36.4665 39.6686C36.8215 40.0241 37.303 40.2238 37.805 40.2238H39.9417V49.7017C39.9599 50.1846 40.1615 50.6422 40.5053 50.9812C40.8491 51.3202 41.3092 51.5149 41.7916 51.5255H42.1932C42.6965 51.5255 43.1795 51.3263 43.5367 50.9712C43.894 50.6161 44.0966 50.134 44.1004 49.6299V44.2735H47.8145C50.9551 44.2735 53.6797 42.9667 54.5401 40.152H55.7734C56.2754 40.152 56.7569 39.9523 57.1119 39.5968C57.4669 39.2413 57.6663 38.7592 57.6663 38.2564C57.6482 37.7736 57.4466 37.3159 57.1027 36.977C56.7589 36.638 56.2988 36.4433 55.8164 36.4327H54.6979ZM49.9799 40.2238C49.2509 40.8058 48.328 41.0882 47.3987 41.0136H44.1434V35.4705H47.4274C47.8934 35.4342 48.3618 35.4945 48.8035 35.6477C49.2452 35.8009 49.6505 36.0437 49.9943 36.3609C50.4455 36.8686 50.6775 37.5347 50.6396 38.2134C50.6642 38.5702 50.6116 38.9281 50.4854 39.2627C50.3592 39.5973 50.1623 39.9006 49.9082 40.152L49.9799 40.2238Z" fill="white"/>
</g>
<defs>
<clipPath id="clip0_17477_18078">
<rect width="118" height="118" fill="white" transform="translate(0 0.417969)"/>
</clipPath>
</defs>
</svg>
