<svg width="118" height="118" viewBox="0 0 118 118" fill="none" xmlns="http://www.w3.org/2000/svg">
<path d="M75.303 91.9312C76.8037 91.9312 78.0201 90.7026 78.0201 89.1871C78.0201 87.6715 76.8037 86.4429 75.303 86.4429C73.8024 86.4429 72.5859 87.6715 72.5859 89.1871C72.5859 90.7026 73.8024 91.9312 75.303 91.9312Z" fill="white"/>
<path d="M103.832 69.9767H99.7566V61.7442C99.7525 58.6083 98.5674 55.5915 96.4417 53.3058L110.231 39.3928C110.358 39.2652 110.459 39.1135 110.528 38.9463C110.597 38.7791 110.633 38.5997 110.633 38.4186C110.633 38.2375 110.597 38.0581 110.528 37.8909C110.459 37.7237 110.358 37.572 110.231 37.4444L77.6258 4.51419C77.4995 4.38558 77.3492 4.28351 77.1837 4.21385C77.0181 4.14419 76.8405 4.10832 76.6612 4.10832C76.4818 4.10832 76.3043 4.14419 76.1387 4.21385C75.9732 4.28351 75.8229 4.38558 75.6966 4.51419L65.7928 14.5305V1.37209C65.7928 1.00819 65.6496 0.659194 65.3949 0.401877C65.1401 0.144559 64.7945 0 64.4342 0H20.9605C20.6002 0 20.2547 0.144559 19.9999 0.401877C19.7451 0.659194 19.602 1.00819 19.602 1.37209V49.3954H14.1678C12.3662 49.3954 10.6384 50.1181 9.36455 51.4047C8.09066 52.6913 7.375 54.4363 7.375 56.2558V111.14C7.375 112.959 8.09066 114.704 9.36455 115.991C10.6384 117.277 12.3662 118 14.1678 118H82.0954C83.897 118 85.6247 117.277 86.8986 115.991C88.1725 114.704 88.8882 112.959 88.8882 111.14V107.023H95.6809C96.7619 107.023 97.7985 106.59 98.5629 105.818C99.3272 105.046 99.7566 103.999 99.7566 102.907V97.4186H103.832C104.724 97.4186 105.608 97.2412 106.432 96.8964C107.256 96.5516 108.005 96.0463 108.635 95.4092C109.266 94.7722 109.767 94.0159 110.108 93.1835C110.449 92.3512 110.625 91.4591 110.625 90.5581V76.8372C110.625 75.9363 110.449 75.0442 110.108 74.2118C109.767 73.3795 109.266 72.6232 108.635 71.9861C108.005 71.3491 107.256 70.8437 106.432 70.499C105.608 70.1542 104.724 69.9767 103.832 69.9767ZM103.832 72.7209C104.913 72.7209 105.95 73.1546 106.714 73.9266C107.479 74.6985 107.908 75.7455 107.908 76.8372C107.908 77.9289 107.479 78.9759 106.714 79.7479C105.95 80.5198 104.913 80.9535 103.832 80.9535H99.7566V72.7209H103.832ZM97.0395 71.3488V80.9535H88.8882V67.2326C88.8654 65.5557 88.254 63.9414 87.1628 62.6772L94.5262 55.2542C96.1389 57.0235 97.0357 59.3394 97.0395 61.7442V71.3488ZM76.6612 7.42302L107.351 38.4186L93.5344 52.3591L84.9619 61.017C83.9588 60.5488 82.86 60.3278 81.7558 60.3721L97.7323 44.25C97.9854 43.9929 98.1274 43.6452 98.1274 43.2827C98.1274 42.9202 97.9854 42.5724 97.7323 42.3154C97.223 41.8051 96.8187 41.1981 96.5428 40.5293C96.267 39.8605 96.1249 39.1431 96.1249 38.4186C96.1249 37.6941 96.267 36.9767 96.5428 36.3079C96.8187 35.6391 97.223 35.0321 97.7323 34.5219C97.9854 34.2648 98.1274 33.917 98.1274 33.5545C98.1274 33.192 97.9854 32.8443 97.7323 32.5872L82.435 17.1374C82.1805 16.8819 81.8362 16.7384 81.4773 16.7384C81.1183 16.7384 80.774 16.8819 80.5195 17.1374C79.4773 18.1343 78.0966 18.6899 76.6612 18.6899C75.2258 18.6899 73.845 18.1343 72.8029 17.1374C72.5484 16.8819 72.204 16.7384 71.8451 16.7384C71.4862 16.7384 71.1419 16.8819 70.8873 17.1374L28.0929 60.3721H24.2346L76.6612 7.42302ZM94.9337 43.1935L77.9246 60.3721H31.924L71.9334 19.964C73.3305 20.9406 74.9893 21.4638 76.6884 21.4638C78.3875 21.4638 80.0462 20.9406 81.4433 19.964L95.0288 33.6849C94.0336 35.0844 93.4983 36.7641 93.4983 38.4872C93.4983 40.2103 94.0336 41.89 95.0288 43.2895L94.9337 43.1935ZM63.0757 17.2747L57.6414 22.763V2.74419H63.0757V17.2747ZM54.9243 2.74419V25.5072L49.4901 30.9956V2.74419H54.9243ZM22.3191 2.74419H46.773V33.7398L22.3191 58.4374V2.74419ZM14.1678 52.1395H19.602V60.3721H14.1678C13.0868 60.3721 12.0502 59.9384 11.2858 59.1665C10.5215 58.3945 10.0921 57.3475 10.0921 56.2558C10.0921 55.1641 10.5215 54.1171 11.2858 53.3452C12.0502 52.5732 13.0868 52.1395 14.1678 52.1395V52.1395ZM82.0954 115.256H14.1678C13.0868 115.256 12.0502 114.822 11.2858 114.05C10.5215 113.278 10.0921 112.231 10.0921 111.14V109.52C10.5278 109.68 10.9872 109.764 11.4507 109.767C11.811 109.767 12.1565 109.623 12.4113 109.366C12.6661 109.108 12.8092 108.759 12.8092 108.395C12.8092 108.031 12.6661 107.682 12.4113 107.425C12.1565 107.168 11.811 107.023 11.4507 107.023C11.0903 107.023 10.7448 106.879 10.49 106.621C10.2352 106.364 10.0921 106.015 10.0921 105.651V71.1019C10.5278 71.2616 10.9872 71.3451 11.4507 71.3488C11.811 71.3488 12.1565 71.2043 12.4113 70.947C12.6661 70.6896 12.8092 70.3406 12.8092 69.9767C12.8092 69.6128 12.6661 69.2638 12.4113 69.0065C12.1565 68.7492 11.811 68.6047 11.4507 68.6047C11.0903 68.6047 10.7448 68.4601 10.49 68.2028C10.2352 67.9455 10.0921 67.5965 10.0921 67.2326V61.7442C11.2792 62.6129 12.702 63.092 14.1678 63.1163H82.0954C83.1763 63.1163 84.213 63.55 84.9773 64.3219C85.7417 65.0939 86.1711 66.1409 86.1711 67.2326V68.6047H84.8125C84.4522 68.6047 84.1066 68.7492 83.8519 69.0065C83.5971 69.2638 83.454 69.6128 83.454 69.9767C83.454 70.3406 83.5971 70.6896 83.8519 70.947C84.1066 71.2043 84.4522 71.3488 84.8125 71.3488H86.1711V80.9535H75.3026C73.1408 80.9535 71.0675 81.8208 69.5388 83.3648C68.0101 84.9087 67.1513 87.0026 67.1513 89.1861C67.1513 91.3695 68.0101 93.4634 69.5388 95.0073C71.0675 96.5512 73.1408 97.4186 75.3026 97.4186H86.1711V107.023H84.8125C84.4522 107.023 84.1066 107.168 83.8519 107.425C83.5971 107.682 83.454 108.031 83.454 108.395C83.454 108.759 83.5971 109.108 83.8519 109.366C84.1066 109.623 84.4522 109.767 84.8125 109.767H86.1711V111.14C86.1711 112.231 85.7417 113.278 84.9773 114.05C84.213 114.822 83.1763 115.256 82.0954 115.256ZM97.0395 102.907C97.0395 103.271 96.8963 103.62 96.6416 103.877C96.3868 104.135 96.0412 104.279 95.6809 104.279H88.8882V97.4186H97.0395V102.907ZM107.908 90.5581C107.908 91.6498 107.479 92.6968 106.714 93.4688C105.95 94.2407 104.913 94.6744 103.832 94.6744H75.3026C73.8614 94.6744 72.4792 94.0962 71.4601 93.0669C70.441 92.0377 69.8684 90.6417 69.8684 89.1861C69.8684 87.7304 70.441 86.3345 71.4601 85.3052C72.4792 84.2759 73.8614 83.6977 75.3026 83.6977H103.832C105.297 83.669 106.719 83.1904 107.908 82.3256V90.5581Z" fill="white"/>
<path d="M76.6616 34.3022C75.8555 34.3022 75.0675 34.5437 74.3973 34.996C73.727 35.4483 73.2047 36.0911 72.8962 36.8433C72.5877 37.5954 72.507 38.4231 72.6643 39.2216C72.8215 40.0201 73.2097 40.7535 73.7797 41.3292C74.3497 41.9048 75.0759 42.2969 75.8665 42.4557C76.6571 42.6145 77.4766 42.533 78.2213 42.2215C78.966 41.9099 79.6025 41.3823 80.0504 40.7054C80.4982 40.0285 80.7373 39.2326 80.7373 38.4185C80.7373 37.3268 80.3079 36.2798 79.5435 35.5079C78.7792 34.7359 77.7425 34.3022 76.6616 34.3022ZM76.6616 39.7906C76.3929 39.7906 76.1302 39.7101 75.9068 39.5594C75.6834 39.4086 75.5093 39.1943 75.4065 38.9436C75.3036 38.6929 75.2767 38.417 75.3291 38.1508C75.3816 37.8847 75.511 37.6402 75.701 37.4483C75.891 37.2564 76.133 37.1257 76.3966 37.0728C76.6601 37.0199 76.9332 37.047 77.1815 37.1509C77.4297 37.2547 77.6419 37.4306 77.7912 37.6562C77.9405 37.8819 78.0202 38.1472 78.0202 38.4185C78.0202 38.7824 77.877 39.1314 77.6222 39.3887C77.3675 39.6461 77.0219 39.7906 76.6616 39.7906Z" fill="white"/>
<path d="M20.9604 68.605H18.2433C17.883 68.605 17.5375 68.7495 17.2827 69.0069C17.0279 69.2642 16.8848 69.6132 16.8848 69.9771C16.8848 70.341 17.0279 70.69 17.2827 70.9473C17.5375 71.2046 17.883 71.3492 18.2433 71.3492H20.9604C21.3207 71.3492 21.6663 71.2046 21.9211 70.9473C22.1758 70.69 22.319 70.341 22.319 69.9771C22.319 69.6132 22.1758 69.2642 21.9211 69.0069C21.6663 68.7495 21.3207 68.605 20.9604 68.605Z" fill="white"/>
<path d="M30.4702 68.605H27.7531C27.3928 68.605 27.0472 68.7495 26.7924 69.0069C26.5377 69.2642 26.3945 69.6132 26.3945 69.9771C26.3945 70.341 26.5377 70.69 26.7924 70.9473C27.0472 71.2046 27.3928 71.3492 27.7531 71.3492H30.4702C30.8305 71.3492 31.1761 71.2046 31.4308 70.9473C31.6856 70.69 31.8287 70.341 31.8287 69.9771C31.8287 69.6132 31.6856 69.2642 31.4308 69.0069C31.1761 68.7495 30.8305 68.605 30.4702 68.605Z" fill="white"/>
<path d="M39.98 68.605H37.2628C36.9025 68.605 36.557 68.7495 36.3022 69.0069C36.0474 69.2642 35.9043 69.6132 35.9043 69.9771C35.9043 70.341 36.0474 70.69 36.3022 70.9473C36.557 71.2046 36.9025 71.3492 37.2628 71.3492H39.98C40.3403 71.3492 40.6858 71.2046 40.9406 70.9473C41.1954 70.69 41.3385 70.341 41.3385 69.9771C41.3385 69.6132 41.1954 69.2642 40.9406 69.0069C40.6858 68.7495 40.3403 68.605 39.98 68.605Z" fill="white"/>
<path d="M49.4917 68.605H46.7746C46.4143 68.605 46.0687 68.7495 45.8139 69.0069C45.5591 69.2642 45.416 69.6132 45.416 69.9771C45.416 70.341 45.5591 70.69 45.8139 70.9473C46.0687 71.2046 46.4143 71.3492 46.7746 71.3492H49.4917C49.852 71.3492 50.1975 71.2046 50.4523 70.9473C50.7071 70.69 50.8502 70.341 50.8502 69.9771C50.8502 69.6132 50.7071 69.2642 50.4523 69.0069C50.1975 68.7495 49.852 68.605 49.4917 68.605Z" fill="white"/>
<path d="M58.9995 68.605H56.2824C55.9221 68.605 55.5765 68.7495 55.3217 69.0069C55.067 69.2642 54.9238 69.6132 54.9238 69.9771C54.9238 70.341 55.067 70.69 55.3217 70.9473C55.5765 71.2046 55.9221 71.3492 56.2824 71.3492H58.9995C59.3598 71.3492 59.7053 71.2046 59.9601 70.9473C60.2149 70.69 60.358 70.341 60.358 69.9771C60.358 69.6132 60.2149 69.2642 59.9601 69.0069C59.7053 68.7495 59.3598 68.605 58.9995 68.605Z" fill="white"/>
<path d="M65.7921 71.3492H68.5093C68.8696 71.3492 69.2151 71.2046 69.4699 70.9473C69.7247 70.69 69.8678 70.341 69.8678 69.9771C69.8678 69.6132 69.7247 69.2642 69.4699 69.0069C69.2151 68.7495 68.8696 68.605 68.5093 68.605H65.7921C65.4318 68.605 65.0863 68.7495 64.8315 69.0069C64.5767 69.2642 64.4336 69.6132 64.4336 69.9771C64.4336 70.341 64.5767 70.69 64.8315 70.9473C65.0863 71.2046 65.4318 71.3492 65.7921 71.3492Z" fill="white"/>
<path d="M75.3019 71.3492H78.019C78.3793 71.3492 78.7249 71.2046 78.9797 70.9473C79.2344 70.69 79.3776 70.341 79.3776 69.9771C79.3776 69.6132 79.2344 69.2642 78.9797 69.0069C78.7249 68.7495 78.3793 68.605 78.019 68.605H75.3019C74.9416 68.605 74.596 68.7495 74.3413 69.0069C74.0865 69.2642 73.9434 69.6132 73.9434 69.9771C73.9434 70.341 74.0865 70.69 74.3413 70.9473C74.596 71.2046 74.9416 71.3492 75.3019 71.3492Z" fill="white"/>
<path d="M20.9604 107.023H18.2433C17.883 107.023 17.5375 107.168 17.2827 107.425C17.0279 107.682 16.8848 108.031 16.8848 108.395C16.8848 108.759 17.0279 109.108 17.2827 109.365C17.5375 109.623 17.883 109.767 18.2433 109.767H20.9604C21.3207 109.767 21.6663 109.623 21.9211 109.365C22.1758 109.108 22.319 108.759 22.319 108.395C22.319 108.031 22.1758 107.682 21.9211 107.425C21.6663 107.168 21.3207 107.023 20.9604 107.023Z" fill="white"/>
<path d="M30.4702 107.023H27.7531C27.3928 107.023 27.0472 107.168 26.7924 107.425C26.5377 107.682 26.3945 108.031 26.3945 108.395C26.3945 108.759 26.5377 109.108 26.7924 109.365C27.0472 109.623 27.3928 109.767 27.7531 109.767H30.4702C30.8305 109.767 31.1761 109.623 31.4308 109.365C31.6856 109.108 31.8287 108.759 31.8287 108.395C31.8287 108.031 31.6856 107.682 31.4308 107.425C31.1761 107.168 30.8305 107.023 30.4702 107.023Z" fill="white"/>
<path d="M39.98 107.023H37.2628C36.9025 107.023 36.557 107.168 36.3022 107.425C36.0474 107.682 35.9043 108.031 35.9043 108.395C35.9043 108.759 36.0474 109.108 36.3022 109.365C36.557 109.623 36.9025 109.767 37.2628 109.767H39.98C40.3403 109.767 40.6858 109.623 40.9406 109.365C41.1954 109.108 41.3385 108.759 41.3385 108.395C41.3385 108.031 41.1954 107.682 40.9406 107.425C40.6858 107.168 40.3403 107.023 39.98 107.023Z" fill="white"/>
<path d="M49.4917 107.023H46.7746C46.4143 107.023 46.0687 107.168 45.8139 107.425C45.5591 107.682 45.416 108.031 45.416 108.395C45.416 108.759 45.5591 109.108 45.8139 109.365C46.0687 109.623 46.4143 109.767 46.7746 109.767H49.4917C49.852 109.767 50.1975 109.623 50.4523 109.365C50.7071 109.108 50.8502 108.759 50.8502 108.395C50.8502 108.031 50.7071 107.682 50.4523 107.425C50.1975 107.168 49.852 107.023 49.4917 107.023Z" fill="white"/>
<path d="M58.9995 107.024H56.2824C55.9221 107.024 55.5765 107.168 55.3217 107.426C55.067 107.683 54.9238 108.032 54.9238 108.396C54.9238 108.76 55.067 109.109 55.3217 109.366C55.5765 109.624 55.9221 109.768 56.2824 109.768H58.9995C59.3598 109.768 59.7053 109.624 59.9601 109.366C60.2149 109.109 60.358 108.76 60.358 108.396C60.358 108.032 60.2149 107.683 59.9601 107.426C59.7053 107.168 59.3598 107.024 58.9995 107.024Z" fill="white"/>
<path d="M68.5093 107.024H65.7921C65.4318 107.024 65.0863 107.168 64.8315 107.426C64.5767 107.683 64.4336 108.032 64.4336 108.396C64.4336 108.76 64.5767 109.109 64.8315 109.366C65.0863 109.624 65.4318 109.768 65.7921 109.768H68.5093C68.8696 109.768 69.2151 109.624 69.4699 109.366C69.7247 109.109 69.8678 108.76 69.8678 108.396C69.8678 108.032 69.7247 107.683 69.4699 107.426C69.2151 107.168 68.8696 107.024 68.5093 107.024Z" fill="white"/>
<path d="M78.019 107.024H75.3019C74.9416 107.024 74.596 107.168 74.3413 107.426C74.0865 107.683 73.9434 108.032 73.9434 108.396C73.9434 108.76 74.0865 109.109 74.3413 109.366C74.596 109.624 74.9416 109.768 75.3019 109.768H78.019C78.3793 109.768 78.7249 109.624 78.9797 109.366C79.2344 109.109 79.3776 108.76 79.3776 108.396C79.3776 108.032 79.2344 107.683 78.9797 107.426C78.7249 107.168 78.3793 107.024 78.019 107.024Z" fill="white"/>
<path d="M31.8288 23.3255C33.27 23.3255 34.6522 22.7473 35.6713 21.718C36.6904 20.6887 37.263 19.2927 37.263 17.8371C37.2651 16.8709 37.0068 15.9222 36.5158 15.093C37.0001 14.2592 37.2579 13.311 37.2629 12.3444C37.2679 11.3777 37.0201 10.4269 36.5444 9.58801C36.0688 8.74916 35.3822 8.05207 34.5541 7.56727C33.726 7.08246 32.7859 6.82715 31.8288 6.82715C30.8716 6.82715 29.9315 7.08246 29.1034 7.56727C28.2753 8.05207 27.5888 8.74916 27.1131 9.58801C26.6374 10.4269 26.3896 11.3777 26.3946 12.3444C26.3997 13.311 26.6574 14.2592 27.1417 15.093C26.6507 15.9222 26.3924 16.8709 26.3945 17.8371C26.3945 19.2927 26.9671 20.6887 27.9862 21.718C29.0053 22.7473 30.3875 23.3255 31.8288 23.3255ZM31.8288 20.5813C31.1081 20.5813 30.417 20.2922 29.9075 19.7776C29.3979 19.2629 29.1116 18.5649 29.1116 17.8371C29.1111 17.606 29.1384 17.3756 29.1932 17.1511C30.0097 17.5764 30.9104 17.8109 31.8288 17.8371C32.7481 17.8182 33.6505 17.5833 34.4643 17.1511C34.5191 17.3756 34.5464 17.606 34.5459 17.8371C34.5459 18.5649 34.2596 19.2629 33.75 19.7776C33.2405 20.2922 32.5494 20.5813 31.8288 20.5813ZM31.8288 9.60458C32.5494 9.60458 33.2405 9.8937 33.75 10.4083C34.2596 10.923 34.5459 11.621 34.5459 12.3488C34.5459 13.0766 34.2596 13.7746 33.75 14.2892C33.2405 14.8038 32.5494 15.093 31.8288 15.093C31.1081 15.093 30.417 14.8038 29.9075 14.2892C29.3979 13.7746 29.1116 13.0766 29.1116 12.3488C29.1116 11.621 29.3979 10.923 29.9075 10.4083C30.417 9.8937 31.1081 9.60458 31.8288 9.60458V9.60458Z" fill="white"/>
<path d="M63.6329 44.7155C61.4592 43.5904 58.9187 44.249 56.8401 46.4718L53.1177 50.4509C52.9604 50.6078 52.8355 50.7948 52.7502 51.0009C52.665 51.207 52.6211 51.4281 52.6211 51.6515C52.6211 51.8748 52.665 52.0959 52.7502 52.302C52.8355 52.5081 52.9604 52.6951 53.1177 52.852L54.6257 54.2241L53.2672 55.5962C53.1142 55.7577 52.9945 55.9482 52.915 56.1568C52.8356 56.3653 52.7979 56.5878 52.8042 56.8111C52.8105 57.0345 52.8607 57.2544 52.9518 57.458C53.043 57.6617 53.1732 57.845 53.3351 57.9974V57.9974C53.495 58.1519 53.6836 58.2728 53.8901 58.353C54.0966 58.4333 54.3168 58.4713 54.538 58.4649C54.7592 58.4586 54.9769 58.4079 55.1785 58.3158C55.3801 58.2238 55.5617 58.0922 55.7126 57.9288L57.0711 56.5567L63.171 62.3744C63.489 62.6928 63.9187 62.8714 64.3665 62.8714C64.8143 62.8714 65.244 62.6928 65.5621 62.3744L65.793 62.1137C65.9503 61.9567 66.0752 61.7697 66.1605 61.5637C66.2457 61.3576 66.2896 61.1364 66.2896 60.9131C66.2896 60.6897 66.2457 60.4686 66.1605 60.2625C66.0752 60.0564 65.9503 59.8695 65.793 59.7125L62.3559 56.4332L64.6247 53.9909C66.5402 51.9465 67.3418 49.3669 65.9832 47.1304L66.744 46.3209C67.0593 45.9997 67.2361 45.5657 67.2361 45.1134C67.2361 44.6612 67.0593 44.2272 66.744 43.906V43.906C66.4315 43.6088 66.0184 43.4434 65.5892 43.4434C65.16 43.4434 64.747 43.6088 64.4345 43.906L63.6329 44.7155ZM63.2118 50.1216C63.1386 50.9554 62.755 51.7301 62.1385 52.2895L60.1958 54.3751L56.6635 51.0134L58.6742 48.8592C58.9364 48.5363 59.2605 48.2702 59.627 48.0769C59.9935 47.8835 60.3949 47.7669 60.8071 47.7341C61.1065 47.7434 61.4011 47.8124 61.6739 47.9372C61.9467 48.062 62.1923 48.2402 62.3966 48.4613C62.6414 48.6638 62.8407 48.9165 62.9813 49.2028C63.1218 49.489 63.2004 49.8022 63.2118 50.1216V50.1216Z" fill="white"/>
</svg>
