<svg width="49" height="48" viewBox="0 0 49 48" fill="none" xmlns="http://www.w3.org/2000/svg">
<g filter="url(#filter0_d_19205_28707)">
<rect x="4.50586" y="3" width="40" height="40" rx="20" fill="#2A3339" shape-rendering="crispEdges"/>
<path d="M27.2216 16H24.6144V26.0811C24.6144 27.2823 23.6116 28.269 22.3637 28.269C21.1158 28.269 20.1131 27.2823 20.1131 26.0811C20.1131 24.9015 21.0936 23.9362 22.2969 23.8933V21.3623C19.6451 21.4052 17.5059 23.4858 17.5059 26.0811C17.5059 28.698 19.6897 30.8 22.386 30.8C25.0823 30.8 27.2661 28.6765 27.2661 26.0811V20.9119C28.2466 21.5983 29.45 22.0058 30.7201 22.0273V19.4962C28.7592 19.4319 27.2216 17.8875 27.2216 16Z" fill="white"/>
</g>
<defs>
<filter id="filter0_d_19205_28707" x="0.505859" y="0" width="48" height="48" filterUnits="userSpaceOnUse" color-interpolation-filters="sRGB">
<feFlood flood-opacity="0" result="BackgroundImageFix"/>
<feColorMatrix in="SourceAlpha" type="matrix" values="0 0 0 0 0 0 0 0 0 0 0 0 0 0 0 0 0 0 127 0" result="hardAlpha"/>
<feOffset dy="1"/>
<feGaussianBlur stdDeviation="2"/>
<feComposite in2="hardAlpha" operator="out"/>
<feColorMatrix type="matrix" values="0 0 0 0 0 0 0 0 0 0 0 0 0 0 0 0 0 0 0.25 0"/>
<feBlend mode="normal" in2="BackgroundImageFix" result="effect1_dropShadow_19205_28707"/>
<feBlend mode="normal" in="SourceGraphic" in2="effect1_dropShadow_19205_28707" result="shape"/>
</filter>
</defs>
</svg>
