<svg width="118" height="119" viewBox="0 0 118 119" fill="none" xmlns="http://www.w3.org/2000/svg">
<g clip-path="url(#clip0_17477_18089)">
<path d="M108.863 49.4628L93.6662 28.2833C93.5264 28.0878 93.3418 27.9282 93.1278 27.8177C92.9138 27.7073 92.6764 27.6491 92.4353 27.6479H25.5686C25.3275 27.6491 25.0901 27.7073 24.8761 27.8177C24.6621 27.9282 24.4775 28.0878 24.3377 28.2833L9.14069 49.4628C8.95399 49.7205 8.85352 50.0301 8.85352 50.3478C8.85352 50.6655 8.95399 50.9752 9.14069 51.2328L57.771 117.797C57.9119 117.991 58.0969 118.148 58.3109 118.257C58.5249 118.366 58.7617 118.423 59.0019 118.423C59.2422 118.423 59.479 118.366 59.693 118.257C59.907 118.148 60.092 117.991 60.2329 117.797L108.863 51.2328C109.05 50.9752 109.15 50.6655 109.15 50.3478C109.15 50.0301 109.05 49.7205 108.863 49.4628V49.4628ZM25.1583 32.3377L31.4346 48.8274H13.3199L25.1583 32.3377ZM82.1621 51.8531L59.0019 112.638L35.8418 51.8531H82.1621ZM37.8174 48.8274L59.0019 31.1426L80.1865 48.8274H37.8174ZM63.1659 30.6736H90.2317L83.697 47.8138L63.1659 30.6736ZM34.2917 47.8138L27.7722 30.6736H54.8228L34.2917 47.8138ZM32.5896 51.8531L53.5614 106.874L13.411 51.8531H32.5896ZM85.4143 51.8531H104.593L64.4425 106.874L85.4143 51.8531ZM86.5692 48.8274L92.8456 32.3377L104.684 48.8274H86.5692Z" fill="white"/>
<path d="M59.0002 20.0846C59.4032 20.0846 59.7898 19.9253 60.0748 19.6415C60.3598 19.3578 60.5199 18.973 60.5199 18.5718V1.93079C60.5199 1.52956 60.3598 1.14477 60.0748 0.861064C59.7898 0.577355 59.4032 0.417969 59.0002 0.417969C58.5971 0.417969 58.2106 0.577355 57.9256 0.861064C57.6406 1.14477 57.4805 1.52956 57.4805 1.93079V18.5718C57.4805 18.973 57.6406 19.3578 57.9256 19.6415C58.2106 19.9253 58.5971 20.0846 59.0002 20.0846Z" fill="white"/>
<path d="M42.7254 21.1604C43.0116 21.4453 43.3997 21.6053 43.8044 21.6053C44.2091 21.6053 44.5972 21.4453 44.8834 21.1604C45.1696 20.8755 45.3303 20.4892 45.3303 20.0863C45.3303 19.6834 45.1696 19.2971 44.8834 19.0122L34.2455 8.42245C33.9594 8.13758 33.5712 7.97754 33.1665 7.97754C32.7618 7.97754 32.3737 8.13758 32.0876 8.42245C31.8014 8.70732 31.6406 9.09368 31.6406 9.49655C31.6406 9.89942 31.8014 10.2858 32.0876 10.5707L42.7254 21.1604Z" fill="white"/>
<path d="M75.2768 21.1604L85.9147 10.5707C86.2008 10.2858 86.3616 9.89942 86.3616 9.49655C86.3616 9.09368 86.2008 8.70732 85.9147 8.42245C85.6285 8.13758 85.2404 7.97754 84.8357 7.97754C84.431 7.97754 84.0429 8.13758 83.7567 8.42245L73.1188 19.0122C72.8326 19.2971 72.6719 19.6834 72.6719 20.0863C72.6719 20.4892 72.8326 20.8755 73.1188 21.1604C73.405 21.4453 73.7931 21.6053 74.1978 21.6053C74.6025 21.6053 74.9906 21.4453 75.2768 21.1604V21.1604Z" fill="white"/>
</g>
<defs>
<clipPath id="clip0_17477_18089">
<rect width="118" height="118" fill="white" transform="translate(0 0.417969)"/>
</clipPath>
</defs>
</svg>
