<svg xmlns="http://www.w3.org/2000/svg" width="248" height="238" viewBox="0 0 248 238" fill="none">
    <g clip-path="url(#clip0_18958_38682)">
    <path d="M208.374 56.4101H207.077V20.6797C207.077 15.1951 204.906 9.93512 201.043 6.05693C197.18 2.17874 191.941 2.69755e-09 186.478 2.69755e-09H111.072C108.367 -4.38593e-05 105.688 0.534808 103.189 1.57402C100.69 2.61323 98.419 4.13644 96.5061 6.0567C94.5933 7.97695 93.076 10.2566 92.0407 12.7656C91.0055 15.2745 90.4726 17.9636 90.4726 20.6793V216.699C90.4726 222.184 92.6428 227.444 96.5059 231.322C100.369 235.2 105.608 237.379 111.072 237.379H186.477C191.94 237.379 197.179 235.2 201.042 231.322C204.905 227.444 207.076 222.184 207.076 216.699V81.8436H208.373L208.374 56.4101Z" fill="#3F3D56"/>
    <path d="M202.851 19.2946V218.084C202.851 222.242 201.205 226.23 198.277 229.171C195.348 232.111 191.376 233.764 187.234 233.766H110.281C106.137 233.766 102.163 232.114 99.2323 229.174C96.3016 226.233 94.6545 222.244 94.6533 218.084V19.2946C94.6545 15.1348 96.3015 11.1458 99.2321 8.20498C102.163 5.26417 106.137 3.61238 110.28 3.61292H119.615C119.157 4.74451 118.982 5.97181 119.107 7.18694C119.232 8.40207 119.652 9.56783 120.331 10.5818C121.009 11.5957 121.926 12.4267 122.999 13.0018C124.073 13.577 125.271 13.8786 126.487 13.8801H170.359C171.576 13.8786 172.774 13.577 173.848 13.0018C174.921 12.4267 175.837 11.5957 176.516 10.5818C177.195 9.56783 177.615 8.40207 177.74 7.18694C177.865 5.97181 177.69 4.74451 177.232 3.61292H187.231C191.373 3.61362 195.345 5.26561 198.274 8.20569C201.204 11.1458 202.85 15.1333 202.851 19.2916V19.2946Z" fill="white"/>
    <path d="M148.738 99.096C166.481 99.096 180.865 84.656 180.865 66.8432C180.865 49.0305 166.481 34.5905 148.738 34.5905C130.995 34.5905 116.611 49.0305 116.611 66.8432C116.611 84.656 130.995 99.096 148.738 99.096Z" fill="#6C63FF"/>
    <path d="M183.776 133.799H115.395C115.059 133.799 114.737 133.665 114.5 133.427C114.263 133.188 114.129 132.865 114.129 132.528V115.499C114.129 115.162 114.263 114.839 114.5 114.601C114.737 114.363 115.059 114.229 115.395 114.228H183.776C184.112 114.229 184.434 114.363 184.671 114.601C184.909 114.839 185.042 115.162 185.043 115.499V132.529C185.042 132.866 184.909 133.189 184.671 133.427C184.434 133.665 184.112 133.799 183.776 133.8V133.799ZM115.395 114.737C115.193 114.737 115 114.817 114.858 114.96C114.715 115.103 114.635 115.297 114.635 115.499V132.528C114.635 132.731 114.715 132.925 114.858 133.068C115 133.211 115.193 133.291 115.395 133.291H183.776C183.978 133.291 184.171 133.211 184.314 133.068C184.456 132.925 184.536 132.731 184.536 132.528V115.499C184.536 115.297 184.456 115.103 184.314 114.96C184.171 114.817 183.978 114.737 183.776 114.737H115.395Z" fill="#E6E6E6"/>
    <path d="M136.543 120.361C136.307 120.361 136.082 120.455 135.916 120.621C135.749 120.788 135.656 121.015 135.656 121.251C135.656 121.487 135.749 121.713 135.916 121.88C136.082 122.047 136.307 122.141 136.543 122.141H178.331C178.566 122.15 178.795 122.065 178.967 121.904C179.14 121.744 179.242 121.521 179.251 121.285C179.26 121.049 179.175 120.82 179.015 120.646C178.856 120.473 178.634 120.371 178.399 120.362C178.386 120.361 178.373 120.361 178.36 120.361L136.543 120.361Z" fill="#E6E6E6"/>
    <path d="M136.543 125.7C136.307 125.7 136.082 125.793 135.916 125.96C135.749 126.127 135.656 126.353 135.656 126.59C135.656 126.826 135.749 127.052 135.916 127.219C136.082 127.386 136.307 127.479 136.543 127.479H178.331C178.566 127.489 178.795 127.403 178.967 127.243C179.14 127.083 179.242 126.86 179.251 126.624C179.26 126.388 179.175 126.158 179.015 125.985C178.856 125.812 178.634 125.71 178.399 125.701C178.386 125.7 178.373 125.7 178.36 125.7L136.543 125.7Z" fill="#E6E6E6"/>
    <path d="M183.776 162.183H115.395C115.059 162.182 114.737 162.048 114.5 161.81C114.263 161.572 114.129 161.249 114.129 160.912V143.883C114.129 143.546 114.263 143.223 114.5 142.985C114.737 142.746 115.059 142.612 115.395 142.612H183.776C184.112 142.612 184.434 142.746 184.671 142.985C184.909 143.223 185.042 143.546 185.043 143.883V160.912C185.042 161.249 184.909 161.572 184.671 161.81C184.434 162.048 184.112 162.182 183.776 162.183ZM115.395 143.12C115.193 143.12 115 143.201 114.858 143.344C114.715 143.487 114.635 143.681 114.635 143.883V160.912C114.635 161.114 114.715 161.308 114.858 161.451C115 161.594 115.193 161.675 115.395 161.675H183.776C183.978 161.675 184.171 161.594 184.314 161.451C184.456 161.308 184.536 161.114 184.536 160.912V143.883C184.536 143.681 184.456 143.487 184.314 143.344C184.171 143.201 183.978 143.12 183.776 143.12H115.395Z" fill="#E6E6E6"/>
    <path d="M136.543 148.836C136.307 148.836 136.082 148.93 135.916 149.097C135.749 149.264 135.656 149.49 135.656 149.726C135.656 149.962 135.749 150.189 135.916 150.356C136.082 150.523 136.307 150.616 136.543 150.616H178.331C178.563 150.615 178.785 150.523 178.949 150.359C179.114 150.195 179.209 149.973 179.212 149.741C179.216 149.508 179.129 149.283 178.97 149.114C178.81 148.945 178.591 148.846 178.36 148.837H136.543V148.836Z" fill="#E6E6E6"/>
    <path d="M136.543 154.177C136.307 154.177 136.082 154.27 135.916 154.437C135.749 154.604 135.656 154.83 135.656 155.066C135.656 155.302 135.749 155.529 135.916 155.696C136.082 155.863 136.307 155.956 136.543 155.956H178.331C178.563 155.955 178.785 155.863 178.949 155.699C179.114 155.535 179.209 155.313 179.212 155.081C179.216 154.848 179.129 154.623 178.97 154.454C178.81 154.285 178.591 154.186 178.36 154.177H136.543V154.177Z" fill="#E6E6E6"/>
    <path d="M183.776 190.659H115.395C115.059 190.659 114.737 190.525 114.5 190.286C114.263 190.048 114.129 189.725 114.129 189.388V172.359C114.129 172.022 114.263 171.699 114.5 171.461C114.737 171.222 115.059 171.088 115.395 171.088H183.776C184.112 171.088 184.434 171.222 184.671 171.461C184.909 171.699 185.042 172.022 185.043 172.359V189.388C185.042 189.725 184.909 190.048 184.671 190.287C184.434 190.525 184.112 190.659 183.776 190.659V190.659ZM115.395 171.596C115.193 171.596 115 171.677 114.858 171.82C114.715 171.963 114.635 172.157 114.635 172.359V189.388C114.635 189.59 114.715 189.784 114.858 189.927C115 190.07 115.193 190.151 115.395 190.151H183.776C183.978 190.151 184.171 190.07 184.314 189.927C184.456 189.784 184.536 189.59 184.536 189.388V172.359C184.536 172.157 184.456 171.963 184.314 171.82C184.171 171.677 183.978 171.596 183.776 171.596H115.395Z" fill="#E6E6E6"/>
    <path d="M136.543 177.314C136.307 177.314 136.082 177.407 135.916 177.574C135.749 177.741 135.656 177.968 135.656 178.204C135.656 178.44 135.749 178.666 135.916 178.833C136.082 179 136.307 179.094 136.543 179.094H178.331C178.447 179.098 178.563 179.08 178.673 179.039C178.782 178.998 178.882 178.937 178.967 178.857C179.053 178.778 179.122 178.682 179.17 178.576C179.219 178.47 179.246 178.355 179.251 178.238C179.255 178.121 179.237 178.005 179.196 177.895C179.156 177.786 179.094 177.685 179.015 177.599C178.936 177.514 178.841 177.444 178.735 177.395C178.63 177.347 178.515 177.319 178.399 177.315C178.386 177.314 178.373 177.314 178.36 177.314L136.543 177.314Z" fill="#E6E6E6"/>
    <path d="M136.543 182.653C136.307 182.653 136.082 182.747 135.916 182.914C135.749 183.081 135.656 183.307 135.656 183.543C135.656 183.779 135.749 184.006 135.916 184.173C136.082 184.339 136.307 184.433 136.543 184.433H178.331C178.447 184.438 178.563 184.419 178.673 184.379C178.782 184.338 178.882 184.276 178.967 184.197C179.053 184.117 179.122 184.022 179.17 183.916C179.219 183.809 179.246 183.695 179.251 183.578C179.255 183.461 179.237 183.344 179.196 183.235C179.156 183.125 179.094 183.025 179.015 182.939C178.936 182.853 178.841 182.784 178.735 182.735C178.63 182.686 178.515 182.659 178.399 182.654C178.386 182.654 178.373 182.654 178.36 182.654H136.542L136.543 182.653Z" fill="#E6E6E6"/>
    <path d="M246.855 238H1.14475C0.788429 238 0.499985 237.844 0.499985 237.651C0.499985 237.458 0.788762 237.302 1.14475 237.302H246.855C247.211 237.302 247.5 237.458 247.5 237.651C247.5 237.844 247.212 238 246.855 238Z" fill="#E6E6E6"/>
    <path d="M236.449 224.384C235.399 224.755 234.272 224.848 233.176 224.654C232.081 224.46 231.053 223.986 230.192 223.278C228.001 221.432 227.314 218.389 226.755 215.572L225.101 207.241L228.563 209.634C231.053 211.355 233.598 213.131 235.322 215.624C237.046 218.116 237.799 221.519 236.414 224.216" fill="#E6E6E6"/>
    <path d="M235.914 235.051C236.35 231.864 236.798 228.637 236.493 225.416C236.221 222.555 235.352 219.761 233.582 217.47C232.643 216.257 231.499 215.217 230.204 214.397C229.866 214.183 229.555 214.721 229.892 214.934C232.133 216.356 233.867 218.456 234.843 220.931C235.92 223.684 236.093 226.684 235.907 229.608C235.795 231.376 235.557 233.132 235.317 234.886C235.298 234.966 235.31 235.049 235.35 235.12C235.39 235.191 235.456 235.244 235.533 235.269C235.612 235.29 235.697 235.279 235.768 235.238C235.839 235.198 235.892 235.131 235.914 235.051H235.914Z" fill="#F2F2F2"/>
    <path d="M232.778 229.938C232.328 230.625 231.709 231.184 230.981 231.561C230.253 231.938 229.441 232.121 228.622 232.091C226.519 231.991 224.765 230.517 223.186 229.119L218.517 224.979L221.607 224.83C223.83 224.723 226.11 224.624 228.228 225.312C230.346 226 232.297 227.656 232.684 229.854" fill="#E6E6E6"/>
    <path d="M237.146 236.883C235.05 233.157 232.615 229.016 228.268 227.692C227.059 227.326 225.792 227.194 224.534 227.305C224.137 227.339 224.236 227.953 224.633 227.919C226.742 227.743 228.846 228.302 230.593 229.502C232.273 230.65 233.581 232.246 234.688 233.939C235.367 234.975 235.974 236.057 236.582 237.137C236.775 237.481 237.342 237.232 237.146 236.883Z" fill="#F2F2F2"/>
    <path d="M123.926 129.249C126.863 129.249 129.244 126.858 129.244 123.909C129.244 120.96 126.863 118.57 123.926 118.57C120.989 118.57 118.607 120.96 118.607 123.909C118.607 126.858 120.989 129.249 123.926 129.249Z" fill="#6C63FF"/>
    <path d="M121.38 122.912C121.319 122.912 121.269 123.31 121.269 123.802C121.269 124.293 121.319 124.692 121.38 124.692H126.609C126.671 124.7 126.721 124.308 126.722 123.817C126.756 123.511 126.719 123.201 126.613 122.912H121.38V122.912Z" fill="#E6E6E6"/>
    <path d="M123.926 157.737C126.863 157.737 129.244 155.346 129.244 152.397C129.244 149.448 126.863 147.058 123.926 147.058C120.989 147.058 118.607 149.448 118.607 152.397C118.607 155.346 120.989 157.737 123.926 157.737Z" fill="#6C63FF"/>
    <path d="M121.38 151.4C121.319 151.4 121.269 151.798 121.269 152.29C121.269 152.781 121.319 153.18 121.38 153.18H126.609C126.671 153.188 126.721 152.796 126.722 152.305C126.756 151.999 126.719 151.689 126.613 151.4L121.38 151.4Z" fill="#E6E6E6"/>
    <path d="M123.926 186.213C126.863 186.213 129.244 183.822 129.244 180.874C129.244 177.925 126.863 175.534 123.926 175.534C120.989 175.534 118.607 177.925 118.607 180.874C118.607 183.822 120.989 186.213 123.926 186.213Z" fill="#6C63FF"/>
    <path d="M121.38 179.876C121.319 179.876 121.269 180.275 121.269 180.766C121.269 181.257 121.319 181.656 121.38 181.656H126.609C126.671 181.664 126.721 181.272 126.722 180.781C126.756 180.475 126.719 180.165 126.613 179.877L121.38 179.876Z" fill="#E6E6E6"/>
    <path d="M141.798 57.9867L139.916 59.8761L155.678 75.6998L157.56 73.8104L141.798 57.9867Z" fill="white"/>
    <path d="M157.56 59.8761L155.678 57.9867L139.916 73.8104L141.798 75.6998L157.56 59.8761Z" fill="white"/>
    <path d="M30.529 152.349C30.9901 152.186 31.4098 151.922 31.7585 151.578C32.1072 151.234 32.3765 150.817 32.5474 150.357C32.7183 149.897 32.7867 149.405 32.7476 148.915C32.7086 148.426 32.5632 147.951 32.3215 147.524L40.1616 138.551L34.0415 137.704L27.5347 146.354C26.8472 146.809 26.3499 147.502 26.137 148.3C25.924 149.099 26.0103 149.948 26.3794 150.687C26.7485 151.426 27.3748 152.003 28.1396 152.31C28.9044 152.616 29.7546 152.63 30.529 152.349Z" fill="#9F616A"/>
    <path d="M39.9842 231.868L34.5163 231.868L31.9149 210.694L39.9852 210.695L39.9842 231.868Z" fill="#9F616A"/>
    <path d="M41.3787 237.19L23.7475 237.189V236.965C23.7476 235.138 24.4707 233.386 25.7576 232.094C27.0446 230.802 28.79 230.076 30.61 230.076H30.6105L41.379 230.076L41.3787 237.19Z" fill="#2F2E41"/>
    <path d="M68.6074 227.275L63.3854 228.902L54.6468 209.455L62.3541 207.053L68.6074 227.275Z" fill="#9F616A"/>
    <path d="M71.5111 231.941L54.6728 237.19L54.6066 236.976C54.067 235.231 54.24 233.342 55.0874 231.725C55.9348 230.108 57.3874 228.895 59.1255 228.353L59.1259 228.353L69.4102 225.148L71.5111 231.941Z" fill="#2F2E41"/>
    <path d="M35.7968 134.249L27.6986 143.56L34.0385 144.133L35.7968 134.249Z" fill="#E6E6E6"/>
    <path d="M32.6325 146.251C32.6325 146.251 29.8196 147.663 29.4679 154.017C29.1163 160.371 30.5229 176.963 30.5229 176.963C30.5229 176.963 29.1166 184.375 30.5229 191.082C31.9292 197.789 29.1166 222.144 30.8746 222.144C32.6325 222.144 41.7744 223.203 42.126 222.144C42.4777 221.085 42.8294 205.201 42.8294 205.201C42.8294 205.201 45.6423 197.082 42.8294 192.141C42.8294 192.141 52.6509 209.359 59.0034 222.498C60.3937 225.374 70.9582 222.145 69.2003 218.968C67.4423 215.791 63.223 201.319 63.223 201.319C63.223 201.319 60.0584 190.729 54.4328 186.14L57.2458 163.549C57.2458 163.549 63.2234 148.37 59.7077 146.252C56.1921 144.134 32.6325 146.251 32.6325 146.251Z" fill="#2F2E41"/>
    <path d="M43.1807 88.713C48.2296 88.713 52.3225 84.604 52.3225 79.5353C52.3225 74.4667 48.2296 70.3577 43.1807 70.3577C38.1318 70.3577 34.0388 74.4667 34.0388 79.5353C34.0388 84.604 38.1318 88.713 43.1807 88.713Z" fill="#A0616A"/>
    <path d="M53.3775 89.4191L42.0126 96.1258C42.0126 96.1258 37.6609 98.5861 36.0354 102.833C34.3027 107.358 35.3098 113.73 36.0354 115.187C37.4417 118.011 35.4455 125.071 35.4455 125.071L33.6875 141.308C33.6875 141.308 27.3586 147.309 32.2812 148.015C37.2038 148.721 45.994 147.662 51.2682 148.015C56.5425 148.368 62.5197 149.074 60.7617 145.544C59.0038 142.013 56.8941 139.543 59.0038 132.484C60.6546 126.96 60.5831 106.304 60.474 97.581C60.4589 96.3831 60.1389 95.209 59.5443 94.1703C58.9497 93.1316 58.1002 92.2629 57.0768 91.6468L53.3775 89.4191Z" fill="#E5E5E5"/>
    <path opacity="0.1" d="M48.2806 100.539L49.3353 122.071L39.1128 142.853L37.3791 142.191L47.9276 122.777L48.2806 100.539Z" fill="black"/>
    <path opacity="0.1" d="M59.8824 126.659V124.188L47.929 143.956L59.8824 126.659Z" fill="black"/>
    <path d="M36.6924 71.0333L35.1823 70.4267C35.1823 70.4267 38.343 66.9341 42.7389 67.2377L41.5023 65.871C41.5023 65.871 44.5248 64.6562 47.2729 67.8449C48.7175 69.5213 50.3886 71.4919 51.4316 73.7113H53.0502L52.3748 75.2046L54.7389 76.6979L52.3122 76.4307C52.5421 77.7199 52.4634 79.0455 52.0827 80.2981L52.1492 81.4785C52.1492 81.4785 49.3349 77.1067 49.3349 76.5002V78.0189C49.3349 78.0189 47.8235 76.6522 47.8235 75.741L46.9991 76.8041L46.5869 75.1341L41.5032 76.8041L42.327 75.4367L39.1664 75.8923L40.403 74.2223C40.403 74.2223 36.8308 76.1963 36.6934 77.8669C36.556 79.5376 34.7701 81.6632 34.7701 81.6632L33.9457 80.1445C33.9457 80.1445 32.7094 73.3112 36.6924 71.0333Z" fill="#2F2E41"/>
    <path d="M42.607 153.348C43.0318 153.105 43.3982 152.771 43.6806 152.37C43.9629 151.969 44.1542 151.511 44.241 151.028C44.3279 150.544 44.3081 150.048 44.1832 149.573C44.0582 149.099 43.8311 148.657 43.5179 148.28L49.647 138.053L43.4742 138.309L38.6002 147.982C38.0041 148.552 37.6371 149.322 37.5688 150.146C37.5004 150.97 37.7355 151.79 38.2294 152.452C38.7232 153.113 39.4417 153.57 40.2485 153.735C41.0553 153.9 41.8945 153.763 42.607 153.348Z" fill="#9F616A"/>
    <path d="M56.5425 94.0085L59.1794 93.4791C59.1794 93.4791 67.0906 99.3034 64.6294 110.952C62.1681 122.601 51.2682 140.25 51.2682 140.25C51.2682 140.25 48.8063 143.427 48.1036 144.133C47.401 144.839 45.994 144.133 46.6973 145.192C47.4006 146.251 45.6423 146.957 45.6423 146.957C45.6423 146.957 37.9068 146.957 38.6101 144.133C39.3134 141.309 51.2682 121.187 51.2682 121.187L49.5103 102.479C49.5103 102.479 48.1033 93.3024 56.5425 94.0085Z" fill="#E5E5E5"/>
    </g>
    <defs>
    <clipPath id="clip0_18958_38682">
    <rect width="247" height="238" fill="white" transform="translate(0.5)"/>
    </clipPath>
    </defs>
</svg>