<svg xmlns="http://www.w3.org/2000/svg" width="202" height="238" viewBox="0 0 202 238" fill="none">
    <path d="M143.654 199.725L145.652 238C145.652 238 61.1324 157.745 50.6028 134.263C40.0731 110.781 59.8936 52.6944 59.8936 52.6944L103.87 76.7941L143.654 199.725Z" fill="#9F616A"/>
    <path d="M14.0587 36.6279L1.05155 37.8638C1.05155 37.8638 -5.76176 52.6944 15.2975 53.9303L14.0587 36.6279Z" fill="#9F616A"/>
    <path d="M14.0587 59.4917L1.05155 60.7276C1.05155 60.7276 -5.76176 75.5582 15.2975 76.7941L14.0587 59.4917Z" fill="#9F616A"/>
    <path d="M14.0587 84.2094L1.05155 85.4453C1.05155 85.4453 -5.76176 100.276 15.2975 101.512L14.0587 84.2094Z" fill="#9F616A"/>
    <path d="M17.7751 108.927L4.76789 110.163C4.76789 110.163 -2.04542 124.994 19.0139 126.229L17.7751 108.927Z" fill="#9F616A"/>
    <path d="M7.72628 42.5859H8.71323V15.6119C8.71323 13.5617 9.11799 11.5316 9.90439 9.63746C10.6908 7.74334 11.8434 6.02231 13.2965 4.57261C14.7496 3.12292 16.4747 1.97296 18.3732 1.18839C20.2718 0.403818 22.3067 1.57076e-06 24.3617 0H81.6438C83.6987 -4.18858e-06 85.7336 0.403805 87.6321 1.18837C89.5307 1.97293 91.2558 3.12289 92.7089 4.57258C94.162 6.02227 95.3146 7.7433 96.101 9.63741C96.8875 11.5315 97.2922 13.5616 97.2922 15.6118V163.593C97.2922 165.644 96.8875 167.674 96.1011 169.568C95.3147 171.462 94.162 173.183 92.7089 174.633C91.2558 176.082 89.5308 177.232 87.6322 178.017C85.7336 178.802 83.6988 179.205 81.6438 179.205H24.3617C20.2115 179.205 16.2313 177.561 13.2966 174.633C10.3619 171.705 8.71326 167.734 8.71324 163.594V61.7865H7.72628V42.5859Z" fill="#3F3D56"/>
    <path d="M23.7303 4.06167H31.2075C30.8636 4.90272 30.7324 5.81523 30.8253 6.71882C30.9182 7.6224 31.2324 8.48933 31.7402 9.24322C32.2481 9.99712 32.934 10.6148 33.7375 11.042C34.541 11.4691 35.4375 11.6926 36.3479 11.6927H69.1641C70.0746 11.6926 70.971 11.4691 71.7745 11.042C72.578 10.6149 73.2639 9.99713 73.7718 9.24323C74.2796 8.48933 74.5938 7.6224 74.6867 6.71882C74.7796 5.81523 74.6484 4.90271 74.3045 4.06165H81.2883C84.3876 4.06165 87.36 5.28998 89.5515 7.47641C91.7431 9.66285 92.9743 12.6283 92.9743 15.7204V163.485C92.9743 165.016 92.6721 166.532 92.0848 167.947C91.4975 169.361 90.6367 170.646 89.5516 171.729C88.4664 172.812 87.1781 173.67 85.7603 174.256C84.3425 174.842 82.8229 175.144 81.2883 175.144H23.7303C22.1957 175.144 20.676 174.842 19.2582 174.256C17.8404 173.67 16.5521 172.812 15.467 171.729C14.3818 170.646 13.521 169.361 12.9337 167.947C12.3465 166.532 12.0442 165.016 12.0442 163.485V15.7204C12.0442 14.1893 12.3465 12.6733 12.9337 11.2588C13.521 9.84428 14.3818 8.55904 15.467 7.47642C16.5521 6.39381 17.8404 5.53503 19.2582 4.94913C20.676 4.36322 22.1957 4.06166 23.7303 4.06167Z" fill="white"/>
    <path d="M64.841 45.4579H40.1776V51.3955H64.841V45.4579Z" fill="#6C63FF"/>
    <path d="M66.0151 70.9714H39.0034V76.909H66.0151V70.9714Z" fill="#E5E5E5"/>
    <path d="M82.6531 83.7261H22.3655V89.6637H82.6531V83.7261Z" fill="#E5E5E5"/>
    <path d="M82.6531 96.4807H22.3655V102.418H82.6531V96.4807Z" fill="#E5E5E5"/>
    <path d="M202 219.66L132.672 140.751L130.194 90.0799L104.18 46.8239L96.7474 28.2857C96.7474 28.2857 79.4044 30.1395 93.6504 65.3622L99.5346 84.2094C94.2305 95.607 91.4825 108.022 91.4825 120.588V163.776C91.4825 173.946 140.058 229.339 145.712 237.801L202 219.66Z" fill="#9F616A"/>
</svg>