 <svg xmlns="http://www.w3.org/2000/svg" width="401" height="178" viewBox="0 0 401 178" fill="none">
    <g clip-path="url(#clip0_18499_45996)">
        <path
            d="M170.788 113.718H8.73963C6.5551 113.715 4.46074 112.845 2.91604 111.296C1.37134 109.748 0.50245 107.649 0.499998 105.459V6.2891C0.501839 4.62173 1.16349 3.02318 2.33979 1.84415C3.51609 0.665124 5.11097 0.0019035 6.77454 0H172.66C174.348 0.00190586 175.967 0.674954 177.161 1.87147C178.354 3.068 179.026 4.69027 179.028 6.3824V105.459C179.025 107.649 178.156 109.748 176.612 111.296C175.067 112.845 172.973 113.715 170.788 113.718Z"
            fill="white" />
        <path
            d="M170.788 113.718H8.73963C6.5551 113.715 4.46074 112.845 2.91604 111.296C1.37134 109.748 0.50245 107.649 0.499998 105.459V6.2891C0.501839 4.62173 1.16349 3.02318 2.33979 1.84415C3.51609 0.665124 5.11097 0.0019035 6.77454 0H172.66C174.348 0.00190586 175.967 0.674954 177.161 1.87147C178.354 3.068 179.026 4.69027 179.028 6.3824V105.459C179.025 107.649 178.156 109.748 176.612 111.296C175.067 112.845 172.973 113.715 170.788 113.718ZM6.77454 1.78561C5.58331 1.78701 4.44128 2.26194 3.59897 3.10622C2.75667 3.95049 2.28288 5.09515 2.28154 6.2891V105.459C2.28349 107.175 2.96452 108.821 4.17522 110.034C5.38593 111.248 7.02744 111.93 8.73963 111.932H170.788C172.5 111.93 174.142 111.248 175.352 110.034C176.563 108.821 177.244 107.175 177.246 105.459V6.3824C177.245 5.16368 176.761 3.99526 175.901 3.13349C175.042 2.27172 173.876 1.78698 172.66 1.78561H6.77454Z"
            fill="#E6E6E6" />
        <path
            d="M74.4836 88.6094H25.9277C24.7397 88.6076 23.5927 88.1739 22.6995 87.3889C21.8063 86.6038 21.2276 85.5207 21.0708 84.3404C21.0413 84.1279 21.0271 83.9135 21.0285 83.6989V30.0189C21.0299 28.717 21.5466 27.4689 22.465 26.5483C23.3835 25.6277 24.6288 25.1099 25.9277 25.1084H74.4836C75.7825 25.1099 77.0278 25.6277 77.9463 26.5483C78.8648 27.4689 79.3814 28.717 79.3829 30.0189V83.6989C79.3814 85.0008 78.8648 86.2489 77.9463 87.1695C77.0278 88.0901 75.7825 88.6079 74.4836 88.6094ZM25.9277 27.7869C25.3373 27.7875 24.7713 28.0229 24.3538 28.4413C23.9363 28.8598 23.7014 29.4271 23.7008 30.0189V83.6989C23.6998 83.7907 23.7055 83.8824 23.7177 83.9733C23.7859 84.5131 24.0478 85.0094 24.4545 85.3697C24.8613 85.7299 25.3849 85.9295 25.9277 85.9309H74.4836C75.074 85.9303 75.6401 85.6949 76.0576 85.2765C76.4751 84.858 76.7099 84.2907 76.7106 83.6989V30.0189C76.7099 29.4271 76.4751 28.8598 76.0576 28.4413C75.6401 28.0229 75.074 27.7875 74.4836 27.7869H25.9277Z"
            fill="#E6E6E6" />
        <path
            d="M154.936 71.1549H96.1452C95.2002 71.1549 94.2939 70.7787 93.6257 70.1089C92.9575 69.4392 92.5821 68.5308 92.5821 67.5837C92.5821 66.6365 92.9575 65.7282 93.6257 65.0584C94.2939 64.3887 95.2002 64.0125 96.1452 64.0125H154.936C155.881 64.0125 156.787 64.3887 157.456 65.0584C158.124 65.7282 158.499 66.6365 158.499 67.5837C158.499 68.5308 158.124 69.4392 157.456 70.1089C156.787 70.7787 155.881 71.1549 154.936 71.1549Z"
            fill="#E6E6E6" />
        <path
            d="M128.213 55.9772H96.1452C95.2002 55.9772 94.2939 55.601 93.6257 54.9312C92.9575 54.2615 92.5821 53.3531 92.5821 52.406C92.5821 51.4588 92.9575 50.5505 93.6257 49.8807C94.2939 49.211 95.2002 48.8347 96.1452 48.8347H128.213C129.158 48.8347 130.064 49.211 130.732 49.8807C131.401 50.5505 131.776 51.4588 131.776 52.406C131.776 53.3531 131.401 54.2615 130.732 54.9312C130.064 55.601 129.158 55.9772 128.213 55.9772Z"
            fill="#E6E6E6" />
        <path
            d="M66.2157 55.3835C66.2157 63.2729 58.9374 62.0796 49.9591 62.0796C40.9808 62.0796 33.7025 63.2729 33.7025 55.3835C33.7025 47.4942 37.2578 33.5098 49.9591 33.5098C63.098 33.5098 66.2157 47.4942 66.2157 55.3835Z"
            fill="#2F2E41" />
        <path
            d="M66.8732 68.6613C66.5596 67.7542 65.9345 66.9884 65.1095 66.5007C64.9502 66.4027 64.7834 66.3176 64.6106 66.2462C63.8871 65.9447 63.0916 65.8609 62.3213 66.0052C61.5511 66.1496 60.8394 66.5157 60.2734 67.0588C59.7074 67.602 59.3116 68.2986 59.1342 69.0636C58.9569 69.8286 59.0058 70.6289 59.2749 71.3665L65.7508 86.1201H74.28L66.8732 68.6613Z"
            fill="#3F3D56" />
        <path
            d="M38.6134 69.4648C38.1016 69.2169 37.5432 69.0802 36.9749 69.0638C36.4067 69.0474 35.8414 69.1516 35.3161 69.3695C34.7908 69.5874 34.3175 69.9142 33.927 70.3283C33.5366 70.7425 33.238 71.2347 33.0507 71.7727L27.0201 85.9906C27.329 86.077 27.6481 86.1206 27.9688 86.1201H35.536L40.6488 74.4779C40.9898 73.5381 40.9704 72.5048 40.5943 71.5785C40.2182 70.6522 39.5123 69.8989 38.6134 69.4648Z"
            fill="#3F3D56" />
        <path
            d="M49.9048 62.0664C55.9463 62.0664 60.8439 57.1576 60.8439 51.1023C60.8439 45.047 55.9463 40.1382 49.9048 40.1382C43.8632 40.1382 38.9656 45.047 38.9656 51.1023C38.9656 57.1576 43.8632 62.0664 49.9048 62.0664Z"
            fill="#FFB8B8" />
        <path
            d="M65.3009 66.6748C65.2387 66.6168 65.1763 66.5543 65.1095 66.5007C64.3469 65.8116 63.4444 65.2963 62.4641 64.9904C61.4838 64.6844 60.4489 64.5951 59.4308 64.7285L39.2726 67.2864C37.426 67.5153 35.7411 68.4563 34.5753 69.9098C33.4095 71.3633 32.8546 73.2149 33.0283 75.0716C33.3045 78.1875 33.7499 82.1204 34.4625 86.1201H66.3076L67.4789 72.478C67.5732 71.409 67.4263 70.3323 67.0493 69.3278C66.6723 68.3233 66.0748 67.4166 65.3009 66.6748Z"
            fill="#3F3D56" />
        <path
            d="M37.2656 50.0267H41.5923L43.501 44.6698L43.8827 50.0267H45.9506L47.0641 46.9019L47.2868 50.0267H62.6526C62.6526 46.9485 61.4326 43.9963 59.2609 41.8197C57.0892 39.643 54.1438 38.4202 51.0726 38.4202H48.8456C45.7744 38.4202 42.829 39.643 40.6573 41.8197C38.4857 43.9963 37.2656 46.9485 37.2656 50.0267Z"
            fill="#2F2E41" />
        <path
            d="M221.972 105.459V6.3824C221.974 4.69027 222.646 3.068 223.839 1.87147C225.033 0.674954 226.652 0.00190586 228.34 0H394.225C395.889 0.0019035 397.484 0.665124 398.66 1.84415C399.837 3.02318 400.498 4.62173 400.5 6.2891V105.459C400.498 107.649 399.629 109.748 398.084 111.296C396.539 112.845 394.445 113.715 392.26 113.718H230.212C228.027 113.715 225.933 112.845 224.388 111.296C222.844 109.748 221.975 107.649 221.972 105.459Z"
            fill="white" />
        <path
            d="M221.972 105.459V6.3824C221.974 4.69027 222.646 3.068 223.839 1.87147C225.033 0.674954 226.652 0.00190586 228.34 0H394.225C395.889 0.0019035 397.484 0.665124 398.66 1.84415C399.837 3.02318 400.498 4.62173 400.5 6.2891V105.459C400.498 107.649 399.629 109.748 398.084 111.296C396.539 112.845 394.445 113.715 392.26 113.718H230.212C228.027 113.715 225.933 112.845 224.388 111.296C222.844 109.748 221.975 107.649 221.972 105.459ZM228.34 1.78561C227.124 1.78698 225.958 2.27172 225.099 3.13349C224.239 3.99526 223.755 5.16368 223.754 6.3824V105.459C223.756 107.175 224.437 108.821 225.648 110.034C226.858 111.248 228.5 111.93 230.212 111.932H392.26C393.973 111.93 395.614 111.248 396.825 110.034C398.035 108.821 398.717 107.175 398.718 105.459V6.2891C398.717 5.09515 398.243 3.95049 397.401 3.10622C396.559 2.26194 395.417 1.78701 394.225 1.78561H228.34Z"
            fill="#E6E6E6" />
        <path
            d="M321.617 83.6989V30.0189C321.619 28.717 322.135 27.4689 323.054 26.5483C323.972 25.6277 325.217 25.1099 326.516 25.1084H375.072C376.371 25.1099 377.616 25.6277 378.535 26.5483C379.453 27.4689 379.97 28.717 379.972 30.0189V83.6989C379.973 83.9135 379.959 84.1279 379.929 84.3404C379.772 85.5207 379.194 86.6038 378.3 87.3889C377.407 88.1739 376.26 88.6076 375.072 88.6094H326.516C325.217 88.6079 323.972 88.0901 323.054 87.1695C322.135 86.2489 321.619 85.0008 321.617 83.6989ZM326.516 27.7869C325.926 27.7875 325.36 28.0229 324.942 28.4413C324.525 28.8598 324.29 29.4271 324.289 30.0189V83.6989C324.29 84.2907 324.525 84.858 324.942 85.2765C325.36 85.6949 325.926 85.9303 326.516 85.9309H375.072C375.615 85.9295 376.139 85.7299 376.545 85.3697C376.952 85.0094 377.214 84.5131 377.282 83.9733C377.295 83.8824 377.3 83.7907 377.299 83.6989V30.0189C377.299 29.4271 377.064 28.8598 376.646 28.4413C376.229 28.0229 375.663 27.7875 375.072 27.7869H326.516Z"
            fill="#E6E6E6" />
        <path
            d="M242.501 67.5837C242.502 66.6369 242.878 65.7291 243.546 65.0596C244.214 64.3901 245.119 64.0135 246.064 64.0125H304.855C305.8 64.0125 306.706 64.3887 307.374 65.0584C308.043 65.7282 308.418 66.6365 308.418 67.5837C308.418 68.5308 308.043 69.4392 307.374 70.1089C306.706 70.7787 305.8 71.1549 304.855 71.1549H246.064C245.119 71.1538 244.214 70.7772 243.546 70.1077C242.878 69.4382 242.502 68.5305 242.501 67.5837Z"
            fill="#E6E6E6" />
        <path
            d="M242.501 52.406C242.502 51.4592 242.878 50.5514 243.546 49.8819C244.214 49.2124 245.119 48.8358 246.064 48.8347H278.132C279.077 48.8347 279.983 49.211 280.651 49.8807C281.319 50.5505 281.695 51.4588 281.695 52.406C281.695 53.3531 281.319 54.2615 280.651 54.9312C279.983 55.601 279.077 55.9772 278.132 55.9772H246.064C245.119 55.9761 244.214 55.5995 243.546 54.93C242.878 54.2605 242.502 53.3528 242.501 52.406Z"
            fill="#E6E6E6" />
        <path
            d="M338.795 45.9688C341.917 52.1218 344.378 58.4681 351.265 58.4681C354.573 58.4681 357.745 57.1512 360.084 54.8072C362.422 52.4631 363.736 49.2838 363.736 45.9688C363.736 42.6538 362.422 39.4745 360.084 37.1305C357.745 34.7864 354.573 33.4695 351.265 33.4695C344.266 33.3817 332.983 34.5161 338.795 45.9688Z"
            fill="#2F2E41" />
        <path
            d="M350.652 58.7115C356.693 58.7115 361.591 53.8027 361.591 47.7474C361.591 41.6921 356.693 36.7833 350.652 36.7833C344.61 36.7833 339.713 41.6921 339.713 47.7474C339.713 53.8027 344.61 58.7115 350.652 58.7115Z"
            fill="#A0616A" />
        <path
            d="M365.586 67.7328C364.881 66.9628 364.114 66.2521 363.293 65.6079C359.702 62.7872 355.201 61.3889 350.648 61.6796C350.466 61.6885 350.283 61.7019 350.1 61.7197C347.464 61.931 344.902 62.7027 342.586 63.9835C340.27 65.2643 338.252 67.0248 336.668 69.1479C335.059 71.3034 333.927 73.7785 333.35 76.4075C332.772 79.0366 332.761 81.759 333.318 84.3926C333.439 84.9506 333.545 85.513 333.648 86.0755H369.911L370.33 83.2632C370.748 80.4838 370.54 77.6456 369.719 74.9578C368.898 72.27 367.486 69.801 365.586 67.7328Z"
            fill="#3F3D56" />
        <path
            d="M371.141 70.6657C370.885 69.1988 370.124 67.8682 368.99 66.9057C367.857 65.9432 366.422 65.4097 364.936 65.3981C364.878 65.3981 364.816 65.4026 364.758 65.4026C364.263 65.4139 363.772 65.4828 363.293 65.6079C362.488 65.8223 361.733 66.1939 361.072 66.7015C360.411 67.209 359.856 67.8424 359.44 68.5654C359.023 69.2883 358.754 70.0866 358.646 70.9143C358.538 71.742 358.595 72.5829 358.812 73.3887L362.237 86.0755H373.764L371.141 70.6657Z"
            fill="#3F3D56" />
        <path
            d="M345.776 67.3399C345.341 66.4847 344.718 65.7398 343.954 65.1615C343.413 64.7519 342.808 64.4352 342.164 64.224C341.9 64.1338 341.631 64.0622 341.358 64.0098C339.868 63.7272 338.327 63.9876 337.012 64.744C335.697 65.5004 334.695 66.7029 334.187 68.1345L327.916 86.0755H339.817L345.887 72.8798C346.292 72.0092 346.492 71.0572 346.473 70.0969C346.454 69.1366 346.215 68.1935 345.776 67.3399Z"
            fill="#3F3D56" />
        <path
            d="M339.044 41.5511C341.543 43.2779 344.51 44.1969 347.546 44.1848C346.463 44.9374 345.231 45.4458 343.933 45.6749C347.969 46.5427 352.141 46.5662 356.187 45.7439C357.086 45.5993 357.954 45.3006 358.752 44.8608C359.15 44.6382 359.497 44.3341 359.769 43.9684C360.042 43.6027 360.235 43.1836 360.336 42.7383C360.605 41.1988 359.408 39.8002 358.164 38.8576C356.26 37.4365 354.064 36.4574 351.736 35.9911C349.408 35.5248 347.005 35.583 344.703 36.1615C343.199 36.5511 341.692 37.2093 340.716 38.4197C339.739 39.6301 339.45 41.4961 340.38 42.7425L339.044 41.5511Z"
            fill="#2F2E41" />
        <path
            d="M281.524 178H119.476C117.291 177.998 115.197 177.127 113.652 175.578C112.108 174.03 111.239 171.931 111.236 169.742V70.5712C111.238 68.9039 111.9 67.3053 113.076 66.1263C114.252 64.9473 115.847 64.284 117.511 64.2821H283.396C285.084 64.284 286.703 64.9571 287.897 66.1536C289.09 67.3501 289.762 68.9724 289.764 70.6645V169.742C289.761 171.931 288.892 174.03 287.348 175.578C285.803 177.127 283.709 177.998 281.524 178Z"
            fill="white" />
        <path
            d="M281.524 178H119.476C117.291 177.998 115.197 177.127 113.652 175.578C112.108 174.03 111.239 171.931 111.236 169.742V70.5712C111.238 68.9039 111.9 67.3053 113.076 66.1263C114.252 64.9473 115.847 64.284 117.511 64.2821H200.453H283.396C285.084 64.284 286.703 64.9571 287.897 66.1536C289.09 67.3501 289.762 68.9724 289.764 70.6645V169.742C289.761 171.931 288.892 174.03 287.348 175.578C285.803 177.127 283.709 177.998 281.524 178ZM117.511 66.0677C116.319 66.0691 115.177 66.5441 114.335 67.3884C113.493 68.2326 113.019 69.3773 113.018 70.5712V169.742C113.02 171.458 113.701 173.103 114.911 174.316C116.122 175.53 117.764 176.212 119.476 176.214H281.524C283.236 176.212 284.878 175.53 286.089 174.316C287.299 173.103 287.98 171.458 287.982 169.742V70.6645C287.981 69.4458 287.497 68.2774 286.638 67.4156C285.778 66.5539 284.612 66.0691 283.396 66.0677H117.511Z"
            fill="#3F3D56" />
        <path
            d="M185.22 152.892H136.664C135.476 152.89 134.329 152.456 133.436 151.671C132.543 150.886 131.964 149.803 131.807 148.623C131.777 148.41 131.763 148.196 131.765 147.981V94.301C131.766 92.9991 132.283 91.751 133.201 90.8304C134.12 89.9099 135.365 89.392 136.664 89.3906H185.22C186.519 89.392 187.764 89.9099 188.682 90.8304C189.601 91.751 190.118 92.9991 190.119 94.301V147.981C190.118 149.283 189.601 150.531 188.682 151.452C187.764 152.372 186.519 152.89 185.22 152.892ZM136.664 92.069C136.073 92.0697 135.507 92.305 135.09 92.7235C134.672 93.1419 134.438 93.7092 134.437 94.301V147.981C134.436 148.073 134.442 148.165 134.454 148.255C134.522 148.795 134.784 149.292 135.191 149.652C135.597 150.012 136.121 150.212 136.664 150.213H185.22C185.81 150.212 186.376 149.977 186.794 149.559C187.211 149.14 187.446 148.573 187.447 147.981V94.301C187.446 93.7092 187.211 93.1419 186.794 92.7235C186.376 92.305 185.81 92.0697 185.22 92.069H136.664Z"
            fill="#E6E6E6" />
        <path
            d="M160.237 99.2043C157.076 97.7304 153.195 97.2473 149.979 98.6168C146.762 99.9863 144.57 103.497 145.61 106.603C146.081 108.012 147.155 109.397 146.737 110.82C146.415 111.915 145.291 112.637 144.188 113.152C143.085 113.666 141.878 114.098 141.08 114.965C140.282 115.832 140.116 117.324 141.112 117.996C141.441 118.218 141.851 118.323 142.17 118.556C142.441 118.777 142.637 119.078 142.73 119.415C142.823 119.753 142.808 120.112 142.688 120.441C142.423 121.103 141.984 121.682 141.419 122.115C140.287 123.093 138.792 124.213 139.143 125.601C139.273 125.972 139.491 126.306 139.778 126.575C140.064 126.844 140.411 127.039 140.79 127.145C141.575 127.372 142.389 127.48 143.207 127.465L176.595 128.519C177.698 128.602 178.806 128.54 179.892 128.334C180.42 128.238 180.922 128.033 181.368 127.733C181.813 127.433 182.192 127.044 182.481 126.591C183.12 125.405 182.701 123.944 181.911 122.836C181.121 121.728 180.004 120.854 179.081 119.837C178.157 118.82 177.402 117.551 177.564 116.236C177.695 115.184 178.387 114.274 178.884 113.318C179.381 112.362 179.67 111.167 179.026 110.287C178.119 109.048 175.941 109.16 174.91 108.005C174.131 107.133 174.281 105.879 174.204 104.755C174.018 102.051 172.15 99.4976 169.492 98.3119C168.14 97.7303 166.669 97.4792 165.202 97.5794C163.734 97.6795 162.311 98.1281 161.05 98.8881L160.237 99.2043Z"
            fill="#2F2E41" />
        <path
            d="M161.472 128.259C167.514 128.259 172.411 123.351 172.411 117.295C172.411 111.24 167.514 106.331 161.472 106.331C155.431 106.331 150.533 111.24 150.533 117.295C150.533 123.351 155.431 128.259 161.472 128.259Z"
            fill="#A0616A" />
        <path
            d="M175.834 142.419C175.823 140.497 175.292 138.614 174.298 136.971C173.303 135.328 171.882 133.986 170.187 133.089C170.049 133.013 169.906 132.946 169.764 132.879C168.533 132.294 167.2 131.955 165.84 131.879L155.427 131.294C153.956 131.21 152.484 131.437 151.106 131.96C150.771 132.085 150.442 132.228 150.122 132.388C149.116 132.885 148.195 133.541 147.396 134.33C146.344 135.371 145.521 136.622 144.979 138.001C144.438 139.38 144.19 140.858 144.252 142.338L144.439 146.762L145.749 150.168H174.863C175.224 149.73 175.538 149.254 175.799 148.749C176.292 147.768 176.552 146.686 176.558 145.588C176.565 144.49 176.317 143.405 175.834 142.419Z"
            fill="#3F3D56" />
        <path
            d="M175.122 136.553C174.647 135.52 173.902 134.635 172.966 133.991C172.291 133.527 171.533 133.197 170.734 133.018C170.415 132.947 170.09 132.901 169.764 132.879C169.121 132.835 168.475 132.891 167.848 133.044C166.914 133.277 166.044 133.72 165.305 134.34C164.566 134.959 163.977 135.739 163.583 136.62C163.188 137.501 162.999 138.46 163.029 139.426C163.059 140.391 163.307 141.336 163.755 142.191L167.759 149.789L167.96 150.168H181.406L175.122 136.553Z"
            fill="#3F3D56" />
        <path
            d="M153.115 132.594C152.485 132.272 151.806 132.058 151.106 131.96C150.585 131.885 150.057 131.878 149.534 131.937C148.204 132.088 146.955 132.657 145.966 133.562C144.977 134.467 144.299 135.663 144.029 136.977L141.317 150.168H151.926L153.908 149.356L156.375 139.865C156.734 138.462 156.607 136.979 156.015 135.658C155.423 134.336 154.4 133.256 153.115 132.594Z"
            fill="#3F3D56" />
        <path
            d="M150.281 115.737C153.736 115.458 156.604 111.999 156.245 108.545C156.204 109.969 156.687 111.358 157.602 112.448C158.517 113.538 159.8 114.254 161.207 114.457C162.791 114.632 164.529 114.152 165.908 114.953C167.436 115.841 167.925 117.996 169.516 118.762C171.054 119.503 173.007 118.493 173.767 116.962C174.526 115.431 174.34 113.591 173.836 111.958C173.118 109.628 171.811 107.524 170.041 105.85C168.272 104.177 166.1 102.991 163.738 102.408C161.375 101.825 158.902 101.864 156.56 102.523C154.217 103.181 152.085 104.436 150.369 106.165C148.917 107.63 147.763 109.496 147.576 111.553C147.389 113.609 148.341 115.841 150.184 116.764L150.281 115.737Z"
            fill="#2F2E41" />
        <path
            d="M265.672 135.437H206.881C205.936 135.437 205.03 135.061 204.362 134.391C203.694 133.721 203.318 132.813 203.318 131.866C203.318 130.919 203.694 130.01 204.362 129.341C205.03 128.671 205.936 128.295 206.881 128.295H265.672C266.617 128.295 267.524 128.671 268.192 129.341C268.86 130.01 269.235 130.919 269.235 131.866C269.235 132.813 268.86 133.721 268.192 134.391C267.524 135.061 266.617 135.437 265.672 135.437Z"
            fill="#E6E6E6" />
        <path
            d="M238.949 120.259H206.881C205.936 120.259 205.03 119.883 204.362 119.213C203.694 118.544 203.318 117.635 203.318 116.688C203.318 115.741 203.694 114.833 204.362 114.163C205.03 113.493 205.936 113.117 206.881 113.117H238.949C239.894 113.117 240.8 113.493 241.469 114.163C242.137 114.833 242.512 115.741 242.512 116.688C242.512 117.635 242.137 118.544 241.469 119.213C240.8 119.883 239.894 120.259 238.949 120.259Z"
            fill="#FF69A8" />
        <path
            d="M256.156 146.34C253.044 146.346 250.061 147.589 247.862 149.796C245.664 152.004 244.429 154.996 244.429 158.115C244.429 161.234 245.664 164.226 247.862 166.434C250.061 168.641 253.043 169.885 256.156 169.89C259.268 169.885 262.25 168.641 264.449 166.434C266.648 164.226 267.882 161.234 267.882 158.115C267.882 154.996 266.648 152.004 264.449 149.797C262.25 147.589 259.268 146.346 256.156 146.34Z"
            fill="#FF69A8" />
        <path
            d="M255.041 163.006C254.732 163.006 254.431 162.906 254.183 162.72L254.168 162.708L250.937 160.231C250.635 159.999 250.438 159.656 250.389 159.278C250.339 158.9 250.441 158.517 250.673 158.215C250.904 157.912 251.246 157.714 251.623 157.664C252 157.614 252.382 157.716 252.684 157.947L254.777 159.556L259.722 153.089C259.836 152.939 259.979 152.814 260.143 152.719C260.306 152.625 260.486 152.563 260.673 152.539C260.86 152.514 261.05 152.526 261.232 152.575C261.414 152.624 261.584 152.708 261.734 152.823L261.734 152.823L261.704 152.866L261.735 152.823C262.037 153.056 262.234 153.399 262.284 153.777C262.334 154.155 262.232 154.538 262.001 154.84L256.184 162.443C256.05 162.618 255.877 162.76 255.679 162.857C255.481 162.954 255.263 163.004 255.042 163.004L255.041 163.006Z"
            fill="white" />
    </g>
    <defs>
        <clipPath id="clip0_18499_45996">
            <rect width="400" height="178" fill="white" transform="translate(0.5)" />
        </clipPath>
    </defs>
</svg>